<svg width="3100" height="2110" viewBox="0 0 3100 2110" fill="none" xmlns="http://www.w3.org/2000/svg">
<path d="M117.768 2066.14L112.442 2058.01L102.729 2057.79L108.811 2050.22L106.018 2040.91L115.102 2044.35L123.089 2038.82L122.622 2048.53L130.351 2054.41L120.977 2056.97L117.768 2066.14Z" fill="#E2BB52"/>
<path d="M2269.69 135.896L2261.81 141.281L2261.78 150.822L2254.22 144.995L2245.14 147.915L2248.35 138.928L2242.76 131.191L2252.3 131.465L2257.93 123.763L2260.62 132.919L2269.69 135.896Z" fill="#E2BB52"/>
<path d="M2605.15 226.483L2613.3 237.921L2627.34 237.693L2618.98 248.977L2623.54 262.262L2610.22 257.798L2599 266.236L2599.13 252.193L2587.63 244.124L2601.03 239.908L2605.15 226.483Z" fill="#5A4200"/>
<path d="M1813.15 140.47L1802.67 146.187L1801.44 158.062L1792.76 149.86L1781.09 152.358L1786.21 141.572L1780.23 131.239L1792.07 132.775L1800.04 123.892L1802.24 135.628L1813.15 140.47Z" fill="#C29B32"/>
<path d="M1548.51 373.699L1541.29 375.495L1538.69 382.455L1534.75 376.151L1527.32 375.82L1532.1 370.128L1530.12 362.965L1537.01 365.75L1543.21 361.654L1542.69 369.068L1548.51 373.699Z" fill="#C29B32"/>
<path d="M2092.42 160.014L2112.31 164.814L2127.55 151.148L2129.13 171.55L2146.83 181.813L2127.92 189.622L2123.63 209.631L2110.35 194.055L2090 196.159L2100.71 178.723L2092.42 160.014Z" fill="#FFDE86"/>
<path d="M1355.52 1048.98L1362.98 1045.86L1364.63 1037.94L1369.91 1044.07L1377.95 1043.2L1373.75 1050.11L1377.07 1057.49L1369.19 1055.63L1363.2 1061.06L1362.54 1053L1355.52 1048.98Z" fill="#FFDE86"/>
<path d="M468.836 486.823L473.987 496.731L485.069 498.105L477.238 506.066L479.356 517.031L469.365 512.042L459.591 517.445L461.248 506.401L453.089 498.776L464.104 496.938L468.836 486.823Z" fill="#FFD86F"/>
<path d="M423.711 1618.52L412.324 1626.58L412.512 1640.53L401.324 1632.2L388.113 1636.69L392.585 1623.47L384.233 1612.29L398.185 1612.46L406.233 1601.06L410.384 1614.38L423.711 1618.52Z" fill="#906900"/>
<path d="M2420.32 149.703L2425.35 154.904L2432.48 153.713L2429.09 160.099L2432.42 166.514L2425.3 165.26L2420.23 170.417L2419.22 163.256L2412.75 160.027L2419.25 156.855L2420.32 149.703Z" fill="#E9C259"/>
<path d="M1470.1 1646.83L1479.72 1644.57L1483.3 1635.37L1488.43 1643.81L1498.29 1644.38L1491.84 1651.86L1494.35 1661.41L1485.24 1657.59L1476.93 1662.93L1477.75 1653.09L1470.1 1646.83Z" fill="#E9C259"/>
<path d="M106.218 892.366L98.7744 902.904L103.234 915.01L90.9124 911.187L80.7774 919.17L80.6064 906.269L69.8813 899.097L82.0974 894.948L85.6043 882.532L93.3263 892.868L106.218 892.366Z" fill="#C29B32"/>
<path d="M1379.07 500.126L1359.65 508.68L1355.69 529.521L1341.56 513.702L1320.51 516.377L1331.19 498.046L1322.14 478.858L1342.88 483.348L1358.33 468.814L1360.47 489.92L1379.07 500.126Z" fill="#906900"/>
<path d="M1253.61 1923.29L1251.33 1950.25L1272.24 1967.42L1245.89 1973.58L1236.02 1998.77L1222.03 1975.61L1195.02 1974.02L1212.71 1953.55L1205.89 1927.36L1230.82 1937.87L1253.61 1923.29Z" fill="#7B5A00"/>
<path d="M1547.58 2049.49L1553.21 2044.73L1552.48 2037.39L1558.75 2041.27L1565.5 2038.31L1563.75 2045.47L1568.65 2050.98L1561.3 2051.52L1557.58 2057.89L1554.79 2051.06L1547.58 2049.49Z" fill="#FFFAED"/>
<path d="M278.738 1766.32L268.971 1768.86L265.531 1778.35L260.091 1769.85L250.003 1769.51L256.409 1761.71L253.615 1752.01L263.013 1755.69L271.374 1750.04L270.777 1760.11L278.738 1766.32Z" fill="#C29B32"/>
<path d="M1991.94 892.399L1996.02 886.183L1993.21 879.297L2000.38 881.257L2006.06 876.459L2006.42 883.887L2012.73 887.808L2005.78 890.438L2004 897.659L1999.35 891.857L1991.94 892.399Z" fill="#E2BB52"/>
<path d="M2402.8 1906.88L2430.28 1907.68L2446.52 1885.51L2454.24 1911.89L2480.35 1920.48L2457.65 1935.97L2457.54 1963.46L2435.79 1946.66L2409.62 1955.05L2418.87 1929.17L2402.8 1906.88Z" fill="#906900"/>
<path d="M1673.51 1548.03L1675.04 1557.41L1683.64 1561.46L1675.19 1565.82L1673.99 1575.24L1667.24 1568.56L1657.91 1570.34L1662.18 1561.85L1657.6 1553.52L1667 1554.96L1673.51 1548.03Z" fill="#7B5A00"/>
<path d="M157.38 1362.79L152.917 1381.33L165.658 1395.51L146.648 1396.99L137.093 1413.49L129.807 1395.87L111.161 1391.89L125.669 1379.51L123.7 1360.55L139.951 1370.52L157.38 1362.79Z" fill="#906900"/>
<path d="M1540.05 176.02L1546.7 173.308L1548.24 166.288L1552.88 171.779L1560.03 171.072L1556.24 177.178L1559.12 183.76L1552.14 182.044L1546.77 186.818L1546.25 179.652L1540.05 176.02Z" fill="#FFD86F"/>
<path d="M1154.36 1731.84L1161.9 1731.43L1165.84 1724.99L1168.56 1732.03L1175.91 1733.78L1170.05 1738.55L1170.65 1746.08L1164.31 1741.98L1157.34 1744.88L1159.28 1737.58L1154.36 1731.84Z" fill="#9F780F"/>
<path d="M2484.43 455.057L2481.7 447.96L2474.31 446.182L2480.22 441.395L2479.62 433.815L2486 437.955L2493.03 435.047L2491.06 442.392L2496 448.176L2488.4 448.576L2484.43 455.057Z" fill="#7B5A00"/>
<path d="M2279.63 1698.8L2293.77 1694.17L2297.97 1679.9L2306.74 1691.91L2321.61 1691.5L2312.9 1703.56L2317.89 1717.57L2303.73 1713.01L2291.94 1722.08L2291.9 1707.21L2279.63 1698.8Z" fill="#E9C259"/>
<path d="M63.3613 582.566L61.6993 595.083L71.0683 603.548L58.6503 605.836L53.4953 617.363L47.4813 606.259L34.9263 604.918L43.6273 595.768L41.0233 583.412L52.4143 588.861L63.3613 582.566Z" fill="#B79027"/>
<path d="M621.454 96.322L611.57 114.159L620.66 132.412L600.642 128.524L586.091 142.811L583.603 122.571L565.519 113.146L583.999 104.526L587.374 84.415L601.284 99.326L621.454 96.322Z" fill="#9F780F"/>
<path d="M2439.06 974.531L2450.03 960.304L2444.54 943.198L2461.46 949.24L2476.03 938.726L2475.51 956.686L2490.01 967.294L2472.77 972.353L2467.16 989.423L2457.03 974.589L2439.06 974.531Z" fill="#E2BB52"/>
<path d="M2010.56 1696.95L2022.09 1717.47L2045.53 1719.61L2029.58 1736.92L2034.79 1759.87L2013.4 1750.05L1993.18 1762.1L1995.91 1738.72L1978.2 1723.21L2001.29 1718.59L2010.56 1696.95Z" fill="#C29B32"/>
<path d="M2676.11 906.909L2686.75 895.077L2683.03 879.606L2697.57 886.067L2711.14 877.753L2709.49 893.577L2721.59 903.91L2706.03 907.229L2699.94 921.929L2691.97 908.156L2676.11 906.909Z" fill="#B79027"/>
<path d="M749.361 207.354L761.155 208.635L768.896 199.645L771.322 211.257L782.264 215.841L771.97 221.738L770.991 233.56L762.203 225.592L750.656 228.315L755.519 217.494L749.361 207.354Z" fill="#E9C259"/>
<path d="M65.4854 1685.59L73.1654 1704.59L93.1724 1709.04L77.4734 1722.21L79.4274 1742.61L62.0454 1731.75L43.2464 1739.92L48.2024 1720.03L34.6304 1704.67L55.0754 1703.24L65.4854 1685.59Z" fill="#9F780F"/>
<path d="M2759.55 563.571L2747.6 569.241L2745.49 582.306L2736.4 572.686L2723.32 574.718L2729.66 563.103L2723.69 551.294L2736.7 553.735L2746.08 544.405L2747.78 557.529L2759.55 563.571Z" fill="#E9C259"/>
<path d="M1996.8 1058.94L2005.06 1056.26L2007.53 1047.94L2012.63 1054.97L2021.31 1054.75L2016.2 1061.77L2019.09 1069.96L2010.84 1067.27L2003.94 1072.55L2003.95 1063.87L1996.8 1058.94Z" fill="#FFFAED"/>
<path d="M1697.24 1874.97L1688.78 1871.04L1680.75 1875.79L1681.86 1866.53L1674.87 1860.35L1684.02 1858.56L1687.73 1850L1692.27 1858.15L1701.56 1859.03L1695.21 1865.86L1697.24 1874.97Z" fill="#906900"/>
<path d="M534.932 277.974L541.939 285.859L552.407 284.557L547.073 293.658L551.547 303.211L541.243 300.951L533.539 308.157L532.505 297.659L523.271 292.559L532.935 288.332L534.932 277.974Z" fill="#9F780F"/>
<path d="M2348.44 2032.27L2335.82 2032.83L2329.13 2043.54L2324.7 2031.72L2312.44 2028.67L2322.32 2020.79L2321.43 2008.19L2331.97 2015.15L2343.68 2010.42L2340.32 2022.59L2348.44 2032.27Z" fill="#FFFAED"/>
<path d="M3015.89 400.245L3021.51 395.297L3020.62 387.862L3027.06 391.678L3033.86 388.534L3032.22 395.841L3037.31 401.332L3029.85 402.032L3026.2 408.571L3023.23 401.696L3015.89 400.245Z" fill="#C29B32"/>
<path d="M1736.71 308.524L1731.54 327.006L1743.84 341.74L1724.66 342.537L1714.45 358.784L1707.77 340.795L1689.16 336.102L1704.2 324.187L1702.92 305.04L1718.9 315.665L1736.71 308.524Z" fill="#7B5A00"/>
<path d="M1994.95 646.759L2001.82 638.869L1999.22 628.737L2008.85 632.833L2017.68 627.225L2016.76 637.646L2024.82 644.312L2014.62 646.657L2010.78 656.385L2005.39 647.413L1994.95 646.759Z" fill="#D4AD44"/>
<path d="M3011.42 1002.83L3002.54 999.564L2994.82 1005.02L2995.18 995.57L2987.6 989.909L2996.71 987.338L2999.75 978.381L3005.01 986.244L3014.47 986.369L3008.61 993.8L3011.42 1002.83Z" fill="#FFD86F"/>
<path d="M2638.17 1739.85L2645.14 1722.38L2634.7 1706.72L2653.47 1707.96L2665.13 1693.19L2669.76 1711.42L2687.41 1717.95L2671.5 1727.99L2670.75 1746.79L2656.28 1734.76L2638.17 1739.85Z" fill="#7B5A00"/>
<path d="M1992.03 1554.03L2002.59 1545.52L2001.57 1531.99L2012.93 1539.41L2025.48 1534.25L2021.93 1547.35L2030.71 1557.69L2017.16 1558.36L2010.04 1569.91L2005.21 1557.23L1992.03 1554.03Z" fill="#B79027"/>
<path d="M856.936 550.576L861.996 556.168L869.471 555.17L865.716 561.71L868.975 568.511L861.595 566.961L856.134 572.162L855.327 564.664L848.693 561.078L855.575 557.993L856.936 550.576Z" fill="#D4AD44"/>
<path d="M2746.07 1050.57L2727.24 1065.09L2728.52 1088.83L2708.9 1075.4L2686.71 1083.96L2693.42 1061.15L2678.43 1042.69L2702.19 1042.02L2715.11 1022.06L2723.09 1044.46L2746.07 1050.57Z" fill="#D4AD44"/>
<path d="M81.1531 419.288L88.4581 421.394L94.3351 416.57L94.5891 424.169L100.993 428.268L93.8441 430.858L91.9251 438.215L87.2531 432.216L79.6631 432.665L83.9241 426.368L81.1531 419.288Z" fill="#906900"/>
<path d="M274.928 1394.26L268.146 1385.54L257.12 1386.19L263.314 1377.04L259.293 1366.75L269.904 1369.82L278.444 1362.82L278.808 1373.85L288.107 1379.81L277.721 1383.57L274.928 1394.26Z" fill="#9F780F"/>
<path d="M96.5731 1241.87L93.5311 1253.56L101.44 1262.7L89.3781 1263.42L83.1341 1273.76L78.7221 1262.51L66.9541 1259.77L76.2881 1252.1L75.2601 1240.06L85.4411 1246.57L96.5731 1241.87Z" fill="#7B5A00"/>
<path d="M1433.66 1788.1L1427.72 1780.68L1418.24 1781.36L1423.46 1773.42L1419.88 1764.61L1429.05 1767.12L1436.32 1761L1436.76 1770.49L1444.84 1775.52L1435.94 1778.87L1433.66 1788.1Z" fill="#5A4200"/>
<path d="M47.8104 1589.27L57.4764 1594.29L67.0914 1589.18L65.3034 1599.92L73.1404 1607.48L62.3694 1609.1L57.5964 1618.89L52.7284 1609.15L41.9424 1607.64L49.7044 1600L47.8104 1589.27Z" fill="#5A4200"/>
<path d="M1717.4 1056.18L1726.74 1064.48L1738.87 1061.49L1733.86 1072.94L1740.45 1083.55L1728.02 1082.32L1719.95 1091.87L1717.28 1079.67L1705.71 1074.95L1716.49 1068.64L1717.4 1056.18Z" fill="#C29B32"/>
<path d="M569.288 2036.51L589.835 2034.53L599.849 2016.48L608.085 2035.4L628.347 2039.35L612.89 2053.03L615.399 2073.52L597.61 2063.05L578.898 2071.77L583.36 2051.61L569.288 2036.51Z" fill="#D4AD44"/>
<path d="M2948.44 1801.02L2943.39 1792.44L2933.46 1791.74L2940.06 1784.29L2937.66 1774.63L2946.78 1778.6L2955.23 1773.33L2954.27 1783.24L2961.89 1789.64L2952.17 1791.79L2948.44 1801.02Z" fill="#FFDE86"/>
<path d="M2454.52 1497.98L2443.31 1501.7L2440.02 1513.05L2433.01 1503.54L2421.21 1503.91L2428.09 1494.31L2424.08 1483.2L2435.34 1486.78L2444.68 1479.53L2444.75 1491.35L2454.52 1497.98Z" fill="#D4AD44"/>
<path d="M968.884 1912.44L949.773 1918.59L944.004 1937.82L932.249 1921.55L912.177 1922.01L924.024 1905.8L917.387 1886.85L936.464 1893.1L952.434 1880.94L952.378 1901.02L968.884 1912.44Z" fill="#FFFAED"/>
<path d="M1832.72 1587.81L1824.12 1601.15L1830.24 1615.8L1814.9 1611.74L1802.86 1622.09L1801.97 1606.24L1788.42 1597.99L1803.21 1592.25L1806.87 1576.81L1816.9 1589.1L1832.72 1587.81Z" fill="#FFD86F"/>
<path d="M920.636 1137.14L930.525 1140.83L939.17 1134.78L938.719 1145.32L947.149 1151.67L936.981 1154.5L933.547 1164.48L927.714 1155.68L917.161 1155.5L923.724 1147.24L920.636 1137.14Z" fill="#FFDE86"/>
<path d="M14.9702 1095.21L22.0352 1099.17L29.3002 1095.59L27.7192 1103.53L33.3662 1109.33L25.3242 1110.29L21.5492 1117.45L18.1602 1110.09L10.1802 1108.72L16.1272 1103.22L14.9702 1095.21Z" fill="#5A4200"/>
<path d="M3039.21 762.068L3051.18 765.796L3061.04 758.05L3061.19 770.584L3071.6 777.564L3059.73 781.583L3056.31 793.643L3048.82 783.592L3036.29 784.066L3043.53 773.835L3039.21 762.068Z" fill="#FFFAED"/>
<path d="M2227.6 928.619L2226.18 942.197L2236.56 951.065L2223.21 953.91L2217.98 966.522L2211.15 954.702L2197.54 953.628L2206.67 943.479L2203.49 930.203L2215.96 935.75L2227.6 928.619Z" fill="#FFD86F"/>
<path d="M2843.32 1480.89L2844.25 1471.31L2836.88 1465.11L2846.28 1463.03L2849.89 1454.11L2854.78 1462.41L2864.38 1463.09L2858 1470.3L2860.31 1479.64L2851.49 1475.8L2843.32 1480.89Z" fill="#906900"/>
<path d="M68.3162 1459.15L60.4582 1460.18L56.8492 1467.23L53.4442 1460.08L45.6182 1458.83L51.3712 1453.38L50.1432 1445.55L57.1052 1449.34L64.1722 1445.75L62.7212 1453.54L68.3162 1459.15Z" fill="#7B5A00"/>
<path d="M185.155 1287.9L182.496 1302.14L192.722 1312.4L178.355 1314.28L171.752 1327.17L165.531 1314.09L151.225 1311.79L161.748 1301.83L159.509 1287.52L172.233 1294.45L185.155 1287.9Z" fill="#9F780F"/>
<path d="M1270.19 1554.66L1263.94 1549.98L1256.55 1552.49L1259.06 1545.1L1254.4 1538.84L1262.2 1538.94L1266.71 1532.58L1269.02 1540.03L1276.47 1542.35L1270.1 1546.85L1270.19 1554.66Z" fill="#C29B32"/>
<path d="M1119.96 1309.42L1118.23 1316.6L1123.17 1322.1L1115.81 1322.67L1112.11 1329.07L1109.28 1322.24L1102.05 1320.7L1107.67 1315.9L1106.91 1308.55L1113.21 1312.42L1119.96 1309.42Z" fill="#FFD86F"/>
<path d="M1805.88 1893.96L1812.46 1921.34L1838.75 1931.45L1814.74 1946.17L1813.25 1974.29L1791.83 1956L1764.63 1963.28L1775.4 1937.26L1760.08 1913.63L1788.15 1915.84L1805.88 1893.96Z" fill="#5A4200"/>
<path d="M745.726 1366.96L743.563 1359.13L735.885 1356.47L742.665 1352L742.82 1343.87L749.174 1348.94L756.948 1346.58L754.095 1354.18L758.744 1360.85L750.627 1360.48L745.726 1366.96Z" fill="#D4AD44"/>
<path d="M3077.55 635.606L3064.91 640.468L3061.75 653.638L3053.22 643.118L3039.72 644.182L3047.09 632.818L3041.9 620.306L3054.99 623.802L3065.29 615.005L3066 628.53L3077.55 635.606Z" fill="#C29B32"/>
<path d="M295.538 1107.81L296.967 1115.02L303.713 1117.92L297.303 1121.51L296.623 1128.82L291.232 1123.84L284.066 1125.45L287.144 1118.78L283.395 1112.46L290.689 1113.33L295.538 1107.81Z" fill="#FFD86F"/>
<path d="M602.616 1344.28L598.25 1352.03L602.163 1360.03L593.439 1358.27L587.047 1364.46L586.021 1355.62L578.158 1351.46L586.248 1347.75L587.78 1338.98L593.806 1345.53L602.616 1344.28Z" fill="#E2BB52"/>
<path d="M240.204 940.234L234.813 949.251L239.184 958.803L228.944 956.462L221.21 963.571L220.271 953.108L211.12 947.95L220.781 943.824L222.859 933.527L229.768 941.44L240.204 940.234Z" fill="#9F780F"/>
<path d="M826.114 2054.82L823.758 2047.98L816.793 2046.05L822.563 2041.7L822.249 2034.48L828.172 2038.62L834.942 2036.09L832.832 2043L837.331 2048.66L830.104 2048.79L826.114 2054.82Z" fill="#C29B32"/>
<path d="M2871.58 295.921L2859.56 290.704L2848.45 297.649L2849.7 284.604L2839.66 276.181L2852.45 273.336L2857.36 261.186L2864.02 272.472L2877.09 273.386L2868.41 283.206L2871.58 295.921Z" fill="#E9C259"/>
<path d="M2802.46 1235.02L2795.1 1253.41L2806.08 1269.9L2786.32 1268.58L2774.03 1284.11L2769.18 1264.91L2750.61 1258.03L2767.37 1247.48L2768.18 1227.69L2783.39 1240.37L2802.46 1235.02Z" fill="#5A4200"/>
<path d="M369.251 1472.26L383.556 1469.69L389.546 1456.45L396.415 1469.26L410.862 1470.86L400.802 1481.35L403.741 1495.59L390.654 1489.26L378.024 1496.45L379.996 1482.05L369.251 1472.26Z" fill="#9F780F"/>
<path d="M749.756 1916.05L746.304 1906.86L736.776 1904.49L744.451 1898.37L743.757 1888.58L751.952 1893.98L761.052 1890.3L758.442 1899.76L764.759 1907.28L754.951 1907.72L749.756 1916.05Z" fill="#FFDE86"/>
<path d="M569.036 1548L582.007 1534.04L577.861 1515.44L595.146 1523.46L611.554 1513.77L609.265 1532.69L623.552 1545.3L604.852 1548.97L597.274 1566.45L588.006 1549.8L569.036 1548Z" fill="#E9C259"/>
<path d="M3003.21 1223.02L2990.26 1220.21L2980.6 1229.29L2979.27 1216.1L2967.66 1209.72L2979.79 1204.38L2982.27 1191.36L2991.09 1201.25L3004.24 1199.59L2997.56 1211.04L3003.21 1223.02Z" fill="#FFD86F"/>
<path d="M2124.87 1711.26L2131.69 1718.62L2141.63 1717.18L2136.73 1725.94L2141.17 1734.94L2131.32 1732.99L2124.14 1740L2122.95 1730.03L2114.06 1725.36L2123.18 1721.15L2124.87 1711.26Z" fill="#906900"/>
<path d="M2578.18 1337.6L2570.54 1324.53L2555.45 1323.41L2565.52 1312.11L2561.92 1297.41L2575.78 1303.5L2588.65 1295.53L2587.14 1310.59L2598.69 1320.37L2583.91 1323.59L2578.18 1337.6Z" fill="#FFFAED"/>
<path d="M181.064 63.248L188.7 39.826L173.734 20.257L198.37 20.281L212.356 0L219.946 23.438L243.557 30.473L223.611 44.934L224.217 69.562L204.3 55.062L181.064 63.248Z" fill="#7B5A00"/>
<path d="M270.036 663.105L265.53 651.607L253.504 648.799L263.047 640.961L262.001 628.656L272.405 635.31L283.784 630.512L280.671 642.463L288.75 651.803L276.422 652.535L270.036 663.105Z" fill="#FFD86F"/>
<path d="M2567.03 598.611L2557.44 581.75L2538.12 580.088L2551.19 565.76L2546.8 546.868L2564.47 554.874L2581.08 544.86L2578.92 564.135L2593.58 576.838L2574.58 580.745L2567.03 598.611Z" fill="#FFDE86"/>
<path d="M2788.44 89.038L2783.7 104.945L2794.12 117.866L2777.53 118.276L2768.46 132.177L2762.94 116.524L2746.92 112.195L2760.1 102.11L2759.27 85.533L2772.93 94.954L2788.44 89.038Z" fill="#E9C259"/>
<path d="M1746.38 778.273L1738.88 786.398L1741.31 797.19L1731.27 792.56L1721.76 798.212L1723.05 787.226L1714.74 779.928L1725.59 777.767L1729.96 767.605L1735.37 777.256L1746.38 778.273Z" fill="#7B5A00"/>
<path d="M2636.46 2038.05L2622 2023.65L2601.94 2027.41L2611.16 2009.2L2601.39 1991.28L2621.55 1994.43L2635.57 1979.6L2638.82 1999.75L2657.25 2008.5L2639.09 2017.81L2636.46 2038.05Z" fill="#E2BB52"/>
<path d="M984.312 890.327L977.031 886.56L969.8 890.422L971.134 882.334L965.227 876.65L973.331 875.419L976.911 868.045L980.586 875.371L988.706 876.498L982.873 882.257L984.312 890.327Z" fill="#7B5A00"/>
<path d="M1921.62 1414.66L1914.05 1418.92L1913.27 1427.58L1906.88 1421.7L1898.41 1423.63L1902.02 1415.73L1897.56 1408.27L1906.2 1409.27L1911.91 1402.72L1913.63 1411.24L1921.62 1414.66Z" fill="#B79027"/>
<path d="M2366.55 835.991L2376.95 836.686L2383.42 828.514L2385.97 838.619L2395.74 842.246L2386.92 847.796L2386.49 858.211L2378.49 851.535L2368.45 854.345L2372.33 844.669L2366.55 835.991Z" fill="#FFD86F"/>
<path d="M1094.81 1546.7L1087.76 1547.89L1084.75 1554.38L1081.44 1548.05L1074.34 1547.19L1079.34 1542.08L1077.96 1535.06L1084.37 1538.24L1090.61 1534.76L1089.57 1541.83L1094.81 1546.7Z" fill="#9F780F"/>
<path d="M2885.2 2002.8L2884.02 2013.83L2892.43 2021.06L2881.57 2023.35L2877.3 2033.59L2871.77 2023.96L2860.71 2023.06L2868.15 2014.83L2865.59 2004.03L2875.72 2008.57L2885.2 2002.8Z" fill="#906900"/>
<path d="M639.037 1218.51L652.784 1213.44L656.401 1199.24L665.471 1210.74L680.093 1209.8L671.951 1221.98L677.371 1235.59L663.269 1231.61L651.997 1240.98L651.423 1226.33L639.037 1218.51Z" fill="#FFDE86"/>
<path d="M904.178 293.065L905.512 271.211L888.265 257.722L909.462 252.237L916.961 231.666L928.727 250.131L950.609 250.906L936.684 267.803L942.708 288.853L922.336 280.831L904.178 293.065Z" fill="#B79027"/>
<path d="M1884.22 505.475L1898.53 501.948L1903.74 488.16L1911.52 500.681L1926.24 501.373L1916.74 512.638L1920.63 526.855L1906.98 521.296L1894.66 529.39L1895.73 514.689L1884.22 505.475Z" fill="#5A4200"/>
<path d="M415.683 1096.07L423.57 1099.16L430.583 1094.41L430.085 1102.87L436.766 1108.07L428.572 1110.21L425.689 1118.17L421.122 1111.04L412.659 1110.76L418.031 1104.21L415.683 1096.07Z" fill="#FFDE86"/>
<path d="M547.424 879.891L550.559 864.721L539.84 853.538L555.236 851.832L562.559 838.182L568.939 852.298L584.184 855.044L572.731 865.474L574.83 880.822L561.371 873.152L547.424 879.891Z" fill="#FFDE86"/>
<path d="M2925.25 587.767L2912.58 574.011L2894.07 576.647L2903.24 560.349L2895.01 543.556L2913.34 547.24L2926.77 534.226L2928.93 552.801L2945.46 561.55L2928.46 569.346L2925.25 587.767Z" fill="#9F780F"/>
<path d="M2006.82 347.515L1997.95 346.075L1991.73 352.566L1990.36 343.684L1982.26 339.778L1990.29 335.729L1991.5 326.824L1997.83 333.204L2006.68 331.606L2002.56 339.598L2006.82 347.515Z" fill="#B79027"/>
<path d="M1166.77 749.416L1169.59 756.812L1177.29 758.676L1171.13 763.649L1171.73 771.543L1165.1 767.222L1157.78 770.236L1159.84 762.592L1154.71 756.561L1162.61 756.158L1166.77 749.416Z" fill="#C29B32"/>
<path d="M2059.65 1303.81L2054.66 1309.39L2056.43 1316.67L2049.58 1313.65L2043.21 1317.58L2043.96 1310.13L2038.25 1305.28L2045.57 1303.7L2048.42 1296.77L2052.18 1303.24L2059.65 1303.81Z" fill="#7B5A00"/>
<path d="M762.529 768L780.114 779.916L799.9 772.186L794.001 792.593L807.467 809.021L786.236 809.717L774.773 827.6L767.551 807.624L747 802.248L763.767 789.206L762.529 768Z" fill="#FFDE86"/>
<path d="M274.529 231.957L292.114 243.873L311.9 236.143L306.001 256.55L319.467 272.978L298.236 273.674L286.773 291.557L279.551 271.581L259 266.205L275.767 253.163L274.529 231.957Z" fill="#FFDE86"/>
<path d="M1622.21 875.554L1612.48 869.301L1601.82 873.765L1604.76 862.586L1597.22 853.824L1608.76 853.168L1614.77 843.289L1618.96 854.063L1630.21 856.719L1621.26 864.033L1622.21 875.554Z" fill="#E2BB52"/>
<path d="M891.543 1729.84L891.01 1702.24L867.969 1687.03L894.057 1677.99L901.402 1651.38L918.058 1673.4L945.639 1672.16L929.845 1694.81L939.546 1720.65L913.129 1712.63L891.543 1729.84Z" fill="#7B5A00"/>
<path d="M2587.02 1435.62L2593.81 1440.75L2601.9 1438.06L2599.12 1446.11L2604.18 1452.96L2595.66 1452.81L2590.7 1459.74L2588.22 1451.59L2580.1 1449.02L2587.08 1444.14L2587.02 1435.62Z" fill="#7B5A00"/>
<path d="M1190.21 558.607L1185.55 552.79L1178.12 553.331L1182.21 547.101L1179.4 540.198L1186.59 542.165L1192.28 537.357L1192.63 544.803L1198.97 548.735L1191.99 551.37L1190.21 558.607Z" fill="#7B5A00"/>
<path d="M1872.01 2020.4L1862.71 2035.48L1869.86 2051.68L1852.65 2047.5L1839.45 2059.31L1838.11 2041.65L1822.8 2032.74L1839.18 2026L1842.92 2008.69L1854.39 2022.19L1872.01 2020.4Z" fill="#B79027"/>
<path d="M73.8284 90.882L78.5573 103.698L91.7963 107.069L81.0683 115.527L81.9543 129.159L70.5943 121.57L57.9033 126.625L61.6103 113.477L52.8813 102.969L66.5313 102.431L73.8284 90.882Z" fill="#D4AD44"/>
<path d="M1358.85 690.129L1344.91 688.904L1336.01 699.687L1332.86 686.057L1319.85 680.917L1331.85 673.718L1332.72 659.758L1343.27 668.939L1356.81 665.451L1351.34 678.324L1358.85 690.129Z" fill="#E2BB52"/>
<path d="M1068.52 46.126L1075.21 60.827L1091.12 63.642L1079.21 74.556L1081.45 90.556L1067.39 82.601L1052.87 89.674L1056.09 73.843L1044.87 62.215L1060.92 60.386L1068.52 46.126Z" fill="#E2BB52"/>
<path d="M1383.62 187.747L1375.9 186.852L1370.79 192.706L1369.25 185.086L1362.1 182.031L1368.88 178.216L1369.57 170.475L1375.3 175.737L1382.87 174.008L1379.64 181.075L1383.62 187.747Z" fill="#FFFAED"/>
<path d="M2948.33 131.236L2948.91 120.611L2940.48 114.115L2950.76 111.378L2954.34 101.356L2960.12 110.289L2970.75 110.591L2964.04 118.849L2967.04 129.057L2957.11 125.228L2948.33 131.236Z" fill="#9F780F"/>
<path d="M2374.37 355.162L2386.62 353.819L2392.46 342.964L2397.52 354.203L2409.65 356.402L2400.53 364.691L2402.18 376.905L2391.48 370.79L2380.37 376.138L2382.88 364.07L2374.37 355.162Z" fill="#FFFAED"/>
<path d="M373.393 1214.56L379.557 1226.43L392.834 1228.09L383.444 1237.62L385.972 1250.76L374.005 1244.77L362.291 1251.24L364.285 1238.01L354.516 1228.86L367.716 1226.67L373.393 1214.56Z" fill="#D4AD44"/>
<path d="M2315.92 1398.3L2317.88 1405.32L2324.77 1407.68L2318.7 1411.72L2318.58 1419L2312.87 1414.48L2305.9 1416.61L2308.44 1409.78L2304.26 1403.82L2311.54 1404.12L2315.92 1398.3Z" fill="#E2BB52"/>
<path d="M1257.97 864.677L1276.06 867.583L1288.71 854.33L1291.53 872.43L1308.05 880.364L1291.7 888.645L1289.26 906.801L1276.34 893.818L1258.31 897.106L1266.67 880.801L1257.97 864.677Z" fill="#E9C259"/>
<path d="M2114.72 1936.3L2107.14 1939.61L2105.56 1947.73L2100.08 1941.54L2091.87 1942.55L2096.06 1935.42L2092.56 1927.92L2100.64 1929.7L2106.69 1924.06L2107.49 1932.29L2114.72 1936.3Z" fill="#C29B32"/>
<path d="M2215.82 1537.03L2202.06 1528.29L2187.06 1534.66L2191.13 1518.88L2180.42 1506.58L2196.69 1505.56L2205.08 1491.59L2211.07 1506.75L2226.96 1510.4L2214.39 1520.79L2215.82 1537.03Z" fill="#FFDE86"/>
<path d="M1938.24 1880.07L1946.22 1886.79L1956.27 1884.03L1952.34 1893.68L1958.07 1902.39L1947.68 1901.64L1941.17 1909.79L1938.66 1899.67L1928.91 1895.99L1937.76 1890.48L1938.24 1880.07Z" fill="#5A4200"/>
<path d="M2199.45 671.576L2201.83 678.727L2209.08 680.814L2203.01 685.295L2203.27 692.83L2197.13 688.448L2190.05 691.018L2192.32 683.829L2187.68 677.883L2195.22 677.821L2199.45 671.576Z" fill="#FFD86F"/>
<path d="M1543.92 1251.11L1549.07 1243.77L1545.94 1235.37L1554.51 1237.99L1561.53 1232.42L1561.68 1241.38L1569.15 1246.34L1560.68 1249.26L1558.27 1257.89L1552.88 1250.73L1543.92 1251.11Z" fill="#FFD86F"/>
<path d="M1684 1373.65L1689.15 1366.31L1686.02 1357.9L1694.59 1360.53L1701.61 1354.96L1701.76 1363.92L1709.23 1368.88L1700.76 1371.79L1698.35 1380.43L1692.96 1373.27L1684 1373.65Z" fill="#FFD86F"/>
<path d="M1296 1289.65L1301.15 1282.31L1298.02 1273.9L1306.59 1276.53L1313.61 1270.96L1313.76 1279.92L1321.23 1284.88L1312.76 1287.79L1310.35 1296.43L1304.96 1289.27L1296 1289.65Z" fill="#FFD86F"/>
<path d="M351.791 1999.22L373.114 2000.61L386.351 1983.84L391.614 2004.55L411.659 2011.95L393.589 2023.36L392.74 2044.71L376.309 2031.05L355.74 2036.84L363.655 2016.99L351.791 1999.22Z" fill="#D4AD44"/>
</svg>
