<svg width="54" height="54" viewBox="0 0 54 54" fill="none" xmlns="http://www.w3.org/2000/svg">
<path d="M49.1889 35.008C49.1891 34.4574 49.3355 33.9168 49.6129 33.4412C49.6953 33.3037 49.7852 33.1709 49.8823 33.0434C52.187 29.6148 53.4189 25.5778 53.4213 21.4466C53.4598 9.60597 43.4683 0 31.1143 0C20.341 0 11.3499 7.3328 9.24369 17.0673C8.92871 18.5102 8.76953 19.9828 8.76889 21.4597C8.77782 24.3296 9.35373 27.1695 10.4635 29.8161C11.5734 32.4628 13.1952 34.864 15.2359 36.882C17.2765 38.8999 19.6958 40.4947 22.3547 41.5748C25.0136 42.6549 27.8598 43.1989 30.7296 43.1757C32.7823 43.0835 34.8173 42.7525 36.7934 42.1892C38.2448 41.7913 39.683 41.2657 40.0554 41.1234C40.4372 40.9794 40.8418 40.9053 41.2497 40.9048C41.695 40.9031 42.1362 40.9905 42.5472 41.1619L49.8284 43.7428C49.988 43.8104 50.1569 43.8538 50.3294 43.8714C50.4645 43.8721 50.5984 43.846 50.7233 43.7946C50.8483 43.7432 50.9618 43.6676 51.0574 43.572C51.1529 43.4765 51.2286 43.363 51.2799 43.238C51.3313 43.1131 51.3574 42.9791 51.3567 42.844C51.3479 42.7264 51.3264 42.6101 51.2928 42.497L49.1889 35.008Z" fill="url(#paint0_linear_1_2118)"/>
<path d="M34.7387 44.2423C34.277 44.3709 33.686 44.5117 33.0457 44.6533C31.6114 44.981 30.1496 45.1745 28.6794 45.2312C25.8092 45.255 22.9625 44.7114 20.303 43.6315C17.6435 42.5517 15.2236 40.9569 13.1824 38.9388C11.1413 36.9207 9.51904 34.5192 8.40899 31.8721C7.29894 29.2251 6.72295 26.3848 6.71413 23.5144C6.7262 22.5955 6.79043 21.6781 6.90651 20.7665C6.98346 20.2139 7.07349 19.6622 7.202 19.1228C7.33051 18.5448 7.48442 17.9685 7.65141 17.4021L6.62409 18.314C4.55789 20.0974 2.89763 22.3026 1.75504 24.7813C0.612443 27.26 0.0140162 29.9547 2.45916e-05 32.6841C-0.00602073 36.4323 1.10265 40.0977 3.18509 43.2143C3.48058 43.6637 3.6468 44.0107 3.59601 44.2416C3.54522 44.4724 2.06774 52.2046 2.06774 52.2046C2.03185 52.3854 2.04512 52.5725 2.10616 52.7464C2.16721 52.9204 2.27379 53.0747 2.41479 53.1935C2.60045 53.3427 2.83146 53.4241 3.06966 53.4243C3.1978 53.4248 3.32464 53.3986 3.44211 53.3474L10.6464 50.5093C10.892 50.4121 11.1543 50.3643 11.4185 50.3686C11.6826 50.373 11.9432 50.4294 12.1854 50.5347C14.6664 51.5251 17.3095 52.0469 19.9807 52.0738C22.9116 52.0852 25.8097 51.4578 28.4734 50.2351C31.137 49.0125 33.5022 47.224 35.4043 44.9942C35.4043 44.9942 35.8152 44.4293 36.2908 43.7629C35.8175 43.9338 35.2781 44.1023 34.7387 44.2423Z" fill="url(#paint1_linear_1_2118)"/>
<defs>
<linearGradient id="paint0_linear_1_2118" x1="31.0952" y1="0" x2="31.0952" y2="43.8714" gradientUnits="userSpaceOnUse">
<stop stop-color="#E39419"/>
<stop offset="0.478125" stop-color="#FFF08D"/>
<stop offset="1" stop-color="#CC9331"/>
</linearGradient>
<linearGradient id="paint1_linear_1_2118" x1="18.1454" y1="17.4021" x2="18.1454" y2="53.4243" gradientUnits="userSpaceOnUse">
<stop stop-color="#E39419"/>
<stop offset="0.478125" stop-color="#FFF08D"/>
<stop offset="1" stop-color="#CC9331"/>
</linearGradient>
</defs>
</svg>
