<svg width="278" height="1530" viewBox="0 0 278 1530" fill="none" xmlns="http://www.w3.org/2000/svg">
<g filter="url(#filter0_d_1_3217)">
<path d="M219.827 821.142H107.704V772.207C107.708 763.869 109.935 755.688 114.148 748.544C118.333 741.421 123.325 734.825 129.022 728.894C134.762 722.847 140.931 716.844 147.363 711.054C153.456 705.57 159.271 699.773 164.788 693.686C169.769 688.247 174.1 682.223 177.691 675.742C180.782 670.072 182.363 663.675 182.276 657.187C182.284 652.725 181.561 648.292 180.137 644.074C178.841 640.173 176.793 636.576 174.113 633.496C171.376 630.417 168.069 627.921 164.383 626.153C160.322 624.26 155.896 623.326 151.432 623.42C146.051 623.151 140.692 624.299 135.871 626.755C132.233 628.809 129.18 631.793 127.013 635.414C124.68 639.47 123.134 643.947 122.46 648.6C121.584 654.184 121.146 659.83 121.151 665.485V673.354C121.155 675.649 121.318 677.941 121.638 680.212L122.782 688.37H2.69458L2.05766 681.941C1.68042 678.141 1.30693 674.486 0.937206 670.975C0.532164 667.06 0.33276 663.126 0.339783 659.189C0.0831799 640.142 4.40134 621.319 12.9169 604.368C21.3176 588.118 33.1433 573.971 47.5429 562.945C63.1449 551.152 80.7278 542.37 99.4246 537.031C118.179 531.581 137.546 528.63 157.042 528.251V0H171.047V542.452H164.045C143.533 542.268 123.099 545.061 103.356 550.746C86.2973 555.602 70.25 563.595 56.0035 574.333C43.2448 584.095 32.7648 596.622 25.3174 611.013C17.8619 625.917 14.0945 642.457 14.3442 659.189C14.3364 662.614 14.5096 666.036 14.8631 669.442C15.0241 670.958 15.184 672.503 15.3426 674.076H107.15C107.146 673.836 107.146 673.595 107.146 673.354V665.485C107.141 659.067 107.64 652.658 108.636 646.321C109.593 639.859 111.762 633.646 115.025 628.023C118.423 622.34 123.192 617.641 128.876 614.375C135.815 610.641 143.593 608.832 151.432 609.127C157.995 609.027 164.495 610.443 170.445 613.268C175.786 615.846 180.575 619.477 184.536 623.95C188.463 628.446 191.467 633.699 193.371 639.399C195.305 645.121 196.289 651.134 196.28 657.187C196.351 666.107 194.163 674.894 189.927 682.696C185.796 690.166 180.811 697.11 175.077 703.381C169.239 709.828 163.082 715.966 156.63 721.771C150.469 727.317 144.568 733.055 139.087 738.837C134.155 743.959 129.832 749.656 126.207 755.811C123.258 760.75 121.702 766.423 121.709 772.207V806.848H205.822V789.088C205.967 785.251 206.869 781.482 208.474 778.008C210.078 774.534 212.352 771.425 215.16 768.868C221.096 762.949 227.464 757.497 234.209 752.561C241.466 747.144 249.284 741.205 257.661 734.744C265.832 728.421 273.385 721.307 280.216 713.501C287.106 705.626 292.873 696.798 297.347 687.278C301.901 677.128 304.155 666.061 303.94 654.9C304.146 638.922 300.745 623.11 294.001 608.689C287.374 594.918 277.786 582.852 265.953 573.39C252.767 563.055 237.81 555.319 221.848 550.578L225.944 536.911C243.572 542.168 260.084 550.734 274.634 562.171C288.111 572.956 299.029 586.707 306.574 602.398C314.266 618.775 318.156 636.74 317.944 654.9C318.165 668.208 315.437 681.396 309.963 693.478C304.92 704.212 298.415 714.166 290.643 723.043C283.21 731.533 274.992 739.271 266.102 746.149C257.665 752.661 249.787 758.645 242.469 764.101C236.306 768.601 230.487 773.574 225.064 778.976C222.084 781.514 220.203 785.146 219.827 789.088V821.142Z" fill="url(#paint0_linear_1_3217)"/>
<path d="M171.046 1518H157.044V952.524H108.015V843.73H221.202V945.374H207.2V858.021H122.018V938.229H171.046V1518Z" fill="url(#paint1_linear_1_3217)"/>
<path d="M251.713 419.445V397.671C251.709 394.567 252.543 391.522 254.124 388.871C256.048 385.608 258.341 382.585 260.955 379.867C263.849 376.816 266.964 373.785 270.216 370.858C273.608 367.804 276.847 364.577 279.918 361.188C282.922 357.902 285.534 354.264 287.699 350.35C289.905 346.286 291.044 341.71 291.007 337.064C291.011 333.91 290.499 330.777 289.491 327.795C288.502 324.831 286.94 322.099 284.899 319.761C282.837 317.435 280.346 315.548 277.569 314.206C274.475 312.739 271.097 312.004 267.686 312.056C263.609 311.902 259.564 312.841 255.953 314.78C253.004 316.476 250.529 318.915 248.767 321.864C247.069 324.792 245.94 328.026 245.442 331.389C244.92 334.712 244.658 338.071 244.66 341.436C244.66 341.436 244.664 346.046 244.669 346.28H195.695C195.601 345.355 195.507 344.447 195.412 343.556C195.225 341.75 195.134 339.935 195.137 338.119C195.006 329.25 197.003 320.483 200.954 312.583C204.901 304.959 210.454 298.322 217.215 293.15C224.752 287.469 233.241 283.239 242.267 280.67C252.698 277.665 263.495 276.19 274.333 276.287C284.669 276.173 294.964 277.621 304.884 280.584C313.332 283.093 321.247 287.187 328.226 292.656C334.497 297.674 339.578 304.07 343.091 311.37C346.666 319.011 348.469 327.39 348.359 335.857C348.474 341.787 347.275 347.666 344.853 353.057C342.485 358.101 339.431 362.778 335.78 366.95C332.167 371.077 328.172 374.84 323.851 378.186C319.434 381.591 315.312 384.721 311.486 387.576C307.946 390.167 304.603 393.029 301.489 396.137C300.038 397.455 298.863 399.058 298.033 400.85C297.203 402.642 296.735 404.586 296.658 406.567V419.445H251.713Z" fill="url(#paint2_linear_1_3217)"/>
<path d="M297.379 442.573H251.872V485.472H297.379V442.573Z" fill="url(#paint3_linear_1_3217)"/>
<path d="M82.0001 1281.45V1269.52C81.9974 1267.82 82.4544 1266.15 83.3209 1264.7C84.3752 1262.91 85.6315 1261.25 87.064 1259.77C88.6495 1258.09 90.3563 1256.43 92.138 1254.83C93.9966 1253.16 95.771 1251.39 97.454 1249.53C99.0999 1247.73 100.531 1245.74 101.717 1243.59C102.926 1241.37 103.55 1238.86 103.529 1236.31C103.532 1234.59 103.251 1232.87 102.699 1231.23C102.157 1229.61 101.301 1228.11 100.183 1226.83C99.0534 1225.56 97.6886 1224.52 96.1668 1223.79C94.4719 1222.99 92.6209 1222.58 90.7521 1222.61C88.5181 1222.53 86.3014 1223.04 84.3232 1224.1C82.7072 1225.03 81.3515 1226.37 80.3856 1227.99C79.4553 1229.59 78.8369 1231.36 78.5641 1233.2C78.278 1235.02 78.1348 1236.87 78.136 1238.71C78.136 1238.71 78.1376 1241.24 78.1401 1241.36H51.3069C51.2556 1240.86 51.2042 1240.36 51.1524 1239.87C51.0499 1238.88 50.9995 1237.89 51.0015 1236.89C50.9294 1232.03 52.0237 1227.23 54.1888 1222.9C56.3511 1218.72 59.3937 1215.09 63.0979 1212.25C67.2275 1209.14 71.8792 1206.82 76.8244 1205.41C82.5396 1203.77 88.4553 1202.96 94.3936 1203.01C100.056 1202.95 105.697 1203.74 111.133 1205.37C115.761 1206.74 120.098 1208.99 123.922 1211.98C127.358 1214.73 130.142 1218.24 132.067 1222.24C134.026 1226.42 135.013 1231.01 134.953 1235.65C135.016 1238.9 134.359 1242.12 133.033 1245.08C131.735 1247.84 130.061 1250.4 128.061 1252.69C126.081 1254.95 123.893 1257.01 121.525 1258.84C119.105 1260.71 116.847 1262.43 114.75 1263.99C112.81 1265.41 110.979 1266.98 109.272 1268.68C108.478 1269.4 107.834 1270.28 107.379 1271.26C106.924 1272.24 106.668 1273.31 106.626 1274.39V1281.45H82.0001Z" fill="url(#paint4_linear_1_3217)"/>
<path d="M107.023 1294.12H82.0895V1317.63H107.023V1294.12Z" fill="url(#paint5_linear_1_3217)"/>
<path d="M274.506 1172V1143.99C274.501 1139.99 275.574 1136.08 277.608 1132.66C280.083 1128.47 283.033 1124.58 286.397 1121.08C290.119 1117.16 294.127 1113.26 298.31 1109.49C302.675 1105.56 306.841 1101.41 310.792 1097.05C314.657 1092.82 318.018 1088.14 320.803 1083.11C323.641 1077.88 325.107 1071.99 325.058 1066.01C325.064 1061.96 324.405 1057.92 323.108 1054.09C321.836 1050.28 319.827 1046.76 317.201 1043.75C314.548 1040.76 311.344 1038.33 307.77 1036.61C303.79 1034.72 299.444 1033.77 295.056 1033.84C289.811 1033.64 284.606 1034.85 279.961 1037.34C276.166 1039.53 272.983 1042.66 270.716 1046.46C268.531 1050.22 267.079 1054.39 266.439 1058.71C265.767 1062.99 265.43 1067.31 265.433 1071.64C265.433 1071.64 265.438 1077.57 265.444 1077.87H202.438C202.317 1076.68 202.196 1075.51 202.074 1074.37C201.834 1072.04 201.716 1069.71 201.721 1067.37C201.551 1055.96 204.121 1044.68 209.204 1034.52C214.281 1024.71 221.426 1016.17 230.123 1009.52C239.819 1002.21 250.742 996.767 262.353 993.461C275.773 989.596 289.664 987.698 303.607 987.823C316.904 987.676 330.149 989.539 342.911 993.351C353.78 996.579 363.963 1001.85 372.941 1008.88C381.009 1015.34 387.547 1023.57 392.066 1032.96C396.665 1042.79 398.984 1053.57 398.844 1064.46C398.991 1072.09 397.449 1079.65 394.333 1086.59C391.286 1093.08 387.357 1099.09 382.661 1104.46C378.012 1109.77 372.872 1114.61 367.313 1118.92C361.63 1123.3 356.328 1127.33 351.406 1131C346.851 1134.33 342.551 1138.01 338.543 1142.01C336.677 1143.71 335.165 1145.77 334.097 1148.08C333.029 1150.38 332.428 1152.88 332.328 1155.43V1172H274.506Z" fill="url(#paint6_linear_1_3217)"/>
<path d="M333.259 1201.75H274.714V1256.94H333.259V1201.75Z" fill="url(#paint7_linear_1_3217)"/>
<path d="M55.1771 247.88V233.574C55.174 231.534 55.7221 229.534 56.7609 227.792C58.0255 225.648 59.5321 223.662 61.2497 221.875C63.1511 219.871 65.1978 217.88 67.3345 215.956C69.5635 213.95 71.6911 211.829 73.7091 209.603C75.6831 207.444 77.3992 205.053 78.8214 202.482C80.2709 199.811 81.0197 196.804 80.995 193.752C80.9979 191.679 80.6612 189.621 79.9989 187.661C79.349 185.714 78.3233 183.919 76.9822 182.382C75.6275 180.855 73.9907 179.615 72.1656 178.733C70.133 177.769 67.9133 177.286 65.6721 177.32C62.9932 177.219 60.3351 177.836 57.9628 179.11C56.0249 180.224 54.3993 181.827 53.2413 183.765C52.1255 185.688 51.3838 187.813 51.0568 190.023C50.7135 192.206 50.5417 194.413 50.543 196.624C50.543 196.624 50.5455 199.654 50.5488 199.807H18.3702C18.3084 199.2 18.2467 198.603 18.1849 198.017C18.0619 196.83 18.0014 195.638 18.0039 194.445C17.9173 188.618 19.2295 182.857 21.826 177.667C24.4189 172.657 28.0677 168.296 32.5096 164.898C37.462 161.165 43.0404 158.386 48.9705 156.698C55.8244 154.724 62.9184 153.754 70.0396 153.819C76.8305 153.743 83.595 154.695 90.1129 156.642C95.6636 158.29 100.865 160.98 105.45 164.574C109.57 167.87 112.909 172.073 115.217 176.869C117.566 181.89 118.75 187.396 118.679 192.959C118.754 196.855 117.966 200.718 116.375 204.26C114.819 207.574 112.812 210.647 110.414 213.388C108.039 216.101 105.415 218.573 102.576 220.771C99.6732 223.008 96.9649 225.065 94.4509 226.941C92.1245 228.643 89.9286 230.523 87.8821 232.566C86.929 233.432 86.1567 234.485 85.6113 235.662C85.0659 236.84 84.7587 238.117 84.7078 239.419V247.88H55.1771Z" fill="url(#paint8_linear_1_3217)"/>
<path d="M85.1828 263.077H55.2828V291.263H85.1828V263.077Z" fill="url(#paint9_linear_1_3217)"/>
</g>
<defs>
<filter id="filter0_d_1_3217" x="0.328979" y="0" width="415.524" height="1530" filterUnits="userSpaceOnUse" color-interpolation-filters="sRGB">
<feFlood flood-opacity="0" result="BackgroundImageFix"/>
<feColorMatrix in="SourceAlpha" type="matrix" values="0 0 0 0 0 0 0 0 0 0 0 0 0 0 0 0 0 0 127 0" result="hardAlpha"/>
<feOffset dx="13" dy="8"/>
<feGaussianBlur stdDeviation="2"/>
<feComposite in2="hardAlpha" operator="out"/>
<feColorMatrix type="matrix" values="0 0 0 0 0 0 0 0 0 0 0 0 0 0 0 0 0 0 0.25 0"/>
<feBlend mode="normal" in2="BackgroundImageFix" result="effect1_dropShadow_1_3217"/>
<feBlend mode="normal" in="SourceGraphic" in2="effect1_dropShadow_1_3217" result="shape"/>
</filter>
<linearGradient id="paint0_linear_1_3217" x1="159.143" y1="0" x2="159.143" y2="821.142" gradientUnits="userSpaceOnUse">
<stop stop-color="#A97124"/>
<stop offset="0.322917" stop-color="#DDA336"/>
<stop offset="0.713542" stop-color="#EFD56F"/>
<stop offset="0.958333" stop-color="#F4BA3E"/>
</linearGradient>
<linearGradient id="paint1_linear_1_3217" x1="164.609" y1="843.73" x2="164.609" y2="1518" gradientUnits="userSpaceOnUse">
<stop stop-color="#A97124"/>
<stop offset="0.322917" stop-color="#DDA336"/>
<stop offset="0.713542" stop-color="#EFD56F"/>
<stop offset="0.958333" stop-color="#F4BA3E"/>
</linearGradient>
<linearGradient id="paint2_linear_1_3217" x1="271.749" y1="276.281" x2="271.749" y2="419.445" gradientUnits="userSpaceOnUse">
<stop stop-color="#A97124"/>
<stop offset="0.322917" stop-color="#DDA336"/>
<stop offset="0.713542" stop-color="#EFD56F"/>
<stop offset="0.958333" stop-color="#F4BA3E"/>
</linearGradient>
<linearGradient id="paint3_linear_1_3217" x1="274.626" y1="442.573" x2="274.626" y2="485.472" gradientUnits="userSpaceOnUse">
<stop stop-color="#A97124"/>
<stop offset="0.322917" stop-color="#DDA336"/>
<stop offset="0.713542" stop-color="#EFD56F"/>
<stop offset="0.958333" stop-color="#F4BA3E"/>
</linearGradient>
<linearGradient id="paint4_linear_1_3217" x1="92.9778" y1="1203.01" x2="92.9778" y2="1281.45" gradientUnits="userSpaceOnUse">
<stop stop-color="#A97124"/>
<stop offset="0.322917" stop-color="#DDA336"/>
<stop offset="0.713542" stop-color="#EFD56F"/>
<stop offset="0.958333" stop-color="#F4BA3E"/>
</linearGradient>
<linearGradient id="paint5_linear_1_3217" x1="94.5562" y1="1294.12" x2="94.5562" y2="1317.63" gradientUnits="userSpaceOnUse">
<stop stop-color="#A97124"/>
<stop offset="0.322917" stop-color="#DDA336"/>
<stop offset="0.713542" stop-color="#EFD56F"/>
<stop offset="0.958333" stop-color="#F4BA3E"/>
</linearGradient>
<linearGradient id="paint6_linear_1_3217" x1="300.283" y1="987.815" x2="300.283" y2="1172" gradientUnits="userSpaceOnUse">
<stop stop-color="#A97124"/>
<stop offset="0.322917" stop-color="#DDA336"/>
<stop offset="0.713542" stop-color="#EFD56F"/>
<stop offset="0.958333" stop-color="#F4BA3E"/>
</linearGradient>
<linearGradient id="paint7_linear_1_3217" x1="303.986" y1="1201.75" x2="303.986" y2="1256.94" gradientUnits="userSpaceOnUse">
<stop stop-color="#A97124"/>
<stop offset="0.322917" stop-color="#DDA336"/>
<stop offset="0.713542" stop-color="#EFD56F"/>
<stop offset="0.958333" stop-color="#F4BA3E"/>
</linearGradient>
<linearGradient id="paint8_linear_1_3217" x1="68.3417" y1="153.814" x2="68.3417" y2="247.88" gradientUnits="userSpaceOnUse">
<stop stop-color="#A97124"/>
<stop offset="0.322917" stop-color="#DDA336"/>
<stop offset="0.713542" stop-color="#EFD56F"/>
<stop offset="0.958333" stop-color="#F4BA3E"/>
</linearGradient>
<linearGradient id="paint9_linear_1_3217" x1="70.2328" y1="263.077" x2="70.2328" y2="291.263" gradientUnits="userSpaceOnUse">
<stop stop-color="#A97124"/>
<stop offset="0.322917" stop-color="#DDA336"/>
<stop offset="0.713542" stop-color="#EFD56F"/>
<stop offset="0.958333" stop-color="#F4BA3E"/>
</linearGradient>
</defs>
</svg>
