<svg width="51" height="40" viewBox="0 0 51 40" fill="none" xmlns="http://www.w3.org/2000/svg">
<path d="M24.5418 10.1717L8.40409 23.463V37.8081C8.40409 38.1796 8.55164 38.5358 8.81428 38.7984C9.07692 39.0611 9.43313 39.2086 9.80456 39.2086L19.6131 39.1832C19.9833 39.1814 20.3377 39.033 20.5988 38.7706C20.8599 38.5081 21.0065 38.153 21.0065 37.7828V29.4054C21.0065 29.0339 21.1541 28.6777 21.4167 28.4151C21.6793 28.1524 22.0355 28.0049 22.407 28.0049H28.0088C28.3803 28.0049 28.7365 28.1524 28.9991 28.4151C29.2617 28.6777 29.4093 29.0339 29.4093 29.4054V37.7766C29.4087 37.9609 29.4445 38.1435 29.5146 38.3139C29.5848 38.4843 29.6878 38.6392 29.8179 38.7697C29.948 38.9003 30.1026 39.0038 30.2728 39.0745C30.443 39.1451 30.6255 39.1815 30.8098 39.1815L40.6148 39.2086C40.9862 39.2086 41.3424 39.0611 41.605 38.7984C41.8677 38.5358 42.0152 38.1796 42.0152 37.8081V23.4534L25.881 10.1717C25.6913 10.0189 25.455 9.93548 25.2114 9.93548C24.9678 9.93548 24.7315 10.0189 24.5418 10.1717ZM50.0329 19.2056L42.7154 13.174V1.05035C42.7154 0.771778 42.6048 0.504618 42.4078 0.30764C42.2108 0.110662 41.9437 0 41.6651 0H36.7635C36.4849 0 36.2177 0.110662 36.0208 0.30764C35.8238 0.504618 35.7131 0.771778 35.7131 1.05035V7.40583L27.8767 0.958442C27.1246 0.339594 26.181 0.00123709 25.207 0.00123709C24.2331 0.00123709 23.2894 0.339594 22.5374 0.958442L0.381188 19.2056C0.274829 19.2935 0.186834 19.4015 0.122231 19.5234C0.0576272 19.6454 0.0176815 19.7788 0.00467593 19.9162C-0.00832965 20.0536 0.00585977 20.1922 0.0464334 20.3241C0.0870071 20.4559 0.15317 20.5785 0.241141 20.6848L2.47313 23.3982C2.56086 23.5049 2.66877 23.5933 2.79068 23.6582C2.91259 23.7231 3.04611 23.7633 3.18359 23.7766C3.32108 23.7898 3.45982 23.7758 3.59189 23.7354C3.72396 23.695 3.84675 23.6289 3.95324 23.5409L24.5418 6.58306C24.7315 6.43016 24.9678 6.34679 25.2114 6.34679C25.455 6.34679 25.6913 6.43016 25.881 6.58306L46.4704 23.5409C46.5768 23.6289 46.6993 23.6951 46.8312 23.7356C46.9631 23.7762 47.1017 23.7904 47.2391 23.7774C47.3764 23.7644 47.5099 23.7244 47.6318 23.6598C47.7538 23.5952 47.8618 23.5072 47.9497 23.4009L50.1817 20.6875C50.2695 20.5806 50.3354 20.4573 50.3755 20.3249C50.4156 20.1924 50.4291 20.0533 50.4153 19.9156C50.4015 19.7779 50.3606 19.6443 50.2949 19.5224C50.2293 19.4006 50.1403 19.2929 50.0329 19.2056Z" fill="url(#paint0_linear_1_3985)"/>
<defs>
<linearGradient id="paint0_linear_1_3985" x1="25.2103" y1="0" x2="25.2103" y2="39.2086" gradientUnits="userSpaceOnUse">
<stop stop-color="#E8A32C"/>
<stop offset="0.566666" stop-color="#FEEC88"/>
<stop offset="1" stop-color="#E69C23"/>
</linearGradient>
</defs>
</svg>
