<svg width="211" height="212" viewBox="0 0 211 212" fill="none" xmlns="http://www.w3.org/2000/svg">
<g filter="url(#filter0_d_1_2927)">
<path d="M188.23 12H12V188.23H188.23V12Z" stroke="url(#paint0_linear_1_2927)" stroke-width="23" stroke-miterlimit="10"/>
<path d="M92.9028 140.316C92.7098 139.246 92.6453 138.157 92.7107 137.071C92.7349 136.684 92.751 136.236 92.4572 135.984C92.0197 135.609 91.1656 135.916 90.8975 135.405C90.6731 134.968 90.3082 134.835 89.8255 134.743C89.5276 134.7 89.2271 134.678 88.9262 134.675C87.6413 134.621 86.3758 134.343 85.1869 133.852C84.8801 133.724 84.5588 133.583 84.2327 133.632C83.9065 133.68 83.603 134.025 83.7273 134.329C83.3059 134.205 82.8005 133.727 82.4663 133.441C81.5923 132.696 80.7199 131.95 79.8491 131.204C79.6086 130.998 79.3648 130.791 79.121 130.592C78.0877 129.751 77.1302 128.805 76.1066 127.933C75.3574 127.258 74.5557 126.645 73.709 126.098C72.4383 125.327 71.0014 124.861 69.5434 124.568C69.382 124.668 69.2205 124.293 69.2205 124.105C69.2205 123.918 69.3077 123.737 69.3029 123.549C69.2849 123.372 69.2239 123.202 69.1253 123.054L68.5117 121.957C68.4796 121.888 68.4315 121.827 68.3713 121.779C68.3222 121.753 68.2683 121.736 68.2128 121.731C68.1573 121.726 68.1013 121.733 68.0484 121.75C67.8029 121.795 67.564 121.891 67.3089 121.865C67.0538 121.839 66.8019 121.627 66.8455 121.38C66.8598 121.336 66.8664 121.29 66.8649 121.244C66.8439 121.101 66.6437 121.097 66.5048 121.129C66.4648 120.968 66.4613 120.801 66.4945 120.639C66.5278 120.477 66.597 120.324 66.697 120.192C66.8261 120.03 67.007 119.885 67.0376 119.678C67.1377 118.989 66.7147 118.57 66.3159 118.154C65.6701 117.483 66.0915 117.022 66.4322 116.213C66.6227 115.76 66.8165 115.279 66.7551 114.791C66.634 113.899 65.6701 113.163 65.8962 112.29C66.0598 112.575 66.2542 112.841 66.4758 113.084C66.2045 112.788 66.7228 111.255 66.8278 110.9C67.0393 110.192 67.4138 109.53 67.7432 108.857C68.7846 106.735 69.855 104.46 69.5903 102.107C69.5047 101.354 69.2883 100.563 69.5709 99.8596C69.6555 99.6921 69.7231 99.5165 69.7727 99.3355C69.8179 99.0718 69.721 98.8081 69.6629 98.5493C69.5708 98.1365 69.5758 97.7078 69.6774 97.2972C69.7162 97.3554 69.7549 97.4169 69.7969 97.4768C70.2813 97.1209 70.7818 97.4946 71.3469 97.6968C73.0164 98.2898 74.8019 98.4805 76.5587 98.2533C76.9397 98.2047 77.4192 98.0252 77.4176 97.6385C77.4176 97.3603 77.1415 97.129 77.1771 96.854C77.7706 97.041 78.4115 97.0071 78.9821 96.7585C79.0728 96.7249 79.1538 96.6693 79.2178 96.5968C79.3325 96.435 79.2889 96.2263 79.2372 96.0387C78.7225 94.1272 77.9895 92.2817 77.0527 90.5385C76.7298 89.9384 76.3778 89.3415 76.1889 88.6879C76 88.0344 75.9823 87.2967 76.3052 86.6933C76.5732 86.1983 77.0769 85.7486 76.9785 85.1921C77.1577 85.5157 77.7857 85.3167 77.7308 84.9462C77.7115 84.7974 77.6146 84.6728 77.5823 84.5272C77.5193 84.2247 77.7534 83.953 77.8875 83.6763C78.0215 83.3997 77.965 82.9468 77.6582 82.9338C78.1619 82.0344 78.6662 81.1361 79.171 80.2388C79.4939 79.6564 79.2937 79.2099 79.3809 78.5467C79.4091 78.3719 79.4172 78.1944 79.4051 78.0177C79.3803 77.8588 79.3381 77.7031 79.2792 77.5534C78.2954 74.7775 77.3132 72.0021 76.3326 69.2272C75.6481 67.2957 75.2638 65.6376 74.4904 63.7384C74.0739 62.7177 73.5685 61.6355 72.6111 61.0968C72.4361 60.9865 72.2362 60.9219 72.0299 60.9091C71.8684 60.9091 71.6924 60.9528 71.5213 60.9528C71.3348 60.9394 71.1506 60.9041 70.9723 60.8476C70.2958 60.6859 69.5612 60.5241 68.967 60.1504C69.5418 59.9159 70.4201 60.2378 70.8577 60.6357C70.5122 60.3268 70.4799 59.8042 69.9794 59.5729C69.5903 59.395 68.988 59.3448 68.565 59.2801C69.1204 59.3642 69.256 58.9129 69.8922 59.2591C69.6258 59.1151 69.5564 58.7738 69.2028 58.6719C68.9525 58.5958 68.5941 58.7058 68.3115 58.6427C67.9377 58.566 67.5863 58.4044 67.2843 58.1706C66.9824 57.9367 66.7378 57.6368 66.5694 57.2936C66.3918 56.8957 66.3369 56.4427 66.0964 56.0803C65.8558 55.718 65.4166 55.4333 65.3924 54.9852C65.344 54.0728 66.2094 53.5293 65.8445 52.4762C65.828 52.4163 65.7982 52.361 65.7573 52.3144C65.6039 52.1639 65.3537 52.2853 65.1728 52.4001C64.6739 52.7202 64.1296 52.9628 63.5583 53.12C62.9802 52.3652 62.4543 51.5718 61.9841 50.7452C61.8677 50.5244 61.713 50.3261 61.5272 50.1596C60.6634 49.4576 57.7782 51.271 56.9144 51.7369C55.4101 52.5462 53.995 53.5119 52.6923 54.618C52.4776 54.8008 52.2516 55.0094 52.1983 55.2861C52.1765 55.5377 52.2287 55.7902 52.3484 56.0124L53.2041 58.0571C53.254 58.1267 53.2897 58.2054 53.309 58.2888C53.3283 58.3722 53.3309 58.4586 53.3166 58.543C53.3023 58.6274 53.2715 58.7081 53.2259 58.7805C53.1802 58.8529 53.1207 58.9155 53.0508 58.9647C52.7015 59.3222 52.3205 59.647 51.9125 59.9353C51.2667 60.3623 50.5934 60.4675 49.8878 60.7166C49.2775 60.9334 48.6995 61.4721 47.9972 61.32C47.6178 61.2407 47.3029 60.9593 46.9235 60.8865C46.4133 60.7894 45.8951 61.0919 45.5705 61.5028C45.246 61.9137 45.0862 62.4168 44.8795 62.8972C44.7503 63.2208 44.5824 63.6834 44.3112 63.9018C44.0819 64.0846 43.759 64.0248 43.5362 64.2432C43.4585 64.3295 43.3992 64.4308 43.3618 64.5408C43.2543 64.8599 43.2522 65.2053 43.3557 65.5257C43.4592 65.8462 43.6629 66.1247 43.9366 66.3203C44.0109 66.372 44.0981 66.482 44.0254 66.5354C43.7348 66.757 44.0254 67.9104 44.0254 68.2566C44.0367 69.0234 43.9382 69.7611 43.9237 70.5214C43.8995 71.9773 44.0028 73.4332 44.0012 74.8891C44.0012 75.0735 43.977 75.2984 43.8107 75.3841C44.0211 75.6173 44.1823 75.8907 44.2847 76.1879C44.387 76.485 44.4285 76.7998 44.4064 77.1134C44.3903 77.2962 44.358 77.4984 44.4629 77.6505C44.5308 77.7508 44.6486 77.8042 44.731 77.8931C45.0442 78.2393 44.689 78.8104 44.8359 79.2568C44.936 79.5642 45.2492 79.7421 45.4607 79.9832C45.6722 80.2242 45.7627 80.4976 45.9451 80.7419C46.3956 81.3712 47.2045 81.6041 47.9536 81.8015C48.3621 81.9066 48.4767 82.0409 48.8771 82.1719C49.2775 82.3029 49.7797 82.3337 50.0719 82.0328C50.1526 81.9503 50.2204 81.8387 50.3335 81.8095C50.4465 81.7804 50.574 81.8532 50.6983 81.8645C50.9631 81.8888 51.1569 81.6332 51.3248 81.4213C51.7106 80.9355 52.219 80.5619 52.7973 80.3391C52.9712 80.2986 53.1265 80.2006 53.238 80.0608C53.2996 79.9171 53.3165 79.7581 53.2865 79.6046C53.1521 78.0839 53.5179 76.5608 54.3279 75.2676C53.9759 77.0083 53.6207 78.7667 53.6401 80.5445C53.6562 82.2107 54.0017 83.8931 53.6853 85.5286C53.4576 86.7111 52.8925 87.8144 52.7295 89.005C52.639 89.6828 52.6778 90.3946 52.4227 91.0319C52.1256 91.7777 51.4717 92.3115 50.9438 92.9182C49.8297 94.201 49.4374 95.3447 49.5294 97.019C49.545 97.111 49.5291 97.2057 49.4842 97.2875C49.4337 97.3432 49.3698 97.385 49.2985 97.4088C48.5607 97.7631 48.4541 98.4425 48.2571 99.143C48.0311 99.9518 47.6565 100.74 47.3449 101.523C46.5915 103.409 45.7901 105.277 44.9408 107.126C44.8585 107.307 44.7794 107.487 44.7003 107.673C44.6538 107.792 44.5999 107.908 44.5388 108.021C44.4727 108.132 44.4011 108.24 44.3241 108.344C43.8639 109.025 43.7009 109.857 43.5588 110.666C43.21 112.615 42.9017 114.618 41.9781 116.373C41.5293 117.225 40.9448 118.004 40.4798 118.85C39.9551 119.807 39.8647 120.629 39.7694 121.677C39.679 122.7 39.2318 123.78 38.7846 124.693C38.263 125.751 37.5656 126.763 37.4235 127.928C37.2846 129.06 37.6899 130.211 37.4945 131.325C37.2313 132.844 35.9155 134.075 35.8638 135.618C35.8348 136.484 36.2126 137.378 35.9171 138.191C35.8009 138.514 35.5942 138.786 35.4505 139.098C35.1373 139.821 35.1825 140.651 35.1631 141.421C35.1486 141.95 34.6513 142.613 35.4683 142.845C35.6609 142.886 35.8601 142.886 36.0527 142.845C36.86 142.725 37.6511 142.534 38.46 142.545C39.2689 142.557 40.1214 142.803 40.6558 143.412C39.5664 143.081 38.4201 142.979 37.2895 143.115C36.9288 143.138 36.5777 143.241 36.261 143.416C35.5264 143.87 35.3246 145.339 35.147 146.114C34.9694 146.889 34.9855 147.817 35.5425 148.393C36.0802 148.947 36.9375 149.013 37.7093 148.998C38.7293 148.978 39.7465 148.884 40.7527 148.715C41.0643 148.663 41.3985 148.591 41.6068 148.35C42.0524 147.835 41.6068 146.979 41.9103 146.373C42.017 146.205 42.1375 146.045 42.2704 145.897C42.7402 145.271 42.7192 144.415 42.6772 143.632C42.8387 143.979 43.3489 144.038 43.6847 143.849C44.0206 143.66 44.2175 143.298 44.3709 142.947C44.5243 142.595 44.6599 142.219 44.9231 141.937C44.9815 141.865 45.057 141.81 45.1427 141.775C45.2634 141.754 45.3868 141.754 45.5076 141.775C46.0371 141.806 46.4763 141.394 46.8137 140.966C47.1512 140.539 47.4224 140.077 47.4596 139.551C47.4967 139.025 47.2384 138.446 46.7411 138.265C47.0947 137.928 47.1851 137.385 47.0914 136.908C46.9729 136.434 46.7794 135.982 46.5183 135.57C46.4054 135.402 46.3335 135.21 46.3084 135.009C46.2842 134.509 46.7847 134.177 47.106 133.795C47.5274 133.292 47.663 132.605 47.642 131.951C47.621 131.298 47.4515 130.657 47.332 130.01C47.163 129.103 47.0867 128.182 47.1044 127.26C47.1044 126.838 47.1431 126.401 47.3498 126.034C47.7195 125.387 47.9294 125 48.0214 124.232C48.1425 123.235 48.8142 122.391 49.5569 121.718C49.8093 121.524 50.0201 121.281 50.1768 121.004C50.3189 120.692 50.2979 120.336 50.3383 119.997C50.4334 119.326 50.7862 118.718 51.3216 118.304C51.6687 118.039 52.0933 117.855 52.3355 117.496C52.7278 116.92 52.6697 116.252 52.8102 115.606C52.8958 115.213 53.3268 114.433 53.7499 114.335C53.9226 114.296 54.1228 114.276 54.2342 114.136C54.3128 113.991 54.3319 113.822 54.2875 113.663C54.0133 111.62 54.3741 109.542 55.3208 107.712C55.0948 108.144 55.1513 109.006 55.098 109.491C55.027 110.138 54.9656 110.785 54.9366 111.433C54.8533 112.599 54.9244 113.771 55.1481 114.919C55.5323 116.68 55.8811 118.217 56.1701 119.997C56.2896 120.734 56.3057 121.527 56.7174 122.151C56.8822 122.356 57.0317 122.572 57.1646 122.798C57.4876 123.468 57.1211 124.346 57.5344 124.963C57.9735 125.61 58.1673 125.823 58.248 126.637C58.3045 127.211 58.353 127.973 59.0553 128.116C59.2016 128.129 59.3465 128.155 59.488 128.195C59.9917 128.405 59.8706 129.144 60.0482 129.664C60.2517 130.262 60.8975 130.573 61.4804 130.819C61.5966 130.877 61.7236 130.91 61.8533 130.916C62.152 130.916 62.3716 130.617 62.6606 130.536C63.1046 130.414 63.5163 130.811 63.7908 131.183C64.0653 131.555 64.3962 131.992 64.8596 131.98C65.0727 131.98 65.2729 131.87 65.4844 131.87C65.88 131.87 66.2917 132.168 66.5807 131.77C66.81 131.456 66.6598 130.869 66.9166 130.476C67.1507 130.122 67.4703 129.829 67.74 129.505C68.4468 128.65 68.8065 127.56 68.7475 126.451C68.8708 127.009 68.881 127.585 68.7776 128.147C68.6741 128.709 68.4591 129.244 68.1452 129.72C67.7351 130.34 67.1297 130.956 67.233 131.694L70.0633 133.035C71.2726 133.609 72.5449 134.059 73.7445 134.637C76.2245 135.829 78.5462 137.039 80.6064 138.889C80.4578 139.261 80.3335 139.711 80.5499 140.052C80.6364 140.173 80.7416 140.278 80.8615 140.365C81.4449 140.839 82.0288 141.313 82.6133 141.787C83.0266 142.12 83.6563 142.452 84.0308 142.076C84.1503 141.958 84.2359 141.769 84.4038 141.753C84.8317 141.714 84.8123 142.62 84.8752 142.848C84.9382 143.076 85.1772 143.264 85.3596 143.446C85.7098 143.787 85.9442 144.229 86.0297 144.71C86.0355 144.795 86.0639 144.878 86.112 144.949C86.2735 145.142 86.5721 144.949 86.7788 144.787C86.9664 144.657 87.182 144.573 87.4081 144.542C87.6342 144.511 87.8644 144.533 88.0801 144.608C87.6074 144.719 87.1754 144.961 86.8337 145.307C87.021 145.221 87.2261 145.182 87.4315 145.193C87.637 145.204 87.8368 145.265 88.0139 145.37C88.3666 145.584 88.6546 145.889 88.8471 146.255C88.0091 145.897 87.0258 145.543 86.2234 145.975C86.0393 146.075 85.873 146.214 85.6809 146.298C85.3402 146.446 84.9366 146.42 84.6137 146.604C83.9469 146.987 84.005 148.049 84.7219 148.384C85.0528 148.545 85.4468 148.406 85.8068 148.401C86.432 148.401 87.0551 148.474 87.6636 148.618C87.977 148.714 88.3059 148.749 88.6323 148.72C89.0408 148.647 89.3718 148.356 89.6802 148.073C90.7312 147.122 91.8695 145.978 91.8291 144.559C91.8098 143.899 91.545 143.168 91.9163 142.618C92.152 142.275 92.588 142.112 92.8172 141.764C93.0998 141.368 92.9932 140.814 92.9028 140.316ZM70.7463 73.1064C71.0837 74.5203 71.4744 75.9196 71.7844 77.3383C71.9452 77.9991 72.0457 78.6732 72.0847 79.3523C72.1118 80.2637 71.9502 81.1709 71.6101 82.0166C71.7925 82.1784 71.9782 82.3401 72.1622 82.5019C72.2314 82.5521 72.2869 82.6188 72.3237 82.696C72.3513 82.8032 72.3445 82.9164 72.3043 83.0196C71.6104 85.4976 71.1143 88.027 70.8205 90.5838C70.9126 89.4191 70.6187 88.2269 70.8464 87.0848C71.1079 85.7907 71.384 84.4965 71.5939 83.1878C71.6327 82.9387 71.6472 82.6313 71.4325 82.4922C71.3453 82.4324 71.2306 82.4194 71.1418 82.3628C70.8189 82.1606 70.9949 81.6656 71.1531 81.3178C71.8296 79.8327 71.3889 78.1099 71.0046 76.5246C70.4864 74.3867 70.0876 72.2216 69.8098 70.0393C70.1844 71.0633 70.4056 72.0808 70.7463 73.1064ZM56.9628 65.7217C56.9192 65.8511 56.6399 66.008 56.5317 66.0938C56.181 66.3737 55.8109 66.6283 55.4242 66.8557C55.2499 66.9455 55.0895 67.0599 54.9479 67.1954C54.8235 67.3313 54.7412 67.4995 54.6088 67.629C54.4362 67.7606 54.2473 67.8693 54.0469 67.9525C52.6407 68.7144 52.526 70.8255 51.2199 71.7492C51.0947 71.8161 50.9898 71.9156 50.9163 72.0371C50.8847 72.1478 50.8621 72.2609 50.8485 72.3752C50.729 72.8379 50.0638 72.9172 49.8216 73.3232C49.7119 73.506 49.6973 73.7357 49.5601 73.8991C49.3986 74.09 49.0935 74.1773 49.066 74.4216C49.0467 74.5834 49.1742 74.7306 49.2808 74.8568C49.5094 75.1345 49.677 75.4574 49.7727 75.8045C49.8684 76.1515 49.89 76.5148 49.8362 76.8708C49.4148 75.8888 48.9014 74.9522 48.3831 74.0156L48.0053 73.3232C47.9358 73.3458 47.8648 73.3653 47.7938 73.3847C46.916 71.3866 46.4819 69.2212 46.5215 67.0385C46.5147 66.9271 46.5364 66.8157 46.5845 66.715C46.692 66.5902 46.839 66.5062 47.001 66.4772C47.5413 66.3029 48.0285 65.994 48.417 65.5794C48.5534 65.4005 48.7262 65.2527 48.924 65.1458C49.127 65.0848 49.3385 65.0569 49.5504 65.0633C49.6564 65.065 49.7612 65.0405 49.8556 64.992C49.9499 64.9434 50.0309 64.8724 50.0913 64.7851C50.1833 64.6071 50.1268 64.392 50.1591 64.1946C50.2172 63.8323 50.5773 63.5831 50.9405 63.5201C51.3038 63.457 51.6703 63.5201 52.0352 63.5653C52.1039 63.5803 52.1756 63.5736 52.2403 63.5459C52.2876 63.5112 52.3208 63.4603 52.3336 63.4029C52.3463 63.3455 52.3379 63.2854 52.3097 63.2337C52.2488 63.1329 52.1595 63.0523 52.053 63.0024C51.4924 62.6957 50.8426 62.5944 50.2156 62.7161C50.0428 62.6384 50.0735 62.4508 50.0541 62.2583C50.0519 62.0663 50.0848 61.8755 50.151 61.6953C50.5401 61.4737 51.0858 61.6484 51.4427 61.3718C51.5068 61.3069 51.5846 61.2572 51.6703 61.2262C51.7581 61.2201 51.8459 61.2386 51.9238 61.2796C52.3059 61.3923 52.7138 61.3816 53.0895 61.2488C53.4722 61.1388 53.8177 61.0531 54.2068 60.9803C54.5426 61.3184 54.6007 61.8377 54.8042 62.2744C54.8195 62.3149 54.8479 62.3491 54.8849 62.3715C54.928 62.3831 54.9727 62.3875 55.0173 62.3844C55.3886 62.4184 55.1917 63.2111 55.1787 63.4246C55.1553 63.6668 55.1684 63.9111 55.2175 64.1493C55.2282 64.2176 55.2579 64.2815 55.3031 64.3337C55.4984 64.5343 55.8068 64.3192 56.0312 64.392C56.3444 64.4939 56.3089 64.9582 56.3671 65.2607C56.3688 65.2993 56.3842 65.336 56.4106 65.3642C56.441 65.3879 56.4788 65.3999 56.5172 65.3982C56.6562 65.4098 56.7961 65.4043 56.9338 65.382C56.9063 65.3804 56.9741 65.6861 56.9628 65.7217Z" fill="url(#paint1_linear_1_2927)"/>
<path d="M135.914 57.6849C135.956 57.8476 135.961 58.0445 136.092 58.1584C136.176 58.2183 136.275 58.2553 136.377 58.2658C137.483 58.4839 138.588 58.8143 139.507 59.462C140.426 60.1096 141.135 61.1202 141.197 62.2382C141.204 62.6826 141.161 63.1264 141.069 63.5613C140.959 64.0397 140.876 64.5238 140.82 65.0113C140.792 65.4865 140.995 66.0137 140.833 66.4759C140.784 66.6126 140.702 66.7363 140.656 66.873C140.553 67.1789 140.642 67.5158 140.578 67.8315C140.501 68.1125 140.365 68.3739 140.178 68.598C140.027 68.822 139.858 69.0327 139.671 69.2278C139.314 69.5809 138.819 69.856 138.688 70.3393C138.693 70.349 138.7 70.3571 138.71 70.3624C138.719 70.3677 138.73 70.3699 138.741 70.3689C138.751 70.3678 138.762 70.3634 138.77 70.3564C138.778 70.3493 138.784 70.34 138.786 70.3295C138.611 70.5134 138.786 70.5037 138.973 70.6794C139.16 70.8552 139.4 70.974 139.535 71.1904C139.669 71.4068 139.669 71.7291 139.838 71.9422C139.992 72.1019 140.188 72.2148 140.404 72.2677C141.343 72.5932 142.26 73.0668 142.907 73.8186C143.058 73.9803 143.173 74.1723 143.244 74.3817C143.3 74.5721 143.295 74.7755 143.345 74.9692C143.363 75.0671 143.408 75.1582 143.475 75.2321C143.542 75.3061 143.629 75.3598 143.725 75.3874C143.658 75.6217 143.976 75.7633 144.197 75.8756L148.663 78.0709C149.4 78.458 150.167 78.7872 150.955 79.0555C151.624 79.2622 152.316 79.381 152.976 79.6153C153.859 79.9278 154.656 80.429 155.447 80.9335C156.72 81.7471 157.915 82.6243 159.178 83.4412L160.226 84.1199C160.532 84.3168 160.865 84.5511 161.233 84.5755C161.602 84.5999 161.932 84.3135 162.314 84.5983C162.478 84.722 162.578 84.9238 162.753 85.0328C163.01 85.1955 163.367 85.1207 163.616 85.2916C163.716 85.3782 163.81 85.4729 163.894 85.5747C164.155 85.8286 164.538 85.9002 164.877 86.0336C165.216 86.1671 165.566 86.4421 165.547 86.805C165.535 87.0215 165.383 87.2314 165.442 87.4413C165.678 88.4015 166.403 89.0931 167.025 89.8189C167.681 90.587 168.067 91.4983 168.648 92.3153C168.852 92.5847 169.079 92.8362 169.326 93.0671L170.309 94.0436C170.576 94.3088 170.648 94.6375 171 94.8328C170.939 94.8959 170.857 94.9342 170.77 94.9402C170.682 94.9462 170.596 94.9195 170.527 94.8654C169.903 94.3381 169.23 94.1558 168.676 93.5553C168.987 94.452 170.053 95.2934 170.72 95.9541C170.366 96.221 169.842 96.0371 169.511 95.7442C169.181 95.4512 168.937 95.0574 168.562 94.8231C168.681 95.2925 168.884 95.7371 169.159 96.1363C168.717 96.2438 168.264 95.9736 167.964 95.6384C167.664 95.3031 167.473 94.88 167.189 94.5253C166.729 93.9475 166.397 93.2787 165.933 92.701C165.665 92.3674 164.322 91.5862 164.404 91.2933C164.488 91.0904 164.64 90.9225 164.834 90.8181C163.837 90.7986 163.28 92.2567 162.473 92.7335C162.242 92.887 161.974 92.9753 161.697 92.989C161.559 92.992 161.423 92.9546 161.307 92.8813C161.19 92.8081 161.098 92.7023 161.042 92.5773C161.063 92.6343 162.219 91.6285 162.299 91.4821C162.727 90.714 162.872 89.7017 163.259 88.8897C163.094 88.9867 162.911 89.0513 162.722 89.0801C162.627 89.0922 162.531 89.0779 162.444 89.0388C162.358 88.9997 162.284 88.9374 162.231 88.8588C162.165 88.74 162.157 88.5805 162.042 88.5089C161.928 88.4373 161.797 88.491 161.672 88.4763C161.438 88.447 161.289 88.1964 161.063 88.1297C160.977 88.1109 160.889 88.1027 160.801 88.1053C160.421 88.0906 160.05 87.9803 159.725 87.7848C159.399 87.5892 159.129 87.3149 158.939 86.9873L158.983 87.1761C158.955 87.0556 159.122 87.2411 159.207 87.15C156.484 86.4267 153.805 85.5475 151.183 84.5169C149.767 83.9587 148.676 82.9482 147.209 82.4372C145.876 81.9695 144.583 81.3976 143.342 80.7268C142.71 80.3883 142.032 80.0221 141.318 80.1214C140.827 80.1898 140.404 80.4697 140.008 80.7528C140.345 80.5771 140.704 80.3981 141.084 80.416C141.464 80.4339 141.86 80.7333 141.836 81.1109C141.821 81.3501 141.647 81.56 141.641 81.8009C141.591 83.9164 139.79 85.3632 138.798 87.2298C138.405 87.967 138.005 88.7155 137.427 89.3209C137.294 89.4427 137.179 89.5824 137.085 89.7359C137.02 89.8773 136.976 90.0276 136.955 90.1818C136.737 91.3503 136.521 92.5182 136.309 93.6855C136.299 93.85 136.227 94.0046 136.107 94.1184C135.956 94.2291 135.745 94.19 135.562 94.1526C133.539 93.736 131.304 93.8662 129.398 93.0134C128.361 92.5529 127.364 91.8385 126.231 91.8743C126.936 91.7587 127.734 92.7482 128.304 93.0704C128.631 93.2559 128.959 93.5342 128.985 93.9085C128.978 94.1106 128.932 94.3095 128.849 94.4943C128.597 95.2169 128.328 96.8443 128.78 97.518C128.882 97.6408 128.97 97.7733 129.046 97.9134C129.106 98.101 129.12 98.3005 129.085 98.4944C129.026 99.1226 128.966 99.7507 128.905 100.379C128.882 100.625 128.816 100.922 128.577 100.991C128.631 101.918 128.319 102.828 127.963 103.687C127.636 104.465 127.285 105.225 126.927 105.985L126.46 106.978C126.296 107.315 126.091 107.692 125.723 107.757C125.363 107.83 125.027 107.994 124.749 108.232C124.47 108.47 124.258 108.775 124.131 109.118C123.979 109.539 124.103 110.029 123.917 110.438C123.764 110.763 123.425 110.993 123.291 111.329C123.117 111.741 123.275 112.207 123.335 112.649C123.386 113.021 123.366 113.399 123.278 113.764C123.142 114.317 122.85 114.82 122.643 115.351C122.391 116.019 122.247 116.721 122.213 117.434C122.174 118.111 122.256 118.605 121.627 119.035C121.337 119.232 121.007 119.4 120.821 119.696C121.336 119.801 121.872 119.703 122.317 119.424C122.466 119.587 122.359 119.867 122.176 119.994C121.981 120.096 121.774 120.171 121.558 120.217C121.226 120.336 120.942 120.559 120.748 120.852C120.553 121.146 120.46 121.493 120.481 121.844C120.479 121.883 120.487 121.922 120.505 121.957C120.523 121.992 120.55 122.022 120.582 122.044C120.614 122.053 120.647 122.055 120.679 122.05C120.711 122.045 120.742 122.033 120.769 122.015C121.22 121.79 121.612 121.465 121.915 121.064C122.068 120.835 122.247 120.624 122.449 120.436C122.551 120.342 122.676 120.277 122.812 120.248C122.948 120.22 123.089 120.228 123.221 120.273C123.273 120.293 123.316 120.331 123.342 120.381C123.352 120.416 123.355 120.453 123.349 120.49C123.343 120.526 123.329 120.561 123.307 120.591C123.193 120.798 122.995 120.947 122.865 121.144C122.736 121.341 122.701 121.644 122.885 121.795C123.134 121.437 123.474 120.633 123.994 120.656C124.537 120.68 124.848 121.525 125.14 121.883C125.859 122.765 127.082 123.125 127.794 124.013C128.043 124.322 128.22 124.687 128.466 124.999C128.712 125.312 129.057 125.585 129.448 125.6C129.549 125.595 129.65 125.598 129.75 125.61C130.118 125.68 130.264 126.124 130.294 126.495C130.323 126.866 130.336 127.297 130.634 127.525C131.075 127.862 131.78 127.479 132.246 127.782C132.573 127.99 132.637 128.446 132.933 128.69C133.115 128.84 133.379 128.907 133.495 129.113C133.611 129.32 133.525 129.602 133.554 129.838C133.638 130.511 134.578 131.03 135.085 131.328C135.814 131.753 136.395 132.288 136.544 133.164L139.82 134.842C140.062 134.979 140.321 135.085 140.591 135.157C141.105 135.268 141.718 135.157 142.098 135.514C142.382 135.786 142.409 136.246 142.273 136.616C142.109 136.974 141.888 137.304 141.618 137.592C140.316 139.219 139.413 141.104 138.342 142.884C137.271 144.664 135.984 146.398 134.168 147.411C133.783 147.625 133.349 147.81 132.914 147.713C132.798 147.693 132.693 147.636 132.614 147.55C132.548 147.45 132.508 147.334 132.499 147.215C132.416 146.682 132.362 146.058 132.75 145.68C132.925 145.54 133.115 145.418 133.317 145.319C133.56 145.167 133.766 144.964 133.922 144.724C134.078 144.485 134.18 144.215 134.221 143.932C134.075 143.989 133.932 143.818 133.929 143.664C133.95 143.511 133.98 143.359 134.019 143.21C134.062 142.785 133.652 142.446 133.561 142.028C133.469 141.61 133.688 141.214 133.611 140.813C133.534 140.411 133.182 140.057 133.294 139.673C133.376 139.392 133.683 139.206 133.721 138.917C133.759 138.627 133.471 138.362 133.174 138.305C132.878 138.248 132.573 138.332 132.275 138.388C131.06 138.61 129.806 138.366 128.764 137.706C128.712 137.275 129.213 137.022 129.583 136.778C129.838 136.604 130.054 136.378 130.217 136.116C130.379 135.854 130.485 135.562 130.528 135.257C130.305 135.379 130.036 135.205 129.864 135.014C129.692 134.824 129.522 134.593 129.268 134.572C128.903 134.541 128.63 134.969 128.264 134.964C127.87 134.964 127.657 134.476 127.29 134.337C127.046 134.243 126.773 134.31 126.512 134.298C125.826 134.269 125.294 133.717 124.842 133.206C124.449 132.76 124.044 132.295 123.887 131.724C123.768 131.294 123.8 130.837 123.733 130.394C123.555 129.218 121.768 128.235 120.912 127.483C120.506 127.094 120.049 126.763 119.554 126.497C118.63 126.052 117.425 126.008 116.837 125.17C116.534 124.729 116.485 124.166 116.272 123.676C115.969 122.981 115.303 122.537 114.962 121.886C114.621 121.235 114.689 120.293 114.653 119.561C114.653 118.57 114.554 117.569 114.507 116.579C114.471 115.862 114.125 114.579 114.671 113.995C114.925 113.756 115.228 113.572 115.558 113.456C116.739 112.968 117.99 112.587 119.045 111.865C120.027 111.19 120.866 110.2 122.037 109.961C120.726 109.855 119.765 110.83 118.701 111.369C117.45 111.997 116.157 112.536 114.829 112.983C114.011 113.26 113.297 113.855 112.512 114.238C111.616 114.674 110.689 115.043 109.763 115.413L110.072 115.207C110.005 115.228 109.934 115.228 109.867 115.208C109.801 115.188 109.741 115.149 109.697 115.095C109.635 114.994 109.599 114.879 109.592 114.76C109.509 114.319 109.523 113.865 109.633 113.43C109.323 113.944 109.197 114.547 109.276 115.141C109.348 115.675 109.697 116.242 109.386 116.768C109.255 116.985 109.078 117.211 109.121 117.46C109.176 117.785 109.553 117.928 109.761 118.179C109.876 118.336 109.961 118.511 110.013 118.698L110.635 120.542C110.94 121.373 111.186 122.223 111.374 123.087C111.386 123.233 111.443 123.372 111.538 123.484C111.646 123.588 111.808 123.61 111.936 123.688C112.263 123.886 112.263 124.339 112.221 124.724C112.139 125.522 112.056 126.319 111.973 127.115C111.965 127.305 111.924 127.492 111.851 127.668C111.687 128.02 111.258 128.378 111.474 128.702C111.872 129.292 112.99 129.003 113.102 129.943C113.118 130.088 113.115 130.269 113.241 130.34C113.322 130.372 113.407 130.391 113.493 130.399C113.731 130.464 113.821 130.778 113.732 131.011C113.625 131.232 113.483 131.435 113.311 131.611C113.159 131.805 113.036 132.056 113.112 132.288C113.406 133.187 114.081 132.409 114.53 132.31C114.624 132.298 114.719 132.309 114.807 132.342C114.896 132.375 114.975 132.429 115.037 132.5C115.17 132.633 115.267 132.798 115.394 132.936C115.709 133.279 116.185 133.437 116.511 133.773C116.786 134.077 116.952 134.463 116.985 134.871C117.017 135.275 117.004 135.682 116.945 136.083C116.947 136.23 116.9 136.374 116.809 136.49C116.361 139.27 116.074 141.8 114.885 144.355C114.395 145.412 113.785 146.411 113.067 147.33C112.617 147.909 112.104 148.469 111.43 148.782C110.755 149.094 109.907 149.097 109.343 148.619L109.137 145.745C109.115 145.14 109.026 144.54 108.872 143.955C108.736 143.507 108.525 143.088 108.354 142.653C108.079 141.877 107.867 141.08 107.719 140.271C107.667 139.958 107.569 139.655 107.426 139.372C106.864 138.384 105.377 138.194 104.868 137.179C104.825 137.114 104.8 137.039 104.795 136.962C104.79 136.884 104.806 136.807 104.84 136.738C104.936 136.596 105.14 136.586 105.313 136.588C106.057 136.598 106.931 136.487 107.301 135.846C106.974 135.792 106.892 135.343 107.029 135.048C107.167 134.754 107.436 134.536 107.586 134.246C107.737 133.956 107.698 133.512 107.385 133.414L106.61 133.886C106.227 133.639 106.61 133.014 106.43 132.598C106.25 132.181 105.541 132.109 105.495 131.654C105.48 131.514 105.541 131.375 105.537 131.235C105.524 130.809 105 130.633 104.65 130.386C103.89 129.851 103.895 128.23 103.813 127.392C103.682 126.067 103.749 124.718 103.41 123.421C103.258 122.838 103.029 122.282 102.842 121.709C102.464 120.547 102.716 119.333 102.036 118.225C101.794 117.832 101.471 117.491 101.247 117.085C101.023 116.68 100.901 116.179 101.101 115.762C101.196 115.567 101.355 115.331 101.221 115.159C101.154 115.072 101.021 115.024 101.013 114.916C101.001 114.768 101.217 114.723 101.304 114.602C101.434 114.421 101.229 114.194 101.185 113.976C101.116 113.635 101.635 113.014 101.802 112.695C102.159 112.015 102.667 111.403 103.142 110.802C104.963 108.501 106.867 106.26 108.908 104.146C109.941 103.075 111.009 102.031 112.117 101.043C113.226 100.055 114.171 98.9029 115.16 97.7702C115.385 97.53 115.585 97.2677 115.756 96.9875C115.91 96.7189 116.012 96.4211 116.161 96.1494C116.475 95.6239 116.908 95.1782 117.425 94.8475C117.659 94.7141 117.864 94.5373 118.031 94.3267C118.144 94.1308 118.218 93.9155 118.25 93.692C118.386 93.0525 118.498 92.3983 118.676 91.7685C118.82 91.2608 118.912 91.0313 118.185 91.1436C117.876 91.1916 117.562 91.1965 117.251 91.1582C117.048 91.1322 116.814 91.059 116.752 90.8653C116.728 90.7345 116.748 90.5995 116.809 90.4812C116.809 90.0874 117.209 89.5195 117.34 89.1419C117.463 88.7453 117.556 88.3401 117.618 87.9295C117.794 87.0167 118.043 86.1193 118.363 85.246C119.017 83.4582 119.957 81.7871 121.147 80.2972C120.711 80.6682 120.274 81.0382 119.837 81.407C120.671 80.2923 121.205 78.5803 121.328 77.2068C121.386 76.5558 121.38 75.8365 121.819 75.3565C122.048 75.1356 122.319 74.9629 122.616 74.8487C123.231 74.571 123.857 74.3188 124.493 74.092C125.248 73.8235 125.566 73.1856 126.262 72.8064C126.314 72.7813 126.361 72.7465 126.401 72.7039C126.504 72.5769 126.439 72.393 126.432 72.2319C126.436 72.0847 126.479 71.9412 126.556 71.8156C126.633 71.6899 126.743 71.5866 126.873 71.5159C128.201 70.7022 129.576 70.9626 130.978 70.4679C131.255 69.2473 131.505 67.9926 131.54 66.7428L131.129 66.6777L130.932 64.611C130.908 64.3603 130.89 64.0869 131.037 63.8819C131.117 63.7973 131.191 63.7064 131.256 63.6101C131.305 63.451 131.305 63.281 131.256 63.1219C131.117 62.2529 131.451 61.3562 131.993 60.6597C132.535 59.9632 133.264 59.4343 134.013 58.9624C133.871 58.9281 133.738 58.8628 133.625 58.7714C133.512 58.6799 133.42 58.5644 133.358 58.4335C133.305 58.3195 133.186 58.4546 133.069 58.5067C132.959 58.5699 132.868 58.6623 132.807 58.7736C131.907 60.0852 130.393 60.8176 129.144 61.8086C128.226 62.5386 127.44 63.4192 126.82 64.4124C126.316 65.2261 125.918 66.1423 125.937 67.0976C125.957 68.0528 126.473 69.0407 127.362 69.4019C126.457 69.1302 125.762 68.3327 125.499 67.4312C125.259 66.5125 125.346 65.5397 125.746 64.6777C125.305 65.7648 125.148 66.9918 125.469 68.1196C125.79 69.2473 126.635 70.2514 127.762 70.6176C127.142 70.5397 126.554 70.3038 126.053 69.9328C125.552 69.5618 125.157 69.0684 124.905 68.5005C124.654 67.9326 124.554 67.3097 124.616 66.6923C124.679 66.0748 124.901 65.4839 125.261 64.9771C124.391 66.4417 124.467 68.3262 125.142 69.8869C125.444 70.585 125.9 71.275 126.606 71.5712C126.216 71.8121 125.743 71.4394 125.451 71.083C124.838 70.3745 124.336 69.5778 123.962 68.7201C123.756 68.2139 123.181 66.9706 123.673 66.5182C123.196 67.4123 123.062 68.448 123.296 69.4328C123.047 69.1351 122.866 68.7879 122.764 68.4145C122.662 68.0411 122.642 67.6502 122.705 67.2684C122.174 68.4739 122.129 69.8361 122.58 71.0732C121.326 69.2831 121.748 66.6305 123.309 65.0992C124.144 64.2855 125.282 63.6882 125.734 62.6125C124.837 64.1358 122.986 64.7753 121.608 65.8852C120.726 66.6087 120.033 67.533 119.588 68.5796C119.142 69.6262 118.958 70.7641 119.05 71.8967C118.519 70.5574 118.766 68.9967 119.472 67.7404C120.178 66.4841 121.296 65.4995 122.507 64.7086C121.627 65.1659 120.743 65.6264 119.983 66.2595C119.223 66.8925 118.591 67.7241 118.368 68.6794C118.368 67.327 119.42 66.2139 120.487 65.3742C121.555 64.5345 122.764 63.7468 123.34 62.5263C122.105 63.9633 120.42 64.9315 118.989 66.1765C117.558 67.4214 116.318 69.1546 116.482 71.0358C116.321 69.9506 116.442 68.8424 116.834 67.8169C117.225 66.7914 117.875 65.8827 118.72 65.1773C119.703 64.3766 120.985 63.7989 121.48 62.6353C121.02 63.2736 120.407 63.7885 119.698 64.1341C120.235 63.7474 120.672 63.2392 120.972 62.6516C119.251 64.4417 116.305 64.9023 115.018 67.0243C114.436 67.9812 114.299 69.1399 114.225 70.2498C114.304 69.0569 114.15 68.1049 114.698 66.9576C115.167 65.9812 115.807 65.0243 116.827 64.5426C116.196 64.7622 115.617 65.106 115.123 65.5534C114.628 66.0008 114.23 66.5426 113.952 67.1464C114.174 65.7192 115.399 64.6842 116.572 63.8217C115.871 64.3587 114.98 64.5703 114.138 64.8453C113.297 65.1203 112.429 65.5158 111.967 66.2676C113.65 63.7034 116.092 61.7213 118.956 60.5946L114.178 62.1618C114.705 61.737 115.257 61.2993 115.92 61.156C114.631 61.3422 113.382 61.7398 112.224 62.3326C113.767 61.1247 115.602 60.3418 117.546 60.0625C116.423 59.975 115.294 60.1094 114.223 60.4579C115.141 59.9441 116.151 59.6125 117.196 59.4815C116.067 59.369 114.927 59.4797 113.842 59.8074C112.757 60.135 111.748 60.673 110.873 61.3904C112.076 60.1666 113.601 59.3029 115.273 58.8973C116.875 58.5116 118.401 58.1064 119.919 57.4505C121.409 56.7996 122.941 56.0966 124.599 56.0852C122.204 55.3644 119.627 55.5332 117.348 56.5604C118.645 55.3089 120.82 55.7223 122.443 54.933C122.218 55.0436 121.37 54.8223 121.097 54.7979C120.716 54.7495 120.332 54.7402 119.95 54.7703C119.033 54.8659 118.134 55.0849 117.276 55.4212C116.621 55.6767 115.995 56.0022 115.311 56.1877C114.626 56.3732 113.883 56.4074 113.256 56.0933C115.93 56.1763 118.136 54.4252 120.705 54.1307C122.356 53.9423 124.024 53.9576 125.67 54.1763C127.236 54.3878 128.633 55.0111 130.146 55.3057C130.749 55.4212 131.365 55.4782 131.948 55.6572C132.531 55.8362 133.105 56.1568 133.421 56.6775C133.533 56.8582 133.698 57.0974 133.898 57.0193C133.983 56.9867 134.04 56.9021 134.126 56.8744C134.217 56.858 134.311 56.8748 134.391 56.9216C134.669 57.0323 135.914 57.3594 135.914 57.6849Z" fill="url(#paint2_linear_1_2927)"/>
</g>
<defs>
<filter id="filter0_d_1_2927" x="0.5" y="0.5" width="210.23" height="211.23" filterUnits="userSpaceOnUse" color-interpolation-filters="sRGB">
<feFlood flood-opacity="0" result="BackgroundImageFix"/>
<feColorMatrix in="SourceAlpha" type="matrix" values="0 0 0 0 0 0 0 0 0 0 0 0 0 0 0 0 0 0 127 0" result="hardAlpha"/>
<feOffset dx="7" dy="8"/>
<feGaussianBlur stdDeviation="2"/>
<feComposite in2="hardAlpha" operator="out"/>
<feColorMatrix type="matrix" values="0 0 0 0 0 0 0 0 0 0 0 0 0 0 0 0 0 0 0.25 0"/>
<feBlend mode="normal" in2="BackgroundImageFix" result="effect1_dropShadow_1_2927"/>
<feBlend mode="normal" in="SourceGraphic" in2="effect1_dropShadow_1_2927" result="shape"/>
</filter>
<linearGradient id="paint0_linear_1_2927" x1="100.116" y1="193.748" x2="100.116" y2="6.48402" gradientUnits="userSpaceOnUse">
<stop stop-color="#7F542C"/>
<stop offset="0.16" stop-color="#84592D"/>
<stop offset="0.35" stop-color="#926632"/>
<stop offset="0.55" stop-color="#A97D39"/>
<stop offset="0.76" stop-color="#C99C43"/>
<stop offset="0.98" stop-color="#F2C450"/>
<stop offset="1" stop-color="#F7C951"/>
</linearGradient>
<linearGradient id="paint1_linear_1_2927" x1="34.9952" y1="99.4956" x2="93.0013" y2="99.4956" gradientUnits="userSpaceOnUse">
<stop stop-color="#F7C951"/>
<stop offset="0.46" stop-color="#B88C3E"/>
<stop offset="0.82" stop-color="#8F6331"/>
<stop offset="1" stop-color="#7F542C"/>
</linearGradient>
<linearGradient id="paint2_linear_1_2927" x1="101" y1="101.499" x2="171.013" y2="101.499" gradientUnits="userSpaceOnUse">
<stop stop-color="#F7C951"/>
<stop offset="0.46" stop-color="#B88C3E"/>
<stop offset="0.82" stop-color="#8F6331"/>
<stop offset="1" stop-color="#7F542C"/>
</linearGradient>
</defs>
</svg>
