<svg width="211" height="212" viewBox="0 0 211 212" fill="none" xmlns="http://www.w3.org/2000/svg">
<g filter="url(#filter0_d_1_3013)">
<path d="M188.23 12H12V188.23H188.23V12Z" stroke="url(#paint0_linear_1_3013)" stroke-width="23" stroke-miterlimit="10"/>
<path d="M148 85C141.533 67.604 122.491 55 100 55C77.5093 55 58.4669 67.604 52 85" stroke="#562710" stroke-miterlimit="10"/>
<path d="M148 56C149.105 56 150 55.3284 150 54.5C150 53.6716 149.105 53 148 53C146.895 53 146 53.6716 146 54.5C146 55.3284 146.895 56 148 56Z" fill="#562710"/>
<path d="M52 56C53.1046 56 54 55.3284 54 54.5C54 53.6716 53.1046 53 52 53C50.8954 53 50 53.6716 50 54.5C50 55.3284 50.8954 56 52 56Z" fill="#562710"/>
<path d="M105 50H95V60H105V50Z" fill="#562710"/>
<path d="M57 80H47V90H57V80Z" fill="#562710"/>
<path d="M153 80H143V90H153V80Z" fill="#562710"/>
<path d="M113 133V176H87V133C87 133 88.8908 135.281 100 135.281C111.109 135.281 113 133 113 133Z" fill="#562710"/>
<g style="mix-blend-mode:multiply" opacity="0.3">
<path d="M91 134.471C87.7541 133.816 87 133 87 133V176H91V134.471Z" fill="#333333"/>
</g>
<g style="mix-blend-mode:multiply" opacity="0.3">
<path d="M100.301 135.281H100V176H113V133C113 133 111.153 135.281 100.301 135.281Z" fill="#333333"/>
</g>
<g style="mix-blend-mode:multiply" opacity="0.3">
<path d="M89 134.028C87.4221 133.5 87 133 87 133V176H89V134.028Z" fill="#333333"/>
</g>
<g style="mix-blend-mode:multiply" opacity="0.3">
<path d="M107 134.933V176H113V133C113 133 111.985 134.294 107 134.933Z" fill="#333333"/>
</g>
<path d="M92.2384 120C92.2384 107.51 82 102.516 82 98.54C82 94.5639 98.8253 69 98.8253 69V91.7389C97.4031 92.0336 96.1399 92.8505 95.2804 94.0314C94.421 95.2123 94.0263 96.6732 94.1731 98.131C94.3198 99.5887 94.9974 100.94 96.0747 101.922C97.1519 102.904 98.5521 103.448 100.004 103.448C101.456 103.448 102.856 102.904 103.933 101.922C105.01 100.94 105.688 99.5887 105.835 98.131C105.981 96.6732 105.587 95.2123 104.727 94.0314C103.868 92.8505 102.605 92.0336 101.182 91.7389V69C101.182 69 118 94.5658 118 98.54C118 102.514 107.762 107.51 107.762 120" fill="url(#paint1_linear_1_3013)"/>
<g style="mix-blend-mode:multiply" opacity="0.3">
<path d="M98.8259 116.041C96.167 116.062 93.5226 115.68 91 114.91C91.4925 116.569 91.7392 118.281 91.7337 120H107.576C107.562 117.605 108.045 115.23 109 113C105.908 114.814 102.228 116.041 98.8259 116.041Z" fill="#808080"/>
</g>
<g style="mix-blend-mode:multiply" opacity="0.3">
<path d="M103.5 118.601C99.2417 118.601 95.4571 117.763 92 116C92.3451 117.312 92.5177 118.654 92.5145 120H107.869C107.87 119.324 107.913 118.648 108 117.976C106.543 118.374 105.027 118.585 103.5 118.601Z" fill="#808080"/>
</g>
<path d="M101.545 69.1422C103.431 68.2915 104.271 66.0724 103.421 64.1857C102.57 62.299 100.351 61.4592 98.464 62.3098C96.5773 63.1605 95.7375 65.3796 96.5882 67.2663C97.4389 69.153 99.6579 69.9929 101.545 69.1422Z" fill="url(#paint2_linear_1_3013)"/>
<g style="mix-blend-mode:multiply" opacity="0.3">
<path d="M99.3739 66.742C98.157 66.7467 96.9718 66.3902 96 65.7269C96.0566 66.2452 96.2357 66.7464 96.5252 67.1965C96.8147 67.6465 97.2077 68.0349 97.6776 68.3353C98.1475 68.6357 98.6834 68.841 99.2487 68.9374C99.814 69.0337 100.396 69.0188 100.954 68.8936C101.512 68.7684 102.034 68.5359 102.485 68.2119C102.935 67.8879 103.303 67.48 103.564 67.0158C103.825 66.5516 103.972 66.042 103.996 65.5216C104.021 65.0013 103.921 64.4823 103.704 64C102.937 65.5427 101.29 66.742 99.3739 66.742Z" fill="#808080"/>
</g>
<g style="mix-blend-mode:multiply" opacity="0.3">
<path d="M100.416 68.2405C99.1848 68.2438 97.9858 67.9672 97 67.4527C97.3123 67.9501 97.8411 68.3661 98.5114 68.6419C99.1816 68.9176 99.9593 69.0391 100.734 68.989C101.509 68.9389 102.241 68.7198 102.827 68.3627C103.414 68.0057 103.824 67.5289 104 67C103.11 67.7399 101.837 68.2405 100.416 68.2405Z" fill="#808080"/>
</g>
<path d="M107.831 120H92.1693L87 132.701C87 132.701 88.8358 135 100 135C111.164 135 113 132.701 113 132.701L107.831 120Z" fill="url(#paint3_linear_1_3013)"/>
<path d="M100 138C89.0797 138 86.1761 136.019 85.435 135.177C85.1102 134.78 84.9584 134.286 85.0098 133.791C85.0613 133.297 85.3121 132.838 85.7127 132.506C86.1133 132.175 86.6342 131.994 87.1723 132C87.7104 132.006 88.2262 132.199 88.6175 132.54C88.8691 132.701 91.2696 134.049 100 134.049C108.73 134.049 111.131 132.701 111.382 132.54C111.774 132.199 112.29 132.006 112.828 132C113.366 131.994 113.887 132.175 114.287 132.506C114.688 132.838 114.939 133.297 114.99 133.791C115.042 134.286 114.89 134.78 114.565 135.177C113.824 136.025 110.92 138 100 138Z" fill="url(#paint4_linear_1_3013)"/>
</g>
<defs>
<filter id="filter0_d_1_3013" x="0.5" y="0.5" width="210.23" height="211.23" filterUnits="userSpaceOnUse" color-interpolation-filters="sRGB">
<feFlood flood-opacity="0" result="BackgroundImageFix"/>
<feColorMatrix in="SourceAlpha" type="matrix" values="0 0 0 0 0 0 0 0 0 0 0 0 0 0 0 0 0 0 127 0" result="hardAlpha"/>
<feOffset dx="7" dy="8"/>
<feGaussianBlur stdDeviation="2"/>
<feComposite in2="hardAlpha" operator="out"/>
<feColorMatrix type="matrix" values="0 0 0 0 0 0 0 0 0 0 0 0 0 0 0 0 0 0 0.25 0"/>
<feBlend mode="normal" in2="BackgroundImageFix" result="effect1_dropShadow_1_3013"/>
<feBlend mode="normal" in="SourceGraphic" in2="effect1_dropShadow_1_3013" result="shape"/>
</filter>
<linearGradient id="paint0_linear_1_3013" x1="100.116" y1="193.748" x2="100.116" y2="6.48402" gradientUnits="userSpaceOnUse">
<stop stop-color="#7F542C"/>
<stop offset="0.16" stop-color="#84592D"/>
<stop offset="0.35" stop-color="#926632"/>
<stop offset="0.55" stop-color="#A97D39"/>
<stop offset="0.76" stop-color="#C99C43"/>
<stop offset="0.98" stop-color="#F2C450"/>
<stop offset="1" stop-color="#F7C951"/>
</linearGradient>
<linearGradient id="paint1_linear_1_3013" x1="82" y1="94.501" x2="117.986" y2="94.501" gradientUnits="userSpaceOnUse">
<stop stop-color="#F7C951"/>
<stop offset="0.46" stop-color="#B88C3E"/>
<stop offset="0.82" stop-color="#8F6331"/>
<stop offset="1" stop-color="#7F542C"/>
</linearGradient>
<linearGradient id="paint2_linear_1_3013" x1="96.2595" y1="65.7188" x2="103.754" y2="65.7188" gradientUnits="userSpaceOnUse">
<stop stop-color="#F7C951"/>
<stop offset="0.46" stop-color="#B88C3E"/>
<stop offset="0.82" stop-color="#8F6331"/>
<stop offset="1" stop-color="#7F542C"/>
</linearGradient>
<linearGradient id="paint3_linear_1_3013" x1="87" y1="127.499" x2="113" y2="127.499" gradientUnits="userSpaceOnUse">
<stop stop-color="#F7C951"/>
<stop offset="0.46" stop-color="#B88C3E"/>
<stop offset="0.82" stop-color="#8F6331"/>
<stop offset="1" stop-color="#7F542C"/>
</linearGradient>
<linearGradient id="paint4_linear_1_3013" x1="100" y1="138" x2="100" y2="131.961" gradientUnits="userSpaceOnUse">
<stop stop-color="#F7C951"/>
<stop offset="0.46" stop-color="#B88C3E"/>
<stop offset="0.82" stop-color="#8F6331"/>
<stop offset="1" stop-color="#7F542C"/>
</linearGradient>
</defs>
</svg>
