<svg width="211" height="212" viewBox="0 0 211 212" fill="none" xmlns="http://www.w3.org/2000/svg">
<g filter="url(#filter0_d_1_2873)">
<path d="M188.23 12H12V188.23H188.23V12Z" stroke="url(#paint0_linear_1_2873)" stroke-width="23" stroke-miterlimit="10"/>
<path d="M122.612 42.3889L115.11 44.1025V46.057V52.4776C114.876 52.3888 114.627 52.3485 114.377 52.3592C114.128 52.37 113.883 52.4315 113.658 52.5402C112.823 52.9079 112.371 53.7187 112.648 54.3439C112.926 54.969 113.827 55.1768 114.671 54.8091C115.265 54.5443 115.66 54.057 115.741 53.5735V53.5441C115.756 53.4417 115.756 53.3375 115.741 53.2352V45.9063L121.978 44.417V50.8872C121.741 50.7961 121.489 50.7545 121.236 50.7649C120.983 50.7753 120.735 50.8376 120.507 50.9479C119.67 51.3156 119.22 52.1265 119.495 52.7516C119.771 53.3767 120.676 53.5845 121.518 53.2149C122.215 52.906 122.638 52.2956 122.601 51.744V44.2662L122.612 42.3889Z" fill="#562710"/>
<path d="M130.917 41.9899L126.96 42.8963V43.9297V47.3257C126.837 47.2786 126.705 47.2573 126.573 47.263C126.441 47.2687 126.311 47.3013 126.192 47.3588C125.751 47.5537 125.512 47.9821 125.657 48.313C125.802 48.644 126.28 48.7525 126.723 48.5576C126.863 48.5026 126.988 48.4144 127.087 48.3008C127.185 48.1871 127.255 48.0513 127.289 47.9048V47.8901C127.297 47.8358 127.297 47.7808 127.289 47.7265V43.8506L130.586 43.0618V46.4854C130.462 46.4376 130.329 46.4157 130.196 46.4211C130.063 46.4265 129.932 46.459 129.812 46.5167C129.371 46.7134 129.132 47.14 129.279 47.4709C129.426 47.8019 129.902 47.9122 130.345 47.7173C130.507 47.6582 130.648 47.5524 130.75 47.4133C130.852 47.2742 130.91 47.1081 130.917 46.9359V42.9827V41.9899Z" fill="#562710"/>
<path d="M129.33 50.4036L125.363 51.3101V52.3434V55.7376C125.239 55.6914 125.106 55.6706 124.974 55.6763C124.842 55.682 124.712 55.7141 124.592 55.7707C124.151 55.9674 123.912 56.394 124.059 56.7249C124.206 57.0559 124.682 57.1662 125.125 56.9713C125.266 56.9163 125.39 56.8282 125.489 56.7145C125.587 56.6009 125.657 56.465 125.692 56.3186V56.302C125.7 56.2478 125.7 56.1926 125.692 56.1384V52.2643L128.99 51.4756V54.9047C128.866 54.8569 128.733 54.835 128.6 54.8404C128.467 54.8458 128.336 54.8783 128.216 54.9359C127.775 55.1308 127.536 55.5592 127.683 55.8902C127.83 56.2211 128.306 56.3315 128.748 56.1347C129.115 55.9711 129.34 55.6475 129.319 55.3533V51.3965L129.33 50.4036Z" fill="#562710"/>
<path d="M123.917 146.873L122.547 141.294L106.735 140.873C100.133 140.199 93.4794 140.199 86.8774 140.873H71.3922L69.537 147.389C69.5151 147.507 69.504 147.626 69.5039 147.746C69.5039 151.82 81.7273 155.123 96.808 155.123C111.889 155.123 124.114 151.813 124.114 147.746C124.11 147.444 124.043 147.147 123.917 146.873Z" fill="#562710"/>
<path d="M96.9282 148.696C111.089 148.696 122.568 145.527 122.568 141.617C122.568 137.708 111.089 134.539 96.9282 134.539C82.7675 134.539 71.2881 137.708 71.2881 141.617C71.2881 145.527 82.7675 148.696 96.9282 148.696Z" fill="url(#paint1_linear_1_2873)"/>
<path d="M100.914 131.058H92.7615L91.6914 138.137C91.6914 138.689 93.9952 139.119 96.8397 139.119C99.6841 139.119 101.988 138.68 101.988 138.137L100.914 131.058Z" fill="#562710"/>
<path d="M96.7865 131.714C99.1221 131.714 101.015 131.353 101.015 130.907C101.015 130.461 99.1221 130.1 96.7865 130.1C94.451 130.1 92.5576 130.461 92.5576 130.907C92.5576 131.353 94.451 131.714 96.7865 131.714Z" fill="#D2A545"/>
<path d="M99.6966 99.619L93.5684 100.906V130.858C94.3259 131.093 94.9326 131.266 96.6261 131.266C98.3195 131.266 99.6874 131.033 99.6874 130.882C99.6861 130.873 99.6823 130.865 99.6764 130.858H99.6893L99.6966 99.619Z" fill="#D2A545"/>
<path d="M95.1514 103.142V128.148" stroke="#562710" stroke-miterlimit="10"/>
<path d="M108.71 93.5478C108.71 93.5478 108.962 95.8755 106.742 96.8482C103.837 98.1187 94.4841 100.48 92.9525 100.342C91.8199 100.235 89.8268 97.9366 89.6539 97.3759C88.8872 95.0021 87.9605 70.7153 87.9605 70.7153C87.9605 70.0877 87.7112 69.4858 87.2675 69.042C86.8237 68.5982 86.2218 68.3489 85.5942 68.3489C84.9666 68.3489 84.3647 68.5982 83.9209 69.042C83.4771 69.4858 83.2278 70.0877 83.2278 70.7153V71.6346L83.1855 71.6236C83.1855 71.6236 83.4448 89.4218 83.6636 96.1513C83.7096 97.6222 84.6326 99.9003 87.613 101.809C90.1872 103.464 93.4397 103.181 94.5999 103.068C95.6425 102.967 101.876 101.551 106.163 100.044C112.212 97.9164 111.734 92.838 111.734 92.838L108.71 93.5478Z" fill="#D4A746"/>
<path d="M106.612 50.6996C106.612 50.6996 107.217 50.2602 106.93 49.659C105.106 45.8382 104.758 45.6636 101.287 43.755C99.7443 42.9056 96.0026 42.0451 93.4138 42.1333C87.0667 42.3521 77.2648 46.1563 72.4365 51.38C68.0237 56.1605 69.5811 60.7571 69.5811 60.7571C69.5811 60.7571 78.7192 90.4404 87.0484 98.0562C89.0709 99.8948 92.2518 99.4205 93.936 99.1263C99.2681 98.2069 112.779 94.9433 117.031 88.0134C117.896 86.605 117.719 84.6045 116.787 80.8941C116.544 79.9307 115.801 79.7652 115.801 79.7652L106.612 50.6996Z" fill="url(#paint2_linear_1_2873)"/>
<mask id="mask0_1_2873" style="mask-type:luminance" maskUnits="userSpaceOnUse" x="69" y="42" width="49" height="58">
<path d="M106.612 50.6996C106.612 50.6996 107.217 50.2602 106.93 49.659C105.106 45.8382 104.758 45.6636 101.287 43.755C99.7443 42.9056 96.0026 42.0451 93.4138 42.1333C87.0667 42.3521 77.2648 46.1563 72.4365 51.38C68.0237 56.1605 69.5811 60.7571 69.5811 60.7571C69.5811 60.7571 78.7192 90.4404 87.0484 98.0562C89.0709 99.8948 92.2518 99.4205 93.936 99.1263C99.2681 98.2069 112.779 94.9433 117.031 88.0134C117.896 86.605 117.719 84.6045 116.787 80.8941C116.544 79.9307 115.801 79.7652 115.801 79.7652L106.612 50.6996Z" fill="white"/>
</mask>
<g mask="url(#mask0_1_2873)">
<path d="M88.587 43.1706C88.587 43.1706 76.7645 44.6084 77.0899 54.289C77.4576 64.6406 87.8902 82.0803 92.3342 91.3563C96.5393 100.132 107.325 98.3175 107.325 98.3175C107.325 98.3175 86.2446 107.811 80.1991 104.385C67.3579 97.1095 61.6378 48.3464 61.6378 48.3464L88.052 39.2451L88.587 43.1706Z" fill="url(#paint3_linear_1_2873)"/>
</g>
<path d="M69.8643 61.6893L74.4977 59.9701C74.6091 59.9275 74.7279 59.9072 74.8471 59.9105C74.9664 59.9138 75.0838 59.9405 75.1928 59.9891C75.3017 60.0378 75.4 60.1075 75.482 60.1941C75.564 60.2808 75.6281 60.3827 75.6707 60.4942L75.9576 61.2664C75.9981 61.3789 76.0159 61.4983 76.0101 61.6177C76.0043 61.7371 75.9749 61.8542 75.9236 61.9622C75.8723 62.0702 75.8002 62.167 75.7114 62.247C75.6225 62.3271 75.5187 62.3887 75.406 62.4284L70.6438 64.1954" fill="#562710"/>
<path d="M71.5742 66.6316L76.2132 64.9124C76.3246 64.8698 76.4433 64.8495 76.5626 64.8528C76.6819 64.856 76.7993 64.8827 76.9083 64.9314C77.0172 64.9801 77.1155 65.0497 77.1975 65.1364C77.2795 65.223 77.3436 65.325 77.3862 65.4364L77.6731 66.2087C77.7136 66.3212 77.7314 66.4405 77.7256 66.56C77.7198 66.6794 77.6904 66.7965 77.6391 66.9045C77.5878 67.0125 77.5157 67.1093 77.4268 67.1893C77.338 67.2693 77.2342 67.331 77.1215 67.3707L72.3612 69.1376" fill="#562710"/>
<path d="M73.2861 71.574L77.9214 69.8548C78.0327 69.812 78.1513 69.7915 78.2705 69.7947C78.3897 69.7979 78.5071 69.8246 78.616 69.8733C78.7248 69.922 78.823 69.9917 78.9048 70.0785C78.9866 70.1652 79.0504 70.2673 79.0926 70.3788L79.3795 71.1511C79.42 71.2636 79.4378 71.383 79.432 71.5024C79.4261 71.6218 79.3968 71.7389 79.3455 71.8469C79.2942 71.9549 79.2221 72.0517 79.1332 72.1317C79.0444 72.2117 78.9406 72.2734 78.8279 72.3131L74.0676 74.0801" fill="#562710"/>
<path d="M75.0645 76.4851L79.6317 74.7972C79.743 74.7535 79.8618 74.7322 79.9813 74.7345C80.1009 74.7369 80.2188 74.7628 80.3282 74.8108C80.4377 74.8588 80.5367 74.9279 80.6194 75.0143C80.7021 75.1006 80.767 75.2024 80.8103 75.3138L81.0971 76.0861C81.1373 76.1986 81.155 76.3179 81.1491 76.4373C81.1431 76.5566 81.1137 76.6736 81.0624 76.7816C81.0112 76.8895 80.9392 76.9863 80.8505 77.0663C80.7617 77.1464 80.6581 77.2082 80.5455 77.2481L76.0518 78.9213" fill="#562710"/>
<path d="M77.0928 81.3168L81.3438 79.7392C81.4552 79.6966 81.5739 79.6763 81.6932 79.6795C81.8125 79.6828 81.9299 79.7095 82.0388 79.7582C82.1478 79.8068 82.2461 79.8765 82.3281 79.9631C82.4101 80.0498 82.4742 80.1518 82.5168 80.2632L82.8036 81.0354C82.8442 81.1479 82.862 81.2673 82.8562 81.3867C82.8503 81.5062 82.821 81.6232 82.7697 81.7313C82.7184 81.8393 82.6463 81.9361 82.5574 82.0161C82.4686 82.0961 82.3648 82.1577 82.2521 82.1975L78.0765 83.753" fill="#562710"/>
<path d="M79.2432 86.0973L83.0547 84.6816C83.166 84.6387 83.2846 84.6182 83.4038 84.6214C83.523 84.6246 83.6405 84.6513 83.7493 84.7C83.8581 84.7487 83.9563 84.8184 84.0381 84.9052C84.1199 84.992 84.1837 85.094 84.2259 85.2056L84.5128 85.9778C84.553 86.0903 84.5707 86.2097 84.5647 86.329C84.5588 86.4483 84.5293 86.5653 84.4781 86.6733C84.4269 86.7812 84.3548 86.878 84.2661 86.9581C84.1774 87.0381 84.0738 87.0999 83.9612 87.1398L80.2986 88.5023" fill="#562710"/>
<path d="M101.857 68.2494C102.089 69.0198 101.905 69.7571 101.446 69.895C100.986 70.0329 100.425 69.5273 100.194 68.7495C99.9618 67.9718 100.148 67.2418 100.607 67.1039C101.067 66.966 101.628 67.479 101.857 68.2494Z" fill="#562710"/>
<path d="M107.419 53.3234L100.894 55.2853C100.599 55.3735 100.272 55.1529 100.158 54.7925L99.7481 53.4043C99.6396 53.0366 99.7904 52.6799 100.085 52.5916L106.617 50.6279" fill="#562710"/>
<path d="M108.784 57.5631L102.335 59.5011C102.041 59.5893 101.714 59.3687 101.6 59.0083L101.183 57.6201C101.074 57.2524 101.225 56.8957 101.519 56.8074L107.954 54.875" fill="#562710"/>
<path d="M110.254 61.9741L103.879 63.89C103.585 63.9782 103.258 63.7576 103.144 63.3972L102.727 62.009C102.618 61.6413 102.769 61.2846 103.063 61.1963L109.383 59.2988" fill="#562710"/>
<path d="M111.699 66.4458L105.102 68.4279C104.81 68.5161 104.482 68.2955 104.367 67.9351L103.949 66.5469C103.841 66.1792 103.992 65.8225 104.286 65.7342L110.842 63.7632" fill="#562710"/>
<path d="M113.102 70.9285L106.323 72.9658C106.029 73.054 105.704 72.8334 105.588 72.473L105.178 71.0848C105.069 70.7171 105.22 70.3604 105.514 70.2721L112.108 68.29" fill="#562710"/>
<path d="M114.589 75.3853L107.545 77.5034C107.251 77.5917 106.926 77.371 106.81 77.0088L106.393 75.6225C106.284 75.2547 106.435 74.8962 106.729 74.808L113.681 72.7192" fill="#562710"/>
<path d="M115.928 79.8883L108.77 82.0395C108.476 82.1278 108.15 81.9071 108.035 81.5468L107.617 80.1586C107.509 79.7908 107.66 79.4341 107.954 79.3459L115.17 77.1763" fill="#562710"/>
<path d="M102.962 83.3395L102.493 81.9605C102.464 81.8751 102.419 81.7963 102.36 81.7285C102.3 81.6608 102.228 81.6054 102.147 81.5656C102.067 81.5258 101.979 81.5023 101.889 81.4966C101.799 81.4908 101.709 81.5029 101.624 81.5321L101.44 81.5909V81.5688L92.6307 84.5548C92.4595 84.6149 92.3191 84.7403 92.2402 84.9036C92.1613 85.067 92.1503 85.2549 92.2096 85.4264L92.6766 86.8053C92.7357 86.9776 92.8604 87.1195 93.0237 87.2001C93.187 87.2808 93.3755 87.2935 93.5482 87.2356L94.5613 86.8918V86.9138L102.534 84.211C102.619 84.182 102.698 84.1364 102.766 84.0769C102.834 84.0174 102.889 83.9451 102.929 83.8641C102.969 83.7832 102.992 83.6952 102.998 83.6051C103.003 83.5151 102.991 83.4248 102.962 83.3395Z" fill="#562710"/>
<path d="M93.7455 57.5635C93.8309 57.5346 93.9097 57.4893 93.9776 57.43C94.0454 57.3707 94.1009 57.2986 94.1409 57.2178C94.1808 57.137 94.2045 57.0492 94.2105 56.9593C94.2164 56.8693 94.2047 56.7791 94.1758 56.6938L93.7087 55.313C93.6502 55.1409 93.5256 54.9991 93.3626 54.9187C93.1995 54.8384 93.0112 54.8261 92.8391 54.8845L91.7892 55.2394L83.8149 57.9404C83.7296 57.9692 83.6507 58.0146 83.583 58.0739C83.5152 58.1333 83.4598 58.2054 83.42 58.2862C83.3802 58.367 83.3568 58.4549 83.351 58.5448C83.3453 58.6347 83.3573 58.7249 83.3865 58.8101L83.8535 60.1891C83.8823 60.2745 83.9277 60.3533 83.987 60.4211C84.0463 60.489 84.1184 60.5445 84.1992 60.5844C84.28 60.6244 84.3678 60.648 84.4577 60.654C84.5476 60.66 84.6379 60.6482 84.7232 60.6193L84.9347 60.5476L93.7455 57.5635Z" fill="#562710"/>
<path d="M94.2155 62.0901L94.9859 61.829C95.0713 61.8002 95.1501 61.7549 95.218 61.6955C95.2858 61.6362 95.3413 61.5641 95.3812 61.4834C95.4212 61.4026 95.4448 61.3147 95.4508 61.2248C95.4568 61.1349 95.445 61.0447 95.4161 60.9593L94.9491 59.5785C94.8905 59.4064 94.766 59.2646 94.6029 59.1843C94.4399 59.104 94.2516 59.0917 94.0794 59.1501L85.4819 62.0644L85.4947 62.0938L85.4469 62.1104C85.3615 62.1392 85.2827 62.1845 85.2149 62.2439C85.147 62.3032 85.0915 62.3753 85.0516 62.456C85.0116 62.5368 84.988 62.6247 84.982 62.7146C84.976 62.8045 84.9878 62.8947 85.0167 62.98L85.4837 64.359C85.5423 64.5316 85.667 64.6738 85.8304 64.7545C85.9938 64.8352 86.1826 64.8477 86.3552 64.7893L94.232 62.1214L94.2155 62.0901Z" fill="#562710"/>
<path d="M88.2892 69.0621V69.0768L96.337 66.3483C96.4224 66.3194 96.5012 66.2741 96.5691 66.2148C96.6369 66.1554 96.6924 66.0833 96.7324 66.0026C96.7723 65.9218 96.796 65.834 96.802 65.744C96.8079 65.6541 96.7962 65.5639 96.7673 65.4786L96.2984 64.0996C96.2696 64.0142 96.2242 63.9354 96.1649 63.8676C96.1055 63.7999 96.0334 63.7445 95.9526 63.7047C95.8718 63.6649 95.7839 63.6414 95.694 63.6357C95.6041 63.6299 95.5139 63.642 95.4287 63.6712L94.9029 63.855V63.8385L87.1989 66.4512C87.1135 66.48 87.0346 66.5254 86.9668 66.5847C86.899 66.644 86.8435 66.7161 86.8035 66.7969C86.7636 66.8777 86.7399 66.9655 86.7339 67.0554C86.7279 67.1453 86.7397 67.2356 86.7686 67.3209L87.2448 68.6944C87.2736 68.7797 87.319 68.8586 87.3784 68.9263C87.4377 68.9941 87.5099 69.0495 87.5907 69.0893C87.6715 69.1291 87.7594 69.1525 87.8493 69.1583C87.9392 69.164 88.0293 69.152 88.1145 69.1228L88.2892 69.0621Z" fill="#562710"/>
<path d="M89.6943 73.5781V73.5928L97.6961 70.8808C97.7815 70.852 97.8603 70.8066 97.9282 70.7473C97.996 70.688 98.0515 70.6159 98.0914 70.5351C98.1314 70.4543 98.155 70.3665 98.161 70.2766C98.167 70.1867 98.1552 70.0965 98.1263 70.0111L97.6593 68.6321C97.6305 68.5467 97.5851 68.4679 97.5258 68.4C97.4665 68.3322 97.3944 68.2767 97.3136 68.2368C97.2329 68.1968 97.145 68.1732 97.0551 68.1672C96.9652 68.1612 96.875 68.173 96.7896 68.2019L96.5598 68.2809V68.2644L88.5561 70.9764C88.4708 71.0052 88.3919 71.0506 88.3242 71.1099C88.2564 71.1693 88.201 71.2414 88.1612 71.3222C88.1214 71.403 88.098 71.4909 88.0922 71.5808C88.0865 71.6707 88.0985 71.7609 88.1277 71.8461L88.5947 73.2269C88.6533 73.399 88.7778 73.5408 88.9409 73.6211C89.104 73.7015 89.2923 73.7138 89.4644 73.6553L89.6943 73.5781Z" fill="#562710"/>
<path d="M91.3489 78.0021V78.0187L99.0547 75.4059C99.14 75.3773 99.2188 75.3321 99.2866 75.273C99.3544 75.2139 99.4099 75.1419 99.4499 75.0613C99.4899 74.9807 99.5135 74.893 99.5195 74.8032C99.5255 74.7134 99.5138 74.6233 99.4849 74.5381L99.0179 73.1573C98.9589 72.985 98.8341 72.8432 98.6707 72.7629C98.5073 72.6826 98.3188 72.6704 98.1464 72.7288L97.9625 72.7914V72.7748L89.9147 75.4979C89.8293 75.5267 89.7505 75.5721 89.6826 75.6314C89.6148 75.6907 89.5593 75.7628 89.5194 75.8436C89.4794 75.9243 89.4557 76.0122 89.4498 76.1021C89.4438 76.192 89.4556 76.2822 89.4845 76.3676L89.9515 77.7466C89.9805 77.832 90.026 77.9108 90.0856 77.9786C90.1451 78.0464 90.2174 78.1018 90.2983 78.1416C90.3793 78.1814 90.4673 78.2048 90.5573 78.2105C90.6474 78.2163 90.7376 78.2042 90.823 78.175L91.3489 78.0021Z" fill="#562710"/>
<path d="M100.777 79.7927L100.764 79.7632L100.812 79.7467C100.898 79.7179 100.977 79.6725 101.044 79.6132C101.112 79.5539 101.168 79.4818 101.208 79.401C101.248 79.3202 101.271 79.2324 101.277 79.1425C101.283 79.0526 101.271 78.9624 101.243 78.877L100.774 77.498C100.745 77.4127 100.699 77.3338 100.64 77.2661C100.581 77.1983 100.509 77.1429 100.428 77.1031C100.347 77.0633 100.259 77.0399 100.169 77.0341C100.079 77.0284 99.9892 77.0404 99.904 77.0696L92.0253 79.7357L92.0364 79.7669L91.2641 80.028C91.1788 80.0568 91.1 80.1022 91.0322 80.1615C90.9644 80.2209 90.909 80.293 90.8692 80.3738C90.8294 80.4547 90.806 80.5425 90.8002 80.6324C90.7945 80.7223 90.8065 80.8125 90.8357 80.8977L91.3027 82.2785C91.3613 82.4506 91.4858 82.5924 91.6489 82.6727C91.812 82.7531 92.0003 82.7654 92.1724 82.7069L100.777 79.7927Z" fill="#562710"/>
<path d="M75.8584 48.4381C77.0535 48.2873 79.0209 48.0979 79.9034 48.3443C81.8009 48.8738 83.4888 50.8283 84.6104 52.165C84.7283 52.3013 84.8837 52.4 85.0573 52.4487C85.2308 52.4974 85.4148 52.494 85.5865 52.4389C85.7581 52.3839 85.9098 52.2796 86.0226 52.139C86.1354 51.9985 86.2045 51.8278 86.2211 51.6484C86.3535 49.6957 83.1799 47.1289 81.7274 46.3162C81.0618 45.9485 80.2381 45.9301 79.6828 45.9779" fill="#562710"/>
<path d="M81.834 45.0641C82.7239 45.1376 83.6065 45.2663 84.1047 45.4851C85.9434 46.2923 87.4474 48.473 88.4403 49.9623C88.8816 50.626 89.9553 50.5433 90.0951 49.692C90.4113 47.7835 87.4897 44.7736 86.1144 43.7605C85.9954 43.6729 85.8693 43.5954 85.7375 43.5288" fill="#562710"/>
<path d="M86.5742 43.3763C87.144 43.4242 87.7048 43.5479 88.2419 43.744C90.0805 44.5512 91.5827 46.7337 92.5756 48.2211C93.0169 48.8849 94.0925 48.8021 94.2304 47.9508C94.5117 46.2519 92.2281 43.6796 90.7535 42.422" fill="#562710"/>
<path d="M92.5479 42.137C92.6681 42.1701 92.7861 42.2113 92.9009 42.2602C94.7395 43.0673 96.2417 45.2498 97.2346 46.7373C97.6777 47.401 98.7515 47.3201 98.8894 46.4688C99.0861 45.2792 98.0289 43.6649 96.8669 42.3705" fill="#562710"/>
<path d="M98.1812 98.2361C98.7879 97.0722 100.031 94.6213 100.388 93.3673C100.792 91.9552 100.798 89.3793 100.527 88.0113C100.456 87.6546 100.134 86.7243 99.3965 86.9283C98.3981 87.2133 98.5985 88.3092 98.5985 88.3092C98.5985 88.3092 98.9111 91.7309 98.6574 92.8194C98.3448 94.1671 96.6551 97.2432 95.7891 98.7656" fill="#562710"/>
<path d="M105.972 86.5756C105.9 86.2189 105.57 85.2885 104.792 85.5018C103.736 85.796 103.937 86.89 103.937 86.89C103.937 86.89 104.236 90.3154 103.961 91.4076C103.613 92.781 101.754 95.9601 100.835 97.4641L103.61 96.6882C104.27 95.4967 105.387 93.18 105.77 91.9408C106.217 90.5232 106.244 87.9417 105.972 86.5756Z" fill="#562710"/>
<path d="M109.208 94.3384C109.796 93.0403 110.607 91.152 110.863 90.1095C111.203 88.6809 111.091 86.1068 110.758 84.7535C110.671 84.4005 110.307 83.4793 109.581 83.7239C108.596 84.053 108.846 85.1378 108.846 85.1378C108.846 85.1378 109.314 88.543 109.11 89.6407C108.864 90.9719 107.38 94.013 106.569 95.6053" fill="#562710"/>
<path d="M114.694 90.8007C115 90.0834 115.256 89.3462 115.461 88.5943C115.8 87.1638 115.689 84.5897 115.356 83.2364C115.27 82.8834 114.906 81.9641 114.178 82.2068C113.192 82.5377 113.442 83.6225 113.442 83.6225C113.442 83.6225 113.911 87.0259 113.709 88.1254C113.525 89.1422 112.606 91.1592 111.826 92.7643" fill="#562710"/>
<path d="M87.8229 99.4002C86.6884 91.7385 86.6351 70.8201 86.6351 70.8201C86.6351 69.5017 85.519 68.4298 84.1437 68.4298C82.7684 68.4298 81.6523 69.4999 81.6523 70.8201C81.6523 70.8201 81.8233 88.2285 82.1083 96.2598C82.1617 97.7307 83.0663 100.104 86.2692 101.917C87.8523 102.815 91.1141 102.989 91.1141 102.989C91.1141 102.989 88.0969 101.239 87.8229 99.4002Z" fill="#562710"/>
</g>
<defs>
<filter id="filter0_d_1_2873" x="0.5" y="0.5" width="210.23" height="211.23" filterUnits="userSpaceOnUse" color-interpolation-filters="sRGB">
<feFlood flood-opacity="0" result="BackgroundImageFix"/>
<feColorMatrix in="SourceAlpha" type="matrix" values="0 0 0 0 0 0 0 0 0 0 0 0 0 0 0 0 0 0 127 0" result="hardAlpha"/>
<feOffset dx="7" dy="8"/>
<feGaussianBlur stdDeviation="2"/>
<feComposite in2="hardAlpha" operator="out"/>
<feColorMatrix type="matrix" values="0 0 0 0 0 0 0 0 0 0 0 0 0 0 0 0 0 0 0.25 0"/>
<feBlend mode="normal" in2="BackgroundImageFix" result="effect1_dropShadow_1_2873"/>
<feBlend mode="normal" in="SourceGraphic" in2="effect1_dropShadow_1_2873" result="shape"/>
</filter>
<linearGradient id="paint0_linear_1_2873" x1="100.116" y1="193.748" x2="100.116" y2="6.48402" gradientUnits="userSpaceOnUse">
<stop stop-color="#7F542C"/>
<stop offset="0.16" stop-color="#84592D"/>
<stop offset="0.35" stop-color="#926632"/>
<stop offset="0.55" stop-color="#A97D39"/>
<stop offset="0.76" stop-color="#C99C43"/>
<stop offset="0.98" stop-color="#F2C450"/>
<stop offset="1" stop-color="#F7C951"/>
</linearGradient>
<linearGradient id="paint1_linear_1_2873" x1="71.2881" y1="141.617" x2="122.568" y2="141.617" gradientUnits="userSpaceOnUse">
<stop stop-color="#F7C951"/>
<stop offset="0.46" stop-color="#B88C3E"/>
<stop offset="0.82" stop-color="#8F6331"/>
<stop offset="1" stop-color="#7F542C"/>
</linearGradient>
<linearGradient id="paint2_linear_1_2873" x1="69.3145" y1="70.7649" x2="117.59" y2="70.7649" gradientUnits="userSpaceOnUse">
<stop stop-color="#F7C951"/>
<stop offset="0.46" stop-color="#B88C3E"/>
<stop offset="0.82" stop-color="#8F6331"/>
<stop offset="1" stop-color="#7F542C"/>
</linearGradient>
<linearGradient id="paint3_linear_1_2873" x1="61.6378" y1="72.1865" x2="107.325" y2="72.1865" gradientUnits="userSpaceOnUse">
<stop stop-color="#F7C951"/>
<stop offset="0.46" stop-color="#B88C3E"/>
<stop offset="0.82" stop-color="#8F6331"/>
<stop offset="1" stop-color="#7F542C"/>
</linearGradient>
</defs>
</svg>
