<svg width="211" height="212" viewBox="0 0 211 212" fill="none" xmlns="http://www.w3.org/2000/svg">
<g filter="url(#filter0_d_1_3159)">
<path d="M188.23 12H12V188.23H188.23V12Z" stroke="url(#paint0_linear_1_3159)" stroke-width="23" stroke-miterlimit="10"/>
<path d="M49.6211 86.0573C49.6209 85.6137 49.7081 85.1744 49.8777 84.7645C50.0474 84.3546 50.2962 83.9821 50.6098 83.6684C50.9235 83.3547 51.296 83.106 51.7059 82.9363C52.1158 82.7666 52.5551 82.6794 52.9987 82.6797H148.962C149.857 82.6811 150.715 83.0377 151.347 83.6709C151.979 84.3042 152.334 85.1625 152.334 86.0573V151.628C152.334 152.523 151.979 153.382 151.346 154.015C150.712 154.649 149.854 155.005 148.958 155.005H52.9987C52.5551 155.005 52.1158 154.918 51.7059 154.749C51.296 154.579 50.9235 154.33 50.6098 154.016C50.2962 153.703 50.0474 153.33 49.8777 152.92C49.7081 152.511 49.6209 152.071 49.6211 151.628V86.0573Z" fill="url(#paint1_linear_1_3159)"/>
<path d="M138.224 140.932H61.5146V142.006H138.224V140.932Z" fill="#562710"/>
<path d="M118.534 142.006H117.456V150.591H118.534V142.006Z" fill="#562710"/>
<path d="M82.2828 142.006H81.209V150.591H82.2828V142.006Z" fill="#562710"/>
<path d="M80.9336 114.483C80.9336 118.279 82.0594 121.991 84.1686 125.147C86.2779 128.304 89.2758 130.764 92.7834 132.217C96.2909 133.67 100.15 134.05 103.874 133.309C107.598 132.569 111.018 130.741 113.703 128.056C116.387 125.372 118.215 121.951 118.956 118.228C119.697 114.504 119.316 110.644 117.864 107.137C116.411 103.629 113.95 100.631 110.794 98.5222C107.637 96.4129 103.926 95.2871 100.129 95.2871C95.04 95.2929 90.1609 97.3172 86.5623 100.916C82.9637 104.514 80.9394 109.394 80.9336 114.483ZM82.8605 114.483C82.8601 111.067 83.8726 107.728 85.7699 104.888C87.6672 102.048 90.3641 99.8345 93.5195 98.5272C96.6749 97.2199 100.147 96.8777 103.497 97.5438C106.847 98.2099 109.924 99.8544 112.339 102.269C114.755 104.684 116.399 107.761 117.066 111.111C117.732 114.461 117.391 117.933 116.084 121.089C114.777 124.244 112.563 126.942 109.723 128.839C106.883 130.737 103.545 131.75 100.129 131.75C95.5508 131.746 91.1609 129.925 87.9233 126.688C84.6857 123.451 82.8649 119.061 82.8605 114.483Z" fill="#562710"/>
<path d="M93.5627 103.864C93.3144 104.008 93.171 104.354 93.1729 104.808V124.16C93.1729 124.614 93.3144 124.956 93.5627 125.099C93.8109 125.243 94.1823 125.195 94.5739 124.965L101.02 121.247L111.331 115.292C111.727 115.066 111.953 114.77 111.953 114.481C111.953 114.192 111.727 113.9 111.331 113.672L94.5758 103.997C94.1823 103.769 93.8109 103.721 93.5627 103.864Z" fill="#562710"/>
<path d="M139.395 41.0671L154.048 52.5238L154.064 52.6305L140.984 54.9306L126.218 43.3839L139.395 41.0671Z" fill="url(#paint2_linear_1_3159)"/>
<path d="M85.0742 50.6226L99.8368 62.1693L86.6609 64.486L71.8965 52.9374L85.0742 50.6226Z" fill="url(#paint3_linear_1_3159)"/>
<path d="M57.9091 55.4014L72.6754 66.9463L59.4996 69.2649L44.7314 57.7181L57.9091 55.4014Z" fill="url(#paint4_linear_1_3159)"/>
<path d="M112.231 45.8438L126.999 57.3905L113.821 59.7072L99.0566 48.1623L112.231 45.8438Z" fill="url(#paint5_linear_1_3159)"/>
<path d="M151.65 38.9106L154.048 52.5241L139.396 41.0674L151.65 38.9106Z" fill="#562710"/>
<path d="M126.217 43.3838L140.983 54.9306L126.999 57.3907L112.23 45.8439L126.217 43.3838Z" fill="#562710"/>
<path d="M99.0572 48.1626L113.822 59.7075L99.8368 62.1695L85.0742 50.6227L99.0572 48.1626Z" fill="#562710"/>
<path d="M71.8959 52.9375L86.6603 64.4861L72.6755 66.9462L57.9092 55.4013L71.8959 52.9375Z" fill="#562710"/>
<path d="M44.627 57.7365L44.7318 57.7181L59.4999 69.2649L47.0448 71.4565L44.627 57.7365Z" fill="#562710"/>
<path d="M59.3845 71.4639L46.9404 85.2869V85.3954H60.2211L72.7607 71.4639H59.3845Z" fill="url(#paint6_linear_1_3159)"/>
<path d="M114.544 71.4639L101.997 85.3954H115.377L127.922 71.4639H114.544Z" fill="url(#paint7_linear_1_3159)"/>
<path d="M142.119 71.4639L129.579 85.3954H142.957L155.499 71.4639H142.119Z" fill="url(#paint8_linear_1_3159)"/>
<path d="M86.9642 71.4639L74.4209 85.3954H87.799L100.34 71.4639H86.9642Z" fill="url(#paint9_linear_1_3159)"/>
<path d="M72.7604 71.4639L60.2207 85.3954H74.4207L86.964 71.4639H72.7604Z" fill="#562710"/>
<path d="M100.34 71.4639L87.7988 85.3954H101.997L114.544 71.4639H100.34Z" fill="#562710"/>
<path d="M127.922 71.4639L115.377 85.3954H129.579L142.118 71.4639H127.922Z" fill="#562710"/>
<path d="M155.605 71.4639H155.499L142.957 85.3954H155.605V71.4639Z" fill="#562710"/>
<path d="M53.2742 55.8334L49.9812 56.0577C47.1497 56.2416 44.8477 58.9315 44.8477 62.0315V80.4494C44.8477 83.6376 47.2177 86.232 50.1393 86.232H66.9906C69.9086 86.232 72.2841 83.6376 72.2841 80.4494V78.7265C72.2841 76.4871 71.442 73.3779 70.326 71.4969L70.2028 71.2928L59.6176 59.1025L59.8916 59.4813C58.5622 57.2326 55.716 55.6661 53.2742 55.8334Z" fill="url(#paint10_linear_1_3159)"/>
<path d="M50.1322 58.6852C48.5509 58.7937 47.251 60.3014 47.251 62.0352V80.4494C47.251 82.1851 48.5527 83.6046 50.1395 83.6046H66.9908C68.5794 83.6046 69.8775 82.1851 69.8775 80.4494V78.7266C69.8775 76.9927 69.1696 74.3818 68.3055 72.9275L57.8748 60.9118C57.0087 59.4538 55.0083 58.3542 53.4234 58.4609L50.1322 58.6852Z" fill="#562710"/>
<path d="M54.5171 63.4326C54.5171 64.5872 53.6566 65.5268 52.5975 65.5268C51.5385 65.5268 50.6816 64.5872 50.6816 63.4326C50.6816 62.2779 51.5385 61.3365 52.5975 61.3365C53.6566 61.3365 54.5171 62.2742 54.5171 63.4326Z" fill="url(#paint11_linear_1_3159)"/>
<path d="M54.5171 79.1936C54.5171 80.3538 53.6566 81.2897 52.5975 81.2897C51.5385 81.2897 50.6816 80.3538 50.6816 79.1936C50.6816 78.0334 51.5385 77.1012 52.5975 77.1012C53.6566 77.1012 54.5171 78.0371 54.5171 79.1936Z" fill="url(#paint12_linear_1_3159)"/>
<path d="M67.2485 79.1935C67.2485 80.3537 66.388 81.2895 65.3326 81.2895C64.2773 81.2895 63.4131 80.3537 63.4131 79.1935C63.4131 78.0333 64.2717 77.1011 65.3326 77.1011C66.3936 77.1011 67.2485 78.037 67.2485 79.1935Z" fill="url(#paint13_linear_1_3159)"/>
<path d="M136.911 88.4199H61.5146V89.1021H136.911V88.4199Z" fill="#562710"/>
<path d="M53.3074 63.0833C53.3074 63.6643 52.8937 64.135 52.3881 64.135C51.8824 64.135 51.4688 63.6643 51.4688 63.0833C51.4688 62.5023 51.8824 62.0316 52.3881 62.0316C52.8937 62.0316 53.3074 62.5023 53.3074 63.0833Z" fill="#562710"/>
<path d="M53.1158 78.8311C53.1158 79.3166 52.7738 79.7082 52.3528 79.7082C51.9317 79.7082 51.5879 79.3166 51.5879 78.8311C51.5879 78.3457 51.9299 77.9541 52.3528 77.9541C52.7757 77.9541 53.1158 78.3476 53.1158 78.8311Z" fill="#562710"/>
<path d="M65.9376 78.7999C65.9376 78.9719 65.8866 79.14 65.7911 79.283C65.6955 79.426 65.5597 79.5375 65.4007 79.6033C65.2418 79.6692 65.067 79.6864 64.8983 79.6528C64.7296 79.6193 64.5746 79.5365 64.453 79.4148C64.3313 79.2932 64.2485 79.1382 64.215 78.9695C64.1814 78.8008 64.1986 78.626 64.2644 78.467C64.3303 78.3081 64.4417 78.1723 64.5848 78.0767C64.7278 77.9812 64.8959 77.9302 65.0679 77.9302C65.1822 77.9299 65.2954 77.9523 65.401 77.9959C65.5067 78.0395 65.6026 78.1036 65.6834 78.1844C65.7642 78.2652 65.8283 78.3611 65.8719 78.4668C65.9155 78.5724 65.9379 78.6856 65.9376 78.7999Z" fill="#562710"/>
</g>
<defs>
<filter id="filter0_d_1_3159" x="0.5" y="0.5" width="210.23" height="211.23" filterUnits="userSpaceOnUse" color-interpolation-filters="sRGB">
<feFlood flood-opacity="0" result="BackgroundImageFix"/>
<feColorMatrix in="SourceAlpha" type="matrix" values="0 0 0 0 0 0 0 0 0 0 0 0 0 0 0 0 0 0 127 0" result="hardAlpha"/>
<feOffset dx="7" dy="8"/>
<feGaussianBlur stdDeviation="2"/>
<feComposite in2="hardAlpha" operator="out"/>
<feColorMatrix type="matrix" values="0 0 0 0 0 0 0 0 0 0 0 0 0 0 0 0 0 0 0.25 0"/>
<feBlend mode="normal" in2="BackgroundImageFix" result="effect1_dropShadow_1_3159"/>
<feBlend mode="normal" in="SourceGraphic" in2="effect1_dropShadow_1_3159" result="shape"/>
</filter>
<linearGradient id="paint0_linear_1_3159" x1="100.116" y1="193.748" x2="100.116" y2="6.48402" gradientUnits="userSpaceOnUse">
<stop stop-color="#7F542C"/>
<stop offset="0.16" stop-color="#84592D"/>
<stop offset="0.35" stop-color="#926632"/>
<stop offset="0.55" stop-color="#A97D39"/>
<stop offset="0.76" stop-color="#C99C43"/>
<stop offset="0.98" stop-color="#F2C450"/>
<stop offset="1" stop-color="#F7C951"/>
</linearGradient>
<linearGradient id="paint1_linear_1_3159" x1="49.6211" y1="118.842" x2="152.338" y2="118.842" gradientUnits="userSpaceOnUse">
<stop stop-color="#F7C951"/>
<stop offset="0.46" stop-color="#B88C3E"/>
<stop offset="0.82" stop-color="#8F6331"/>
<stop offset="1" stop-color="#7F542C"/>
</linearGradient>
<linearGradient id="paint2_linear_1_3159" x1="126.218" y1="47.9989" x2="154.064" y2="47.9989" gradientUnits="userSpaceOnUse">
<stop stop-color="#F7C951"/>
<stop offset="0.46" stop-color="#B88C3E"/>
<stop offset="0.82" stop-color="#8F6331"/>
<stop offset="1" stop-color="#7F542C"/>
</linearGradient>
<linearGradient id="paint3_linear_1_3159" x1="71.8965" y1="57.5543" x2="99.8368" y2="57.5543" gradientUnits="userSpaceOnUse">
<stop stop-color="#F7C951"/>
<stop offset="0.46" stop-color="#B88C3E"/>
<stop offset="0.82" stop-color="#8F6331"/>
<stop offset="1" stop-color="#7F542C"/>
</linearGradient>
<linearGradient id="paint4_linear_1_3159" x1="44.7314" y1="62.3331" x2="72.6754" y2="62.3331" gradientUnits="userSpaceOnUse">
<stop stop-color="#F7C951"/>
<stop offset="0.46" stop-color="#B88C3E"/>
<stop offset="0.82" stop-color="#8F6331"/>
<stop offset="1" stop-color="#7F542C"/>
</linearGradient>
<linearGradient id="paint5_linear_1_3159" x1="99.0566" y1="52.7755" x2="126.999" y2="52.7755" gradientUnits="userSpaceOnUse">
<stop stop-color="#F7C951"/>
<stop offset="0.46" stop-color="#B88C3E"/>
<stop offset="0.82" stop-color="#8F6331"/>
<stop offset="1" stop-color="#7F542C"/>
</linearGradient>
<linearGradient id="paint6_linear_1_3159" x1="46.9404" y1="78.4305" x2="72.7607" y2="78.4305" gradientUnits="userSpaceOnUse">
<stop stop-color="#F7C951"/>
<stop offset="0.46" stop-color="#B88C3E"/>
<stop offset="0.82" stop-color="#8F6331"/>
<stop offset="1" stop-color="#7F542C"/>
</linearGradient>
<linearGradient id="paint7_linear_1_3159" x1="101.997" y1="78.4305" x2="127.922" y2="78.4305" gradientUnits="userSpaceOnUse">
<stop stop-color="#F7C951"/>
<stop offset="0.46" stop-color="#B88C3E"/>
<stop offset="0.82" stop-color="#8F6331"/>
<stop offset="1" stop-color="#7F542C"/>
</linearGradient>
<linearGradient id="paint8_linear_1_3159" x1="129.579" y1="78.4305" x2="155.499" y2="78.4305" gradientUnits="userSpaceOnUse">
<stop stop-color="#F7C951"/>
<stop offset="0.46" stop-color="#B88C3E"/>
<stop offset="0.82" stop-color="#8F6331"/>
<stop offset="1" stop-color="#7F542C"/>
</linearGradient>
<linearGradient id="paint9_linear_1_3159" x1="74.4191" y1="78.4305" x2="100.34" y2="78.4305" gradientUnits="userSpaceOnUse">
<stop stop-color="#F7C951"/>
<stop offset="0.46" stop-color="#B88C3E"/>
<stop offset="0.82" stop-color="#8F6331"/>
<stop offset="1" stop-color="#7F542C"/>
</linearGradient>
<linearGradient id="paint10_linear_1_3159" x1="44.8477" y1="71.0262" x2="72.2841" y2="71.0262" gradientUnits="userSpaceOnUse">
<stop stop-color="#7F542C"/>
<stop offset="0.18" stop-color="#8F6331"/>
<stop offset="0.54" stop-color="#B88C3E"/>
<stop offset="1" stop-color="#F7C951"/>
</linearGradient>
<linearGradient id="paint11_linear_1_3159" x1="50.6853" y1="63.4307" x2="54.5208" y2="63.4307" gradientUnits="userSpaceOnUse">
<stop stop-color="#F7C951"/>
<stop offset="1" stop-color="#7F542C"/>
</linearGradient>
<linearGradient id="paint12_linear_1_3159" x1="50.6853" y1="79.1954" x2="54.5208" y2="79.1954" gradientUnits="userSpaceOnUse">
<stop stop-color="#F7C951"/>
<stop offset="1" stop-color="#7F542C"/>
</linearGradient>
<linearGradient id="paint13_linear_1_3159" x1="63.4131" y1="79.1953" x2="67.2485" y2="79.1953" gradientUnits="userSpaceOnUse">
<stop stop-color="#F7C951"/>
<stop offset="1" stop-color="#7F542C"/>
</linearGradient>
</defs>
</svg>
