<svg width="211" height="212" viewBox="0 0 211 212" fill="none" xmlns="http://www.w3.org/2000/svg">
<g filter="url(#filter0_d_1_3043)">
<path d="M188.23 12H12V188.23H188.23V12Z" stroke="url(#paint0_linear_1_3043)" stroke-width="23" stroke-miterlimit="10"/>
<path d="M144.429 68.0472L158.762 115.681C159.193 117.131 159.035 118.692 158.321 120.025C157.607 121.357 156.396 122.353 154.952 122.794L65.6677 149.761C64.2214 150.193 62.6631 150.035 61.3333 149.32C60.0034 148.605 59.0101 147.391 58.5702 145.945L44.238 98.3149C43.8069 96.8655 43.9657 95.3041 44.6797 93.9716C45.3936 92.6391 46.6048 91.6437 48.0487 91.2027L137.332 64.2396C138.777 63.807 140.334 63.9645 141.664 64.6778C142.994 65.3911 143.988 66.6023 144.429 68.0472Z" fill="#562710"/>
<path d="M144.111 68.0539L147 77.6911L47.1222 108L44.2372 98.3716C43.8075 96.9198 43.9658 95.3558 44.6775 94.0211C45.3892 92.6864 46.5965 91.6894 48.0359 91.2476L137.036 64.24C138.476 63.8066 140.029 63.9644 141.354 64.6789C142.679 65.3934 143.67 66.6066 144.111 68.0539Z" fill="url(#paint1_linear_1_3043)"/>
<path d="M158.163 114L158.762 115.972C159.193 117.409 159.035 118.957 158.321 120.279C157.608 121.6 156.397 122.588 154.953 123.025L65.6924 149.763C64.2465 150.192 62.6886 150.034 61.3591 149.325C60.0296 148.616 59.0365 147.413 58.5968 145.979L58 144.005L158.163 114Z" fill="url(#paint2_linear_1_3043)"/>
<path d="M113.63 72.4115C114.441 73.7612 113.873 75.2357 112.371 75.6905L75.3447 86.8833C73.8413 87.3381 72.5573 86.4226 72.4885 84.8484L72.003 73.5984C71.9328 72.0256 73.1086 70.3707 74.6106 69.9115L103.633 61.135C105.137 60.6802 107.029 61.4123 107.838 62.7606L113.63 72.4115Z" fill="#562710"/>
<g style="mix-blend-mode:multiply" opacity="0.3">
<path d="M71.9914 84L73 99.6504L67.938 101L67 85.3297L71.9914 84Z" fill="#433E72"/>
</g>
<g style="mix-blend-mode:multiply" opacity="0.3">
<path d="M113 71.4311L120.661 86L125 84.5475L117.277 70L113 71.4311Z" fill="#433E72"/>
</g>
<path d="M96.6451 68.0892C97.1769 67.9272 97.7497 67.9874 98.2385 68.2567C98.7273 68.5259 99.0925 68.9824 99.2547 69.5266L100.912 75.1667C101.071 75.712 101.013 76.2996 100.75 76.8009C100.487 77.3022 100.042 77.6765 99.5109 77.8418L86.3488 81.9122C85.8175 82.0727 85.2459 82.0116 84.7583 81.7421C84.2707 81.4726 83.9066 81.0166 83.745 80.4733L82.0873 74.8317C81.929 74.2862 81.9875 73.6986 82.2501 73.1971C82.5126 72.6957 82.9579 72.3211 83.4888 72.1551L96.6451 68.0892Z" fill="url(#paint3_linear_1_3043)"/>
<path d="M100.237 78.0276L86.876 81.8994C86.2466 82.0809 85.5681 82.0151 84.9891 81.7165C84.4101 81.4179 83.9779 80.9108 83.7873 80.3064L82.1047 74.9416C81.9159 74.3367 81.9843 73.6845 82.295 73.1279C82.6057 72.5714 83.1332 72.156 83.762 71.9728L97.1246 68.101C97.754 67.9191 98.4327 67.9847 99.0118 68.2834C99.5909 68.582 100.023 69.0894 100.213 69.694L101.896 75.0616C102.084 75.6664 102.015 76.3182 101.704 76.8742C101.393 77.4301 100.866 77.8449 100.237 78.0276ZM83.9671 72.6242C83.7442 72.6884 83.5366 72.7941 83.3562 72.9354C83.1758 73.0767 83.0261 73.2507 82.9157 73.4476C82.8053 73.6445 82.7363 73.8603 82.7126 74.0829C82.689 74.3054 82.7112 74.5302 82.778 74.7444L84.4606 80.1106C84.5957 80.5435 84.9041 80.9071 85.318 81.1214C85.732 81.3357 86.2175 81.3833 86.6679 81.2536L100.029 77.3833C100.479 77.2531 100.857 76.9566 101.08 76.5588C101.303 76.161 101.353 75.6945 101.218 75.2616L99.5355 69.8968C99.4004 69.464 99.092 69.1004 98.6781 68.8861C98.2642 68.6718 97.7786 68.6242 97.3282 68.7539L83.9671 72.6242Z" fill="url(#paint4_linear_1_3043)"/>
<path d="M92.9509 71.711L89.7683 78.7467C89.7166 78.8591 89.6295 78.9428 89.5261 78.9795C89.4227 79.0163 89.3112 79.0032 89.2159 78.9431C89.1685 78.9135 89.1266 78.873 89.0925 78.824C89.0584 78.775 89.0329 78.7184 89.0174 78.6576C89.0019 78.5969 88.9967 78.533 89.0021 78.4698C89.0075 78.4067 89.0234 78.3454 89.049 78.2896L92.2329 71.2538C92.2843 71.1409 92.3715 71.0569 92.4753 71.0202C92.579 70.9835 92.6907 70.9972 92.786 71.0582C92.8812 71.1192 92.952 71.2226 92.983 71.3456C93.0139 71.4686 93.0024 71.6012 92.9509 71.7141V71.711Z" fill="#562710"/>
<path d="M94.9509 72.6241L91.764 78.787C91.7108 78.8829 91.6237 78.9535 91.5212 78.9838C91.4186 79.0141 91.3087 79.0016 91.2149 78.9491C91.1211 78.8965 91.0507 78.8081 91.0188 78.7025C90.9868 78.5969 90.9959 78.4826 91.044 78.3838L94.2322 72.2223C94.2577 72.1734 94.2922 72.1301 94.3339 72.095C94.3755 72.0599 94.4234 72.0336 94.4748 72.0177C94.5262 72.0018 94.5801 71.9965 94.6335 72.0022C94.6868 72.008 94.7386 72.0245 94.7858 72.051C94.8329 72.0775 94.8746 72.1133 94.9085 72.1565C94.9423 72.1997 94.9676 72.2494 94.983 72.3028C94.9983 72.3561 95.0033 72.4121 94.9978 72.4674C94.9923 72.5228 94.9764 72.5765 94.9509 72.6255V72.6241Z" fill="#562710"/>
<g style="mix-blend-mode:multiply" opacity="0.3">
<path d="M54.6205 105.548L46.6782 107.943L57.5367 143.953L65.479 141.558L54.6205 105.548Z" fill="#433E72"/>
</g>
<g style="mix-blend-mode:multiply" opacity="0.3">
<path d="M147 77.6963L139.059 80.0908L149.918 116.101L157.858 113.707L147 77.6963Z" fill="#433E72"/>
</g>
<path d="M60.5852 86.4102L61 87.7608L53.4427 90L53.0249 88.6479C53.0027 88.5755 52.9952 88.4995 53.0029 88.4243C53.0106 88.3491 53.0333 88.276 53.0697 88.2094C53.1062 88.1428 53.1556 88.0839 53.2152 88.036C53.2748 87.9882 53.3434 87.9523 53.4172 87.9306L59.8519 86.0249C59.9258 86.0029 60.0034 85.9953 60.0803 86.0028C60.1572 86.0102 60.2318 86.0324 60.2999 86.0682C60.368 86.104 60.4283 86.1526 60.4772 86.2113C60.5262 86.27 60.5629 86.3376 60.5852 86.4102Z" fill="#562710"/>
<path d="M130.27 63.3659L131 66.1736L125.75 68L125.018 65.1924C124.985 65.0603 124.998 64.9183 125.054 64.7971C125.111 64.676 125.206 64.5854 125.32 64.5451L129.715 63.0201C129.828 62.9827 129.949 62.9979 130.053 63.0625C130.157 63.1271 130.235 63.236 130.27 63.3659Z" fill="#562710"/>
<g style="mix-blend-mode:multiply" opacity="0.3">
<path d="M130 129.975L89.7956 142L81 113.056L121.314 101L130 129.975Z" fill="#433E72"/>
</g>
<path d="M121.108 100.944C122.306 104.92 122.297 109.163 121.084 113.135C119.87 117.107 117.506 120.63 114.291 123.259C111.075 125.887 107.153 127.504 103.019 127.903C98.8845 128.302 94.725 127.466 91.0659 125.502C87.4067 123.537 84.4123 120.531 82.4613 116.865C80.5103 113.198 79.6903 109.036 80.1049 104.903C80.5196 100.771 82.1503 96.8539 84.7909 93.6481C87.4315 90.4424 90.9634 88.0916 94.9399 86.8931C97.5807 86.0973 100.352 85.8295 103.097 86.105C105.841 86.3805 108.504 87.1938 110.934 88.4985C113.364 89.8032 115.513 91.5738 117.259 93.7091C119.004 95.8445 120.312 98.3027 121.108 100.944Z" fill="url(#paint5_linear_1_3043)"/>
<path d="M115.363 102.675C116.218 105.515 116.212 108.546 115.345 111.383C114.479 114.22 112.79 116.736 110.493 118.614C108.196 120.491 105.394 121.645 102.442 121.931C99.4887 122.216 96.5176 121.619 93.9039 120.215C91.2903 118.812 89.1515 116.665 87.758 114.046C86.3644 111.427 85.7788 108.454 86.075 105.502C86.3712 102.551 87.536 99.7531 89.4222 97.4633C91.3083 95.1736 93.8311 93.4945 96.6715 92.6385C98.5578 92.0698 100.538 91.8783 102.498 92.0749C104.458 92.2715 106.361 92.8524 108.096 93.7844C109.832 94.7164 111.367 95.9813 112.614 97.5067C113.861 99.0321 114.795 100.788 115.363 102.675Z" fill="#562710"/>
<path d="M109.617 104.404C110.131 106.108 110.127 107.926 109.608 109.628C109.088 111.331 108.075 112.841 106.697 113.967C105.319 115.094 103.638 115.787 101.866 115.958C100.095 116.13 98.3119 115.772 96.7436 114.93C95.1754 114.088 93.8919 112.8 93.0555 111.229C92.2191 109.658 91.8674 107.874 92.0448 106.103C92.2222 104.332 92.9208 102.653 94.0523 101.279C95.1837 99.905 96.6971 98.8973 98.4012 98.3834C99.533 98.042 100.721 97.927 101.897 98.0448C103.073 98.1627 104.215 98.511 105.256 99.0701C106.298 99.6291 107.219 100.388 107.967 101.303C108.716 102.218 109.276 103.272 109.617 104.404Z" fill="url(#paint6_linear_1_3043)"/>
<path d="M106.744 105.267C107.087 106.403 107.085 107.615 106.739 108.751C106.393 109.886 105.718 110.893 104.799 111.644C103.881 112.395 102.76 112.858 101.579 112.972C100.398 113.086 99.2091 112.848 98.1634 112.287C97.1177 111.726 96.2619 110.868 95.7041 109.82C95.1463 108.773 94.9117 107.583 95.0298 106.403C95.1479 105.222 95.6136 104.102 96.3678 103.186C97.122 102.27 98.131 101.598 99.2671 101.255C100.791 100.796 102.434 100.961 103.836 101.713C105.238 102.465 106.284 103.744 106.744 105.267Z" fill="#562710"/>
<g style="mix-blend-mode:multiply">
<path d="M103.873 106.135C104.044 106.703 104.042 107.309 103.869 107.877C103.696 108.444 103.358 108.947 102.899 109.323C102.439 109.698 101.879 109.929 101.288 109.986C100.698 110.043 100.103 109.924 99.5808 109.643C99.058 109.362 98.6303 108.933 98.3516 108.409C98.0729 107.886 97.9557 107.291 98.015 106.701C98.0743 106.11 98.3072 105.551 98.6845 105.093C99.0617 104.635 99.5663 104.299 100.134 104.128C100.512 104.014 100.908 103.976 101.3 104.015C101.692 104.054 102.072 104.17 102.42 104.357C102.767 104.543 103.074 104.796 103.323 105.101C103.572 105.407 103.759 105.758 103.873 106.135Z" fill="#6A9AA5"/>
</g>
<g style="mix-blend-mode:multiply" opacity="0.4">
<path d="M115.57 102.558C115.754 103.158 115.897 103.77 116 104.389C114.505 101.042 111.832 98.3517 108.482 96.8245C105.133 95.2974 101.339 95.038 97.8109 96.095C94.2831 97.1521 91.2647 99.4529 89.3225 102.566C87.3802 105.678 86.6477 109.388 87.2624 113C87.0038 112.428 86.7831 111.839 86.6016 111.238C85.4886 107.432 85.9316 103.344 87.8343 99.8615C89.737 96.3789 92.9455 93.7837 96.7625 92.64C100.579 91.4962 104.696 91.8964 108.218 93.7535C111.74 95.6107 114.382 98.7746 115.57 102.558Z" fill="#6A9AA5"/>
</g>
<path d="M106.248 124.192C103.987 124.896 101.61 125.143 99.253 124.921C96.8962 124.699 94.6066 124.011 92.5162 122.897C90.4259 121.783 88.5763 120.265 87.074 118.431C85.5716 116.597 84.4464 114.483 83.7632 112.211C83.0799 109.938 82.8522 107.553 83.0931 105.192C83.334 102.831 84.0388 100.542 85.1668 98.455C86.2948 96.3685 87.8237 94.5266 89.6653 93.0354C91.5069 91.5443 93.6248 90.4335 95.8968 89.767C105.364 86.9054 115.384 92.301 118.242 101.792C119.609 106.357 119.114 111.279 116.866 115.479C114.617 119.678 110.799 122.812 106.248 124.192ZM96.0573 90.3042C92.7677 91.2986 89.846 93.2486 87.6618 95.9076C85.4776 98.5666 84.1289 101.815 83.7863 105.243C83.4436 108.67 84.1225 112.122 85.7369 115.163C87.3514 118.204 89.829 120.696 92.8564 122.325C95.8838 123.954 99.325 124.647 102.745 124.315C106.165 123.983 109.41 122.642 112.07 120.462C114.73 118.281 116.685 115.359 117.688 112.064C118.691 108.77 118.697 105.251 117.706 101.953C116.371 97.5336 113.342 93.8252 109.284 91.6414C105.226 89.4576 100.469 88.9767 96.0573 90.3042Z" fill="#562710"/>
</g>
<defs>
<filter id="filter0_d_1_3043" x="0.5" y="0.5" width="210.23" height="211.23" filterUnits="userSpaceOnUse" color-interpolation-filters="sRGB">
<feFlood flood-opacity="0" result="BackgroundImageFix"/>
<feColorMatrix in="SourceAlpha" type="matrix" values="0 0 0 0 0 0 0 0 0 0 0 0 0 0 0 0 0 0 127 0" result="hardAlpha"/>
<feOffset dx="7" dy="8"/>
<feGaussianBlur stdDeviation="2"/>
<feComposite in2="hardAlpha" operator="out"/>
<feColorMatrix type="matrix" values="0 0 0 0 0 0 0 0 0 0 0 0 0 0 0 0 0 0 0.25 0"/>
<feBlend mode="normal" in2="BackgroundImageFix" result="effect1_dropShadow_1_3043"/>
<feBlend mode="normal" in="SourceGraphic" in2="effect1_dropShadow_1_3043" result="shape"/>
</filter>
<linearGradient id="paint0_linear_1_3043" x1="100.116" y1="193.748" x2="100.116" y2="6.48402" gradientUnits="userSpaceOnUse">
<stop stop-color="#7F542C"/>
<stop offset="0.16" stop-color="#84592D"/>
<stop offset="0.35" stop-color="#926632"/>
<stop offset="0.55" stop-color="#A97D39"/>
<stop offset="0.76" stop-color="#C99C43"/>
<stop offset="0.98" stop-color="#F2C450"/>
<stop offset="1" stop-color="#F7C951"/>
</linearGradient>
<linearGradient id="paint1_linear_1_3043" x1="43.9972" y1="85.997" x2="146.994" y2="85.997" gradientUnits="userSpaceOnUse">
<stop stop-color="#F7C951"/>
<stop offset="0.46" stop-color="#B88C3E"/>
<stop offset="0.82" stop-color="#8F6331"/>
<stop offset="1" stop-color="#7F542C"/>
</linearGradient>
<linearGradient id="paint2_linear_1_3043" x1="58" y1="132.002" x2="159.002" y2="132.002" gradientUnits="userSpaceOnUse">
<stop stop-color="#F7C951"/>
<stop offset="0.46" stop-color="#B88C3E"/>
<stop offset="0.82" stop-color="#8F6331"/>
<stop offset="1" stop-color="#7F542C"/>
</linearGradient>
<linearGradient id="paint3_linear_1_3043" x1="81.998" y1="75.0014" x2="101.008" y2="75.0014" gradientUnits="userSpaceOnUse">
<stop stop-color="#F7C951"/>
<stop offset="0.46" stop-color="#B88C3E"/>
<stop offset="0.82" stop-color="#8F6331"/>
<stop offset="1" stop-color="#7F542C"/>
</linearGradient>
<linearGradient id="paint4_linear_1_3043" x1="81.9991" y1="75.0002" x2="102.001" y2="75.0002" gradientUnits="userSpaceOnUse">
<stop stop-color="#7F542C"/>
<stop offset="0.18" stop-color="#8F6331"/>
<stop offset="0.54" stop-color="#B88C3E"/>
<stop offset="1" stop-color="#F7C951"/>
</linearGradient>
<linearGradient id="paint5_linear_1_3043" x1="79.9957" y1="107.005" x2="122.007" y2="107.005" gradientUnits="userSpaceOnUse">
<stop stop-color="#7F542C"/>
<stop offset="0.18" stop-color="#8F6331"/>
<stop offset="0.54" stop-color="#B88C3E"/>
<stop offset="1" stop-color="#F7C951"/>
</linearGradient>
<linearGradient id="paint6_linear_1_3043" x1="91.9971" y1="106.999" x2="110.003" y2="106.999" gradientUnits="userSpaceOnUse">
<stop stop-color="#7F542C"/>
<stop offset="0.18" stop-color="#8F6331"/>
<stop offset="0.54" stop-color="#B88C3E"/>
<stop offset="1" stop-color="#F7C951"/>
</linearGradient>
</defs>
</svg>
