<svg width="211" height="212" viewBox="0 0 211 212" fill="none" xmlns="http://www.w3.org/2000/svg">
<g filter="url(#filter0_d_1_2988)">
<path d="M188.23 12H12V188.23H188.23V12Z" stroke="url(#paint0_linear_1_2988)" stroke-width="23" stroke-miterlimit="10"/>
<path d="M35.9642 109.235C35.9642 109.235 39.7095 104.823 44.9276 104.034C50.1458 103.245 56.3273 100.469 56.3273 100.469L48.7999 108.941L56.3218 111.602C56.3218 111.602 33.7192 111.936 42.4988 123.685C42.4988 123.685 30.0455 119.828 35.9642 109.235Z" fill="url(#paint1_linear_1_2988)"/>
<path d="M57.3084 51.1835C57.3084 51.1835 57.3396 47.1605 63.1553 49.1352C58.2387 54.0518 60.2318 61.4818 60.2318 61.4818C60.2318 61.4818 57.2753 55.3444 57.3084 51.1835Z" fill="#562710"/>
<path d="M113.21 73.7422C113.21 73.7422 60.5181 68.2262 58.1793 49.1354C52.3048 63.6332 20.4004 121.027 58.1793 135.295C88.6937 146.823 113.21 78.3958 113.21 73.7422Z" fill="url(#paint2_linear_1_2988)"/>
<path d="M89.791 97.9942C89.7616 97.9134 89.7049 97.8455 89.6307 97.8021C89.5564 97.7588 89.4694 97.7428 89.3846 97.757C78.1044 99.7428 74.8868 94.646 73.9711 91.6086C73.9464 91.5291 73.8955 91.4604 73.8267 91.4137C73.7579 91.3669 73.6753 91.3449 73.5924 91.3511C73.5099 91.3591 73.4325 91.3946 73.3728 91.452C73.3131 91.5094 73.2745 91.5853 73.2632 91.6674C71.2959 107.154 84.5673 101.212 89.6273 98.4318C89.7011 98.3891 89.7577 98.3222 89.7876 98.2423C89.8174 98.1625 89.8186 98.0748 89.791 97.9942Z" fill="#562710"/>
<path d="M56.0377 84.4213C46.4068 85.3407 46.9382 75.377 46.9382 75.377L45.7099 78.7969C45.3422 89.439 52.7741 86.8704 56.2381 85.1053C56.3084 85.0637 56.3629 84.9998 56.3929 84.9238C56.4229 84.8477 56.4267 84.7639 56.4037 84.6854C56.3808 84.607 56.3323 84.5384 56.266 84.4906C56.1997 84.4428 56.1194 84.4184 56.0377 84.4213Z" fill="#562710"/>
<path d="M57.968 104.389C52.715 100.449 45.9653 102.493 43.0253 103.705C42.4401 103.945 41.9472 104.367 41.6187 104.908C41.2903 105.448 41.1435 106.08 41.1997 106.71C41.256 107.34 41.5125 107.936 41.9316 108.41C42.3507 108.884 42.9105 109.211 43.529 109.344C46.7338 110.032 51.8471 109.16 53.41 109.896C56.0816 111.153 61.1103 119.484 65.5911 119.247C70.0719 119.01 64.8832 109.574 57.968 104.389Z" fill="#562710"/>
<path d="M69.8734 131.476C69.8333 131.47 69.7963 131.451 69.7681 131.422C69.7399 131.393 69.7221 131.355 69.7175 131.315C69.7129 131.275 69.7217 131.234 69.7426 131.199C69.7635 131.165 69.7952 131.138 69.8329 131.123C75.9887 129.74 82.4866 124.782 89.148 116.388C89.1597 116.363 89.177 116.34 89.1986 116.323C89.2201 116.305 89.2454 116.293 89.2725 116.286C89.2996 116.28 89.3278 116.28 89.355 116.286C89.3822 116.292 89.4077 116.304 89.4295 116.321C89.4513 116.339 89.4688 116.361 89.4809 116.386C89.4929 116.411 89.499 116.439 89.4988 116.466C89.4986 116.494 89.4921 116.522 89.4798 116.547C89.4674 116.572 89.4495 116.593 89.4275 116.611C82.7146 125.068 76.1487 130.071 69.912 131.472C69.8993 131.475 69.8863 131.477 69.8734 131.476Z" fill="#7F381F"/>
<path d="M94.4797 109.473C94.445 109.473 94.411 109.463 94.3822 109.444C94.3429 109.417 94.3156 109.376 94.306 109.329C94.2964 109.282 94.3053 109.234 94.3308 109.194C98.1937 103.295 101.612 97.1161 104.557 90.7095C104.582 90.6756 104.617 90.6512 104.658 90.6402C104.698 90.6292 104.741 90.6324 104.779 90.6491C104.818 90.6658 104.849 90.6951 104.869 90.7322C104.888 90.7692 104.895 90.8118 104.887 90.8529C101.933 97.2785 98.5045 103.475 94.6305 109.392C94.6138 109.417 94.5913 109.437 94.5651 109.451C94.5388 109.465 94.5095 109.473 94.4797 109.473Z" fill="#7F381F"/>
<path d="M163.21 141.868C163.21 141.868 157.856 144.074 152.861 142.377C147.865 140.68 141.093 140.32 141.093 140.32L151.666 136.242L146.201 130.426C146.201 130.426 166.439 140.498 164.036 126.03C164.034 126.03 173.33 135.172 163.21 141.868Z" fill="url(#paint3_linear_1_2988)"/>
<path d="M144.001 34.0565C144.001 34.0565 143.97 30.0335 138.156 32.0083C143.07 36.9156 141.077 44.353 141.077 44.353C141.077 44.353 144.032 38.2082 144.001 34.0565Z" fill="url(#paint4_linear_1_2988)"/>
<path d="M88.0972 56.6058C88.0972 56.6058 142.915 53.0701 143.128 31.999C149.003 46.4969 180.907 103.891 143.128 118.16C112.618 129.687 88.0972 61.2687 88.0972 56.6058Z" fill="url(#paint5_linear_1_2988)"/>
<path d="M116.218 79.3576C116.195 79.4359 116.198 79.5197 116.227 79.596C116.257 79.6722 116.311 79.7365 116.381 79.7786C116.451 79.8208 116.533 79.8385 116.614 79.8288C116.695 79.8192 116.771 79.7828 116.829 79.7254C124.325 71.0635 130.036 72.9867 132.665 74.761C132.734 74.8068 132.817 74.8277 132.9 74.8204C132.983 74.813 133.061 74.7778 133.121 74.7205C133.18 74.6623 133.217 74.586 133.227 74.504C133.237 74.4219 133.219 74.3389 133.176 74.2682C124.937 61.0244 118.384 74.0108 116.218 79.3576Z" fill="#562710"/>
<path d="M156.7 65.3615L156.229 64.8632C155.437 64.0256 154.477 63.3646 153.412 62.9235C145.752 59.7407 144.838 66.7405 144.851 70.359C144.857 70.4405 144.889 70.5179 144.943 70.579C144.997 70.6401 145.07 70.6813 145.151 70.6963C145.231 70.7113 145.314 70.6991 145.387 70.6616C145.459 70.6242 145.517 70.5636 145.552 70.4895C148.214 63.6736 153.813 64.8522 156.383 65.8322C156.445 65.8571 156.514 65.86 156.577 65.8403C156.641 65.8207 156.696 65.7797 156.733 65.7243C156.77 65.6689 156.787 65.6024 156.781 65.536C156.775 65.4696 156.746 65.4074 156.7 65.3597V65.3615Z" fill="#562710"/>
<path d="M148.808 97.3471C155.311 96.4443 157.312 89.9778 158.553 87.0506C158.799 86.4676 158.853 85.8209 158.706 85.2053C158.558 84.5896 158.217 84.0373 157.733 83.6293C157.249 83.2213 156.647 82.979 156.016 82.9379C155.384 82.8968 154.756 83.0591 154.223 83.4009C151.465 85.1697 151.875 87.1205 146.741 89.143C143.994 90.226 134.606 88.5914 131.591 91.9102C128.575 95.229 140.245 98.5331 148.808 97.3471Z" fill="#562710"/>
<path d="M124.734 110.913C124.696 110.912 124.658 110.9 124.627 110.878C120.398 107.741 116.353 103.637 112.621 98.6801C112.604 98.6421 112.6 98.5994 112.611 98.5591C112.621 98.5187 112.645 98.4832 112.679 98.4582C112.712 98.4332 112.753 98.4202 112.794 98.4215C112.836 98.4227 112.876 98.4381 112.908 98.465C116.626 103.393 120.641 107.474 124.841 110.589C124.878 110.618 124.903 110.661 124.91 110.708C124.917 110.755 124.905 110.802 124.877 110.841C124.86 110.863 124.839 110.881 124.814 110.893C124.789 110.906 124.762 110.912 124.734 110.913Z" fill="#7F381F"/>
<path d="M108.941 93.2117C108.911 93.2123 108.881 93.2049 108.855 93.1904C108.828 93.1759 108.806 93.1547 108.79 93.129C99.369 78.3278 95.1714 62.3222 95.1309 62.1623C95.1177 62.1377 95.1102 62.1105 95.109 62.0827C95.1079 62.0549 95.113 62.0271 95.1242 62.0016C95.1353 61.976 95.1521 61.9534 95.1732 61.9353C95.1944 61.9171 95.2194 61.9041 95.2464 61.8971C95.2733 61.89 95.3015 61.8892 95.3289 61.8947C95.3562 61.9002 95.3819 61.9118 95.4041 61.9286C95.4262 61.9455 95.4443 61.9672 95.4569 61.9921C95.4694 62.0169 95.4762 62.0443 95.4766 62.0722C95.5189 62.2321 99.7055 78.1843 109.083 92.9378C109.107 92.9779 109.115 93.0257 109.105 93.0715C109.095 93.1173 109.068 93.1576 109.029 93.1841C109.003 93.2007 108.972 93.2102 108.941 93.2117Z" fill="#7F381F"/>
<path d="M35.963 109.236C36.7977 107.884 26.7991 129.52 67.6044 125.866C82.7642 124.509 91.9501 119.021 111.052 111.767C123.086 107.198 141.833 104.582 153.604 111.878C160.407 116.096 166.41 126.219 168.049 133.958C163.777 127.859 153.76 123.123 146.86 121.299C133.908 117.879 121.277 124.645 109.548 129.257C99.7166 133.118 89.8044 137.108 79.5778 139.8C68.8786 142.613 56.2452 143.845 45.2997 141.552C30.7816 138.511 29.353 119.937 35.963 109.236Z" fill="url(#paint6_linear_1_2988)"/>
</g>
<defs>
<filter id="filter0_d_1_2988" x="0.5" y="0.5" width="210.23" height="211.23" filterUnits="userSpaceOnUse" color-interpolation-filters="sRGB">
<feFlood flood-opacity="0" result="BackgroundImageFix"/>
<feColorMatrix in="SourceAlpha" type="matrix" values="0 0 0 0 0 0 0 0 0 0 0 0 0 0 0 0 0 0 127 0" result="hardAlpha"/>
<feOffset dx="7" dy="8"/>
<feGaussianBlur stdDeviation="2"/>
<feComposite in2="hardAlpha" operator="out"/>
<feColorMatrix type="matrix" values="0 0 0 0 0 0 0 0 0 0 0 0 0 0 0 0 0 0 0.25 0"/>
<feBlend mode="normal" in2="BackgroundImageFix" result="effect1_dropShadow_1_2988"/>
<feBlend mode="normal" in="SourceGraphic" in2="effect1_dropShadow_1_2988" result="shape"/>
</filter>
<linearGradient id="paint0_linear_1_2988" x1="100.116" y1="193.748" x2="100.116" y2="6.48402" gradientUnits="userSpaceOnUse">
<stop stop-color="#7F542C"/>
<stop offset="0.16" stop-color="#84592D"/>
<stop offset="0.35" stop-color="#926632"/>
<stop offset="0.55" stop-color="#A97D39"/>
<stop offset="0.76" stop-color="#C99C43"/>
<stop offset="0.98" stop-color="#F2C450"/>
<stop offset="1" stop-color="#F7C951"/>
</linearGradient>
<linearGradient id="paint1_linear_1_2988" x1="34.3682" y1="112.076" x2="56.3218" y2="112.076" gradientUnits="userSpaceOnUse">
<stop offset="0.63" stop-color="#7F542C"/>
<stop offset="0.79" stop-color="#81562D"/>
<stop offset="0.85" stop-color="#885C2F"/>
<stop offset="0.89" stop-color="#936832"/>
<stop offset="0.92" stop-color="#A47838"/>
<stop offset="0.95" stop-color="#BA8E3E"/>
<stop offset="0.98" stop-color="#D5A847"/>
<stop offset="1" stop-color="#F7C951"/>
</linearGradient>
<linearGradient id="paint2_linear_1_2988" x1="153.176" y1="227.985" x2="67.0453" y2="78.804" gradientUnits="userSpaceOnUse">
<stop stop-color="#7F542C"/>
<stop offset="0.18" stop-color="#83582D"/>
<stop offset="0.36" stop-color="#906431"/>
<stop offset="0.55" stop-color="#A47837"/>
<stop offset="0.74" stop-color="#C19440"/>
<stop offset="0.92" stop-color="#E6B84C"/>
<stop offset="1" stop-color="#F7C951"/>
</linearGradient>
<linearGradient id="paint3_linear_1_2988" x1="141.099" y1="134.524" x2="167.932" y2="134.524" gradientUnits="userSpaceOnUse">
<stop offset="0.63" stop-color="#7F542C"/>
<stop offset="0.79" stop-color="#81562D"/>
<stop offset="0.85" stop-color="#885C2F"/>
<stop offset="0.89" stop-color="#936832"/>
<stop offset="0.92" stop-color="#A47838"/>
<stop offset="0.95" stop-color="#BA8E3E"/>
<stop offset="0.98" stop-color="#D5A847"/>
<stop offset="1" stop-color="#F7C951"/>
</linearGradient>
<linearGradient id="paint4_linear_1_2988" x1="172.691" y1="47.5633" x2="109.982" y2="28.2317" gradientUnits="userSpaceOnUse">
<stop stop-color="#E92556"/>
<stop offset="1" stop-color="#F9C342"/>
</linearGradient>
<linearGradient id="paint5_linear_1_2988" x1="45.4017" y1="141.214" x2="136.277" y2="72.615" gradientUnits="userSpaceOnUse">
<stop stop-color="#7F542C"/>
<stop offset="0.18" stop-color="#8F6331"/>
<stop offset="0.54" stop-color="#B88C3E"/>
<stop offset="1" stop-color="#F7C951"/>
</linearGradient>
<linearGradient id="paint6_linear_1_2988" x1="32.1827" y1="125.037" x2="168.049" y2="125.037" gradientUnits="userSpaceOnUse">
<stop stop-color="#7F542C"/>
<stop offset="0.43" stop-color="#81562D"/>
<stop offset="0.59" stop-color="#885C2F"/>
<stop offset="0.7" stop-color="#936832"/>
<stop offset="0.79" stop-color="#A47838"/>
<stop offset="0.87" stop-color="#BA8E3E"/>
<stop offset="0.94" stop-color="#D5A847"/>
<stop offset="1" stop-color="#F7C951"/>
</linearGradient>
</defs>
</svg>
