<svg width="211" height="212" viewBox="0 0 211 212" fill="none" xmlns="http://www.w3.org/2000/svg">
<g filter="url(#filter0_d_1_3075)">
<path d="M188.23 12H12V188.23H188.23V12Z" stroke="url(#paint0_linear_1_3075)" stroke-width="23" stroke-miterlimit="10"/>
<path d="M91.1856 80.3314L40.286 111.675L39.2453 113.514V114.95C39.2501 115.307 39.3507 115.657 39.5366 115.963C39.7226 116.268 39.9871 116.519 40.3025 116.687L107.735 155.663C108.271 155.955 108.878 156.091 109.488 156.055C110.109 156.031 110.713 155.841 111.236 155.503L160.987 122.126V120.69L91.1856 80.3314Z" fill="#562710"/>
<path d="M109.482 154.622C108.872 154.659 108.264 154.524 107.728 154.231L40.3007 115.242C39.9854 115.074 39.7212 114.824 39.5355 114.519C39.3499 114.213 39.2496 113.864 39.2453 113.506C39.2511 113.137 39.3494 112.776 39.5313 112.454C39.7131 112.133 39.9726 111.863 40.286 111.668L88.9332 79.0296L160.976 120.69L111.231 154.074C110.708 154.412 110.104 154.601 109.482 154.622Z" fill="#7F381F"/>
<path d="M88.9148 74.8117L40.8192 107.088L40.3264 107.858L40.3503 113.457C40.3617 113.611 40.414 113.759 40.5019 113.887C40.5899 114.014 40.7102 114.116 40.8504 114.181L108.278 153.17C108.94 153.554 110.013 153.506 110.668 153.063L158.769 120.787L158.745 115.189L88.9148 74.8117Z" fill="url(#paint1_linear_1_3075)"/>
<path d="M158.747 115.19L158.146 115.595L150.311 120.846L148.863 121.832L110.652 147.464C109.988 147.908 108.916 147.955 108.261 147.573L40.8247 108.582C40.1647 108.198 40.161 107.529 40.8247 107.086L41.4646 106.655L88.9149 74.8117L158.148 114.845L158.293 114.935L158.747 115.19Z" fill="url(#paint2_linear_1_3075)"/>
<path d="M109.453 147.83L109.477 153.427C109.061 153.457 108.646 153.368 108.28 153.17L40.8486 114.179C40.7071 114.113 40.5862 114.01 40.4988 113.88C40.4114 113.751 40.3607 113.6 40.3522 113.444L40.3283 107.858C40.3387 108.013 40.3902 108.163 40.4774 108.293C40.5646 108.422 40.6844 108.526 40.8247 108.593L108.256 147.573C108.623 147.769 109.038 147.858 109.453 147.83Z" fill="url(#paint3_linear_1_3075)"/>
<path d="M158.743 114.444L150.083 120.252L148.726 121.172L110.648 146.729C109.986 147.17 108.912 147.218 108.258 146.836L47.8686 111.903C47.3256 111.604 46.8193 111.311 46.3499 111.024C43.8916 109.52 42.4096 108.145 41.4572 106.648L41.3395 106.464C41.2651 106.348 41.2139 106.218 41.1887 106.082C41.143 105.793 41.2023 105.498 41.3559 105.25C41.5094 105.002 41.7469 104.817 42.0253 104.729C43.6157 104.153 45.1355 103.398 46.5558 102.48L46.6165 102.441L88.9056 74.0597L158.743 114.444Z" fill="url(#paint4_linear_1_3075)"/>
<path d="M88.9222 74.4127L158.186 114.462L149.912 120.008L148.563 120.912L110.484 146.47C110.137 146.684 109.736 146.794 109.328 146.786C109.008 146.793 108.691 146.718 108.408 146.567L48.0102 111.651C47.5174 111.381 47.0228 111.099 46.5025 110.781C44.1894 109.364 42.6652 108.003 41.7091 106.501L41.6539 106.415L41.5877 106.31C41.5328 106.225 41.4958 106.13 41.4793 106.03C41.4456 105.811 41.4927 105.586 41.6117 105.399C41.7306 105.211 41.9135 105.073 42.1265 105.01C43.7373 104.428 45.2764 103.664 46.7139 102.734L46.7489 102.712L46.7654 102.7L88.9075 74.4219M88.8965 74.0744L46.611 102.447L46.5503 102.485C45.1317 103.403 43.6137 104.157 42.0253 104.732C41.7469 104.82 41.5094 105.005 41.3559 105.254C41.2023 105.502 41.143 105.797 41.1887 106.085C41.2139 106.221 41.2651 106.351 41.3395 106.468L41.4572 106.652C42.4096 108.148 43.8916 109.524 46.3499 111.028C46.8206 111.312 47.3268 111.605 47.8686 111.907L108.252 146.825C108.582 147.002 108.953 147.091 109.328 147.084C109.794 147.09 110.252 146.962 110.648 146.716L148.726 121.159L150.083 120.239L158.743 114.431L88.9112 74.0652L88.8965 74.0744Z" fill="url(#paint5_linear_1_3075)"/>
<path opacity="0.1" d="M149.76 114.188C149.148 114.604 149.149 115.233 149.76 115.591C150.37 115.95 151.378 115.906 151.996 115.492C152.613 115.078 152.612 114.448 151.996 114.089C151.645 113.914 151.256 113.831 150.865 113.849C150.474 113.866 150.093 113.983 149.76 114.188Z" fill="black"/>
<path d="M156.918 109.329C156.065 108.834 154.998 108.961 153.91 109.697C152.229 110.831 150.784 113.254 150.153 115.753C150.421 115.832 150.702 115.856 150.979 115.825C151.554 113.596 152.84 111.462 154.329 110.456C154.731 110.165 155.204 109.987 155.699 109.941C155.98 109.924 156.261 109.987 156.508 110.125C157.228 110.541 157.648 111.618 157.653 113.067C157.655 113.308 157.644 113.548 157.618 113.788L158.405 114.242C158.459 113.84 158.485 113.435 158.484 113.03C158.477 111.256 157.905 109.903 156.918 109.329Z" fill="#562710"/>
<path d="M158.33 114.72C158.323 114.791 158.311 114.862 158.293 114.931L158.148 114.841L158.33 114.72Z" fill="#1A2E35"/>
<path opacity="0.1" d="M142.995 110.281C142.383 110.695 142.387 111.324 142.995 111.682C143.604 112.041 144.611 111.999 145.229 111.583C145.847 111.168 145.847 110.541 145.229 110.18C144.879 110.005 144.49 109.923 144.099 109.941C143.708 109.958 143.328 110.076 142.995 110.281Z" fill="black"/>
<path d="M150.162 105.424C149.307 104.929 148.241 105.056 147.154 105.791C145.472 106.924 144.029 109.347 143.396 111.846C143.664 111.926 143.945 111.95 144.222 111.918C144.795 109.684 146.082 107.551 147.572 106.545C147.974 106.253 148.447 106.075 148.942 106.028C149.223 106.012 149.504 106.075 149.751 106.212C150.471 106.628 150.891 107.705 150.898 109.154C150.9 109.397 150.889 109.639 150.863 109.88L151.652 110.336C151.704 109.934 151.73 109.529 151.729 109.123C151.72 107.347 151.148 105.995 150.162 105.424Z" fill="#562710"/>
<path opacity="0.1" d="M136.236 106.372C135.624 106.788 135.628 107.415 136.236 107.775C136.845 108.136 137.853 108.09 138.472 107.676C139.092 107.262 139.088 106.632 138.472 106.273C138.122 106.098 137.733 106.015 137.341 106.032C136.95 106.049 136.57 106.167 136.236 106.372Z" fill="black"/>
<path d="M143.403 101.515C142.548 101.02 141.482 101.147 140.395 101.882C138.713 103.017 137.27 105.44 136.637 107.939C136.905 108.017 137.186 108.041 137.463 108.011C138.038 105.782 139.323 103.647 140.813 102.642C141.216 102.351 141.688 102.173 142.183 102.125C142.464 102.108 142.745 102.172 142.992 102.309C143.712 102.726 144.132 103.802 144.139 105.251C144.14 105.491 144.128 105.731 144.102 105.97L144.889 106.426C144.943 106.024 144.97 105.619 144.968 105.214C144.961 103.445 144.391 102.086 143.403 101.515Z" fill="#562710"/>
<path opacity="0.1" d="M129.479 102.465C128.867 102.881 128.869 103.51 129.479 103.87C130.09 104.23 131.097 104.184 131.715 103.769C132.333 103.353 132.331 102.726 131.715 102.366C131.365 102.192 130.975 102.109 130.584 102.127C130.193 102.144 129.813 102.261 129.479 102.465Z" fill="black"/>
<path d="M136.645 97.6092C135.791 97.1146 134.725 97.2415 133.638 97.977C131.956 99.1114 130.513 101.533 129.88 104.034C130.148 104.111 130.429 104.134 130.706 104.103C131.281 101.875 132.566 99.7421 134.056 98.7345C134.458 98.4435 134.931 98.2658 135.426 98.2197C135.707 98.2029 135.988 98.2667 136.235 98.4035C136.955 98.8191 137.375 99.8965 137.382 101.345C137.383 101.586 137.371 101.827 137.345 102.066L138.134 102.52C138.186 102.119 138.211 101.714 138.209 101.309C138.202 99.5306 137.625 98.181 136.645 97.6092Z" fill="#562710"/>
<path opacity="0.1" d="M122.731 98.558C122.119 98.9735 122.121 99.6005 122.731 99.9627C123.342 100.325 124.349 100.277 124.967 99.8616C125.585 99.4461 125.583 98.8172 124.967 98.4587C124.617 98.2837 124.228 98.201 123.836 98.2184C123.445 98.2357 123.065 98.3526 122.731 98.558Z" fill="black"/>
<path d="M129.888 93.7003C129.034 93.2057 127.968 93.3326 126.881 94.068C125.199 95.2025 123.756 97.624 123.123 100.123C123.391 100.202 123.671 100.226 123.949 100.194C124.524 97.966 125.809 95.8331 127.299 94.8274C127.7 94.5349 128.174 94.3564 128.668 94.3107C128.95 94.2931 129.231 94.3569 129.478 94.4946C130.198 94.9101 130.617 95.9876 130.623 97.4364C130.625 97.6772 130.613 97.9178 130.588 98.1572L131.375 98.6113C131.428 98.2096 131.454 97.8048 131.452 97.3997C131.445 95.6235 130.875 94.2739 129.888 93.7003Z" fill="#562710"/>
<path opacity="0.1" d="M115.963 94.6509C115.349 95.0664 115.353 95.6934 115.963 96.0538C116.574 96.4141 117.58 96.3682 118.199 95.9526C118.819 95.5371 118.815 94.9101 118.199 94.5497C117.849 94.375 117.459 94.2926 117.068 94.3103C116.677 94.328 116.297 94.4452 115.963 94.6509Z" fill="black"/>
<path d="M123.129 89.7931C122.275 89.2985 121.207 89.4254 120.121 90.1609C118.438 91.2953 116.995 93.7168 116.364 96.2174C116.631 96.2955 116.911 96.3192 117.188 96.2873C117.765 94.0607 119.05 91.926 120.538 90.9202C120.941 90.6296 121.415 90.4513 121.91 90.4036C122.191 90.3863 122.471 90.4501 122.717 90.5874C123.438 91.003 123.859 92.0786 123.864 93.5293C123.867 93.7705 123.857 94.0117 123.835 94.2519L124.622 94.7079C124.674 94.3061 124.7 93.9014 124.699 93.4962C124.686 91.7164 124.116 90.365 123.129 89.7931Z" fill="#562710"/>
<path opacity="0.1" d="M109.206 90.7437C108.594 91.1593 108.596 91.7862 109.206 92.1466C109.817 92.507 110.822 92.461 111.442 92.0473C112.062 91.6336 112.058 91.003 111.442 90.6426C111.092 90.4679 110.702 90.3855 110.311 90.4031C109.92 90.4208 109.54 90.5381 109.206 90.7437Z" fill="black"/>
<path d="M116.372 85.886C115.518 85.3932 114.452 85.5183 113.364 86.2537C111.683 87.3882 110.238 89.8115 109.607 92.3103C109.874 92.3882 110.154 92.412 110.431 92.3801C111.008 90.1535 112.293 88.0188 113.783 87.0131C114.185 86.7213 114.658 86.5434 115.153 86.4983C115.434 86.481 115.714 86.5448 115.96 86.6821C116.68 87.0995 117.102 88.1751 117.107 89.624C117.109 89.8641 117.097 90.1041 117.072 90.3429L117.859 90.7989C117.912 90.3972 117.938 89.9924 117.936 89.5872C117.929 87.8166 117.359 86.4578 116.372 85.886Z" fill="#1A2E35"/>
<path opacity="0.1" d="M102.447 86.8366C101.833 87.2503 101.837 87.8791 102.447 88.2395C103.058 88.5998 104.065 88.5539 104.683 88.1402C105.301 87.7265 105.299 87.0958 104.683 86.7354C104.333 86.5609 103.943 86.4786 103.552 86.4963C103.161 86.514 102.781 86.6311 102.447 86.8366Z" fill="black"/>
<path d="M109.613 81.9788C108.76 81.4842 107.693 81.6111 106.606 82.3466C104.924 83.481 103.481 85.9025 102.848 88.4031C103.115 88.4812 103.395 88.5049 103.672 88.473C104.249 86.2464 105.534 84.1117 107.024 83.1059C107.426 82.8134 107.899 82.6349 108.394 82.5893C108.675 82.572 108.955 82.6358 109.201 82.7731C109.922 83.1905 110.343 84.2661 110.348 85.715C110.35 85.9551 110.339 86.1951 110.313 86.4339L111.1 86.8899C111.153 86.4882 111.179 86.0834 111.177 85.6782C111.17 83.9021 110.596 82.5506 109.613 81.9788Z" fill="#1A2E35"/>
<path opacity="0.1" d="M95.6903 82.9276C95.078 83.3431 95.0798 83.9701 95.6903 84.3305C96.3007 84.6908 97.3083 84.6467 97.9261 84.2312C98.5439 83.8156 98.542 83.1868 97.9261 82.8283C97.5758 82.6529 97.1866 82.57 96.7953 82.5874C96.404 82.6048 96.0236 82.7219 95.6903 82.9276Z" fill="black"/>
<path d="M102.856 78.0717C102.002 77.5771 100.936 77.7039 99.8493 78.4394C98.167 79.5739 96.7236 81.9954 96.0911 84.496C96.3581 84.5749 96.6384 84.5987 96.9149 84.5658C97.4922 82.3392 98.7774 80.2045 100.267 79.1988C100.669 78.9078 101.142 78.7301 101.637 78.6839C101.918 78.6667 102.198 78.7305 102.444 78.8678C103.166 79.2852 103.586 80.3608 103.591 81.8097C103.593 82.0498 103.581 82.2898 103.556 82.5286L104.343 82.9846C104.396 82.5828 104.421 82.1781 104.42 81.7729C104.413 79.9931 103.843 78.6417 102.856 78.0717Z" fill="#1A2E35"/>
<path opacity="0.1" d="M88.9314 79.0204C88.3191 79.436 88.321 80.0648 88.9314 80.4233C89.5419 80.7819 90.5494 80.7396 91.1672 80.324C91.785 79.9085 91.7832 79.2815 91.1672 78.9212C90.8169 78.7462 90.4277 78.6634 90.0364 78.6808C89.6452 78.6982 89.2649 78.8151 88.9314 79.0204Z" fill="black"/>
<path d="M96.0966 74.1627C95.2435 73.6699 94.1771 73.7949 93.0904 74.5304C91.4081 75.6648 89.9647 78.0882 89.3322 80.5869C89.5999 80.6656 89.8806 80.69 90.1578 80.6586C90.7333 78.4302 92.0185 76.2955 93.5078 75.2898C93.9106 74.9992 94.3833 74.8209 94.8776 74.7731C95.1593 74.7565 95.4398 74.8203 95.6866 74.957C96.4074 75.3743 96.8266 76.4518 96.8321 77.8988C96.8375 78.1406 96.8289 78.3825 96.8064 78.6232L97.5933 79.0792C97.6461 78.6775 97.6719 78.2727 97.6705 77.8676C97.654 76.0859 97.084 74.7363 96.0966 74.1627Z" fill="#1A2E35"/>
<path d="M102.675 139.569C102.541 139.574 102.408 139.541 102.291 139.473C102.175 139.405 102.08 139.306 102.017 139.187C101.916 138.997 101.888 138.777 101.938 138.568C101.988 138.359 102.113 138.175 102.289 138.052L139.29 113.221C139.374 113.164 139.468 113.125 139.567 113.106C139.667 113.088 139.769 113.091 139.867 113.115C139.965 113.139 140.057 113.183 140.137 113.245C140.216 113.307 140.282 113.386 140.329 113.475C140.43 113.665 140.457 113.885 140.407 114.094C140.357 114.302 140.233 114.486 140.057 114.609L103.058 139.441C102.944 139.517 102.812 139.562 102.675 139.569Z" fill="#7F381F"/>
<path d="M98.1725 136.966C98.0377 136.97 97.9043 136.937 97.7876 136.869C97.6708 136.802 97.5755 136.703 97.5124 136.583C97.4116 136.394 97.3836 136.173 97.4337 135.965C97.4838 135.756 97.6086 135.572 97.7845 135.449L134.786 110.616C134.869 110.559 134.963 110.52 135.063 110.502C135.162 110.483 135.264 110.486 135.362 110.51C135.46 110.534 135.552 110.579 135.632 110.641C135.711 110.703 135.777 110.781 135.825 110.87C135.925 111.059 135.953 111.279 135.903 111.488C135.853 111.697 135.728 111.881 135.552 112.004L98.5513 136.837C98.4388 136.913 98.308 136.957 98.1725 136.966Z" fill="#7F381F"/>
<path d="M93.6659 134.358C93.5311 134.363 93.3977 134.33 93.281 134.262C93.1642 134.194 93.0689 134.095 93.0058 133.976C92.9054 133.786 92.8776 133.566 92.9277 133.357C92.9778 133.149 93.1023 132.965 93.278 132.842L130.279 108.02C130.362 107.963 130.457 107.924 130.556 107.905C130.655 107.887 130.757 107.89 130.855 107.914C130.953 107.938 131.045 107.982 131.125 108.044C131.205 108.106 131.271 108.184 131.318 108.273C131.419 108.463 131.447 108.683 131.397 108.892C131.347 109.101 131.222 109.285 131.046 109.408L94.0484 134.23C93.9354 134.307 93.8029 134.352 93.6659 134.358Z" fill="#7F381F"/>
<path d="M89.1593 131.76C89.0245 131.765 88.891 131.732 88.7742 131.664C88.6574 131.597 88.5621 131.497 88.4992 131.378C88.3986 131.188 88.3709 130.968 88.4213 130.759C88.4718 130.55 88.5969 130.367 88.7732 130.244L125.773 105.422C125.856 105.364 125.95 105.325 126.049 105.306C126.149 105.287 126.251 105.29 126.349 105.314C126.447 105.338 126.539 105.383 126.619 105.445C126.699 105.507 126.764 105.586 126.811 105.675C126.912 105.865 126.94 106.085 126.89 106.294C126.84 106.503 126.715 106.687 126.539 106.81L89.5381 131.632C89.4261 131.709 89.295 131.753 89.1593 131.76Z" fill="#7F381F"/>
<path d="M84.6529 129.148C84.518 129.152 84.3846 129.119 84.2679 129.051C84.1512 128.984 84.0558 128.885 83.9928 128.765C83.8923 128.575 83.8646 128.356 83.9147 128.147C83.9648 127.938 84.0893 127.754 84.2649 127.631L121.27 102.809C121.353 102.752 121.447 102.713 121.547 102.695C121.646 102.676 121.748 102.679 121.846 102.703C121.944 102.727 122.036 102.772 122.116 102.834C122.195 102.896 122.261 102.974 122.309 103.063C122.409 103.253 122.437 103.472 122.387 103.681C122.337 103.89 122.212 104.074 122.036 104.197L85.039 129.019C84.9249 129.097 84.7911 129.142 84.6529 129.148Z" fill="#7F381F"/>
<path d="M80.1481 126.544C80.0135 126.549 79.8802 126.516 79.7637 126.448C79.6472 126.38 79.5523 126.281 79.4898 126.162C79.389 125.972 79.361 125.752 79.4111 125.543C79.4613 125.334 79.586 125.151 79.762 125.027L116.763 100.205C116.846 100.147 116.94 100.108 117.04 100.089C117.139 100.07 117.242 100.073 117.34 100.097C117.438 100.121 117.53 100.166 117.61 100.228C117.69 100.291 117.755 100.369 117.802 100.459C117.902 100.649 117.93 100.869 117.88 101.078C117.83 101.287 117.706 101.47 117.53 101.594L80.5287 126.416C80.4159 126.492 80.2843 126.537 80.1481 126.544Z" fill="#7F381F"/>
<path d="M75.6434 123.937C75.5087 123.942 75.3753 123.909 75.2585 123.842C75.1417 123.775 75.0463 123.676 74.9834 123.556C74.8824 123.366 74.8543 123.146 74.9045 122.937C74.9546 122.727 75.0794 122.544 75.2555 122.42L112.251 97.589C112.334 97.5312 112.429 97.4918 112.528 97.4733C112.627 97.4548 112.73 97.4576 112.828 97.4816C112.926 97.5056 113.018 97.5502 113.098 97.6125C113.177 97.6747 113.243 97.7532 113.29 97.8427C113.39 98.0325 113.418 98.2525 113.368 98.4613C113.318 98.6701 113.193 98.8536 113.018 98.9772L76.0296 123.808C75.9155 123.887 75.7817 123.931 75.6434 123.937Z" fill="#7F381F"/>
<path d="M71.135 121.333C71.0004 121.338 70.8671 121.305 70.7506 121.237C70.6341 121.17 70.5392 121.07 70.4768 120.951C70.3759 120.761 70.348 120.541 70.3981 120.332C70.4482 120.123 70.573 119.94 70.7489 119.817L107.752 94.9873C107.835 94.9295 107.929 94.8901 108.029 94.8716C108.128 94.8531 108.23 94.8559 108.329 94.8799C108.427 94.9039 108.519 94.9485 108.598 95.0108C108.678 95.073 108.744 95.1515 108.791 95.241C108.892 95.4308 108.92 95.6508 108.869 95.8598C108.819 96.0687 108.695 96.2521 108.519 96.3755L71.5156 121.205C71.4029 121.282 71.2713 121.326 71.135 121.333Z" fill="#7F381F"/>
<path d="M66.6321 118.726C66.4967 118.731 66.3628 118.696 66.2459 118.628C66.1291 118.559 66.0341 118.459 65.972 118.338C65.8715 118.148 65.8436 117.928 65.8937 117.719C65.9438 117.51 66.0684 117.326 66.2441 117.202L103.242 92.3782C103.325 92.3205 103.419 92.2811 103.518 92.2626C103.618 92.244 103.72 92.2469 103.818 92.2709C103.917 92.2949 104.009 92.3395 104.088 92.4017C104.168 92.464 104.233 92.5425 104.28 92.632C104.381 92.8222 104.409 93.0427 104.359 93.252C104.308 93.4612 104.183 93.6449 104.007 93.7683L67.02 118.598C66.905 118.675 66.7708 118.72 66.6321 118.726Z" fill="#7F381F"/>
<path d="M62.1256 116.132C61.9907 116.136 61.8573 116.103 61.7406 116.035C61.6239 115.968 61.5285 115.869 61.4655 115.749C61.3648 115.559 61.3371 115.339 61.3876 115.13C61.438 114.921 61.5632 114.738 61.7394 114.615L98.7388 89.7747C98.822 89.7172 98.9165 89.678 99.016 89.6596C99.1155 89.6413 99.2178 89.6442 99.316 89.6681C99.4143 89.6921 99.5064 89.7366 99.5863 89.7987C99.6662 89.8608 99.732 89.9391 99.7795 90.0284C99.8801 90.2184 99.9078 90.4386 99.8574 90.6476C99.8069 90.8565 99.6818 91.0398 99.5055 91.1629L62.5043 115.994C62.3934 116.074 62.2622 116.122 62.1256 116.132Z" fill="#7F381F"/>
<path d="M57.619 113.519C57.4843 113.524 57.3511 113.491 57.2346 113.423C57.1181 113.355 57.0231 113.256 56.9607 113.137C56.8595 112.947 56.8313 112.727 56.8814 112.518C56.9316 112.309 57.0566 112.125 57.2329 112.002L94.2322 87.1675C94.3153 87.11 94.4096 87.0708 94.509 87.0525C94.6084 87.0341 94.7105 87.037 94.8086 87.061C94.9068 87.085 94.9987 87.1295 95.0784 87.1915C95.1581 87.2536 95.2238 87.3319 95.271 87.4212C95.3719 87.6109 95.3999 87.831 95.3498 88.0399C95.2996 88.2489 95.1749 88.4323 94.9989 88.5556L57.9996 113.39C57.8867 113.467 57.7551 113.511 57.619 113.519Z" fill="#7F381F"/>
<path d="M53.1124 110.912C52.978 110.917 52.845 110.884 52.7285 110.816C52.6121 110.749 52.517 110.65 52.4542 110.531C52.3532 110.341 52.3252 110.121 52.3753 109.912C52.4254 109.702 52.5502 109.519 52.7263 109.395L89.7293 84.5731C89.8124 84.5157 89.9068 84.4765 90.0061 84.4581C90.1055 84.4398 90.2076 84.4427 90.3057 84.4667C90.4039 84.4906 90.4958 84.5351 90.5755 84.5972C90.6553 84.6593 90.7209 84.7376 90.7682 84.8269C90.8686 85.0167 90.8964 85.2366 90.8463 85.4455C90.7962 85.6543 90.6717 85.8377 90.496 85.9613L53.493 110.783C53.3806 110.861 53.2488 110.905 53.1124 110.912Z" fill="#7F381F"/>
<path d="M48.6096 108.308C48.4748 108.313 48.3414 108.28 48.2246 108.212C48.1079 108.144 48.0126 108.045 47.9495 107.926C47.8491 107.736 47.8213 107.516 47.8714 107.307C47.9215 107.099 48.046 106.915 48.2216 106.792L85.2228 81.9586C85.306 81.9017 85.4002 81.8628 85.4994 81.8447C85.5985 81.8265 85.7004 81.8294 85.7983 81.8531C85.8963 81.8769 85.9882 81.921 86.068 81.9825C86.1478 82.0441 86.2138 82.1218 86.2617 82.2105C86.3626 82.4005 86.3907 82.6209 86.3406 82.8301C86.2905 83.0394 86.1656 83.2231 85.9895 83.3468L48.9883 108.18C48.8764 108.257 48.7453 108.301 48.6096 108.308Z" fill="#7F381F"/>
<path d="M107.252 142.173C107.117 142.178 106.983 142.144 106.867 142.077C106.75 142.009 106.655 141.91 106.592 141.79C106.49 141.601 106.462 141.381 106.512 141.171C106.562 140.962 106.687 140.779 106.864 140.656L146.002 114.347C146.085 114.289 146.179 114.249 146.278 114.231C146.378 114.212 146.48 114.215 146.578 114.239C146.676 114.263 146.768 114.308 146.848 114.37C146.928 114.432 146.993 114.511 147.04 114.6C147.141 114.79 147.168 115.01 147.118 115.219C147.067 115.428 146.942 115.611 146.766 115.735L107.631 142.044C107.518 142.121 107.387 142.165 107.252 142.173Z" fill="#562710"/>
<path d="M111.148 126.368C111.091 126.204 111.01 126.041 110.89 126.081C110.857 126.099 110.829 126.125 110.809 126.157C110.789 126.19 110.779 126.227 110.778 126.265C110.778 126.318 110.787 126.37 110.806 126.419C110.843 126.537 110.916 126.603 110.953 126.723C111.389 128.166 109.96 128.62 109.206 128.675C107.066 128.832 104.964 127.868 102.997 126.82C100.169 125.325 97.3579 123.67 94.4161 122.694C91.9449 121.878 88.1021 121.067 86.6753 124.833C86.6459 124.908 86.7342 125.046 86.7728 124.961C88.3209 121.481 91.8622 122.203 94.3021 123.009C97.2862 123.998 100.118 125.676 102.973 127.192C104.882 128.203 106.884 129.083 108.954 129.03C109.899 129.006 111.806 128.458 111.218 126.579C111.192 126.53 111.17 126.449 111.148 126.368Z" fill="#F7C94C"/>
<path d="M91.454 40.598C91.5065 40.6763 91.5474 40.7618 91.5753 40.8518L91.4191 40.2818C91.4099 40.2468 91.397 40.2137 91.386 40.1806V40.1604C91.3755 40.1256 91.362 40.0917 91.3455 40.0593L91.3198 40.0133C91.3071 39.9868 91.293 39.9611 91.2775 39.9361L91.1929 39.8184C91.1624 39.7789 91.1292 39.7414 91.0936 39.7063C90.8083 39.4413 90.4583 39.2561 90.0787 39.1694C88.5673 38.7704 86.4473 39.3532 85.3441 40.4564C85.1981 40.6007 85.0697 40.7618 84.9617 40.9363C84.9395 40.9668 84.9204 40.9995 84.9047 41.0338C84.8917 41.0506 84.8812 41.0692 84.8734 41.0889C84.855 41.1239 84.8385 41.1625 84.8219 41.2011C84.7647 41.3293 84.7257 41.4648 84.7061 41.6038C84.6835 41.7658 84.6929 41.9307 84.7337 42.0892L84.9175 42.7437C84.8783 42.6339 84.8572 42.5184 84.855 42.4017C85.072 42.7493 85.4783 43.0306 86.0667 43.185C87.5781 43.5858 89.6999 43.0122 90.8031 41.898C91.237 41.4622 91.4466 41.0117 91.454 40.598Z" fill="#562710"/>
<path d="M112.197 117.04L105.501 118.866L105.317 118.213L84.8989 42.7328C84.8671 42.6255 84.8522 42.5138 84.8548 42.4019C84.864 41.99 85.0754 41.5395 85.5075 41.1038C86.6107 40.0006 88.7307 39.4214 90.2439 39.8167C90.6228 39.9028 90.9723 40.0873 91.257 40.3518C91.3312 40.4261 91.3966 40.5088 91.4519 40.5982C91.5044 40.6764 91.5453 40.7619 91.5732 40.8519C91.5732 40.8666 91.5843 40.8831 91.5898 40.896V40.9126L112.197 117.04Z" fill="url(#paint6_linear_1_3075)"/>
<path d="M110.846 115.948C112.357 116.349 112.685 117.574 111.582 118.682C110.478 119.791 108.36 120.367 106.847 119.969C105.334 119.572 105.008 118.344 106.112 117.235C107.215 116.127 109.333 115.538 110.846 115.948Z" fill="#D268CC"/>
<path d="M112.016 122.242C112.017 122.211 112.017 122.181 112.016 122.15L112.222 117.502C112.223 117.498 112.223 117.494 112.222 117.491V117.456C112.223 117.428 112.223 117.4 112.222 117.371V117.324C112.207 116.704 111.731 116.176 110.835 115.939C109.322 115.538 107.202 116.114 106.099 117.226C105.459 117.87 105.304 118.552 105.582 119.089L105.604 119.122C105.634 119.175 105.667 119.226 105.703 119.274L105.724 119.307C105.724 119.309 105.725 119.311 105.725 119.313C105.725 119.315 105.724 119.317 105.724 119.319L108.243 123.22C108.413 123.447 108.662 123.602 108.941 123.652C109.419 123.751 109.913 123.736 110.383 123.608C110.854 123.481 111.288 123.244 111.65 122.917C111.845 122.74 111.974 122.502 112.016 122.242Z" fill="url(#paint7_linear_1_3075)"/>
<path d="M97.6335 71.7836C97.6351 71.7812 97.636 71.7783 97.636 71.7754C97.636 71.7724 97.6351 71.7695 97.6335 71.7671L97.6096 71.6752C97.5652 71.5854 97.5003 71.5073 97.4201 71.4472C97.3399 71.3872 97.2467 71.3468 97.1481 71.3295C96.8508 71.2686 96.5434 71.2783 96.2506 71.3578C95.9578 71.4373 95.6877 71.5845 95.462 71.7873C95.388 71.8506 95.3293 71.9297 95.2901 72.0189C95.251 72.108 95.2324 72.2048 95.2359 72.3021L95.2671 72.4198L108.228 120.313L110.964 121.043L97.6335 71.7836Z" fill="#47312E"/>
<path d="M107.176 116.461L108.222 120.322L110.964 121.043L109.55 115.82C108.722 115.864 107.913 116.083 107.176 116.461Z" fill="#332322"/>
<path d="M111.736 124.272L111.92 120.056C111.923 120.018 111.923 119.98 111.92 119.942C111.92 119.497 111.578 119.12 110.936 118.949C109.868 118.664 108.362 119.07 107.59 119.855C107.139 120.308 107.027 120.786 107.222 121.166L107.235 121.192L107.299 121.29L109.612 124.868C109.705 124.996 109.843 125.084 109.998 125.116C110.267 125.172 110.545 125.163 110.809 125.092C111.074 125.02 111.318 124.886 111.521 124.702C111.584 124.649 111.636 124.583 111.673 124.509C111.71 124.435 111.731 124.354 111.736 124.272Z" fill="#D268CC"/>
<path d="M111.736 124.272L111.92 120.056C111.923 120.018 111.923 119.98 111.92 119.942C111.92 119.497 111.578 119.12 110.936 118.949C109.868 118.664 108.362 119.07 107.59 119.855C107.139 120.308 107.027 120.786 107.222 121.166L107.235 121.192L107.299 121.29L109.612 124.868C109.705 124.996 109.843 125.084 109.998 125.116C110.267 125.172 110.545 125.163 110.809 125.092C111.074 125.02 111.318 124.886 111.521 124.702C111.584 124.649 111.636 124.583 111.673 124.509C111.71 124.435 111.731 124.354 111.736 124.272Z" fill="url(#paint8_linear_1_3075)"/>
<path d="M111.53 124.704C111.326 124.888 111.082 125.021 110.817 125.092C110.552 125.164 110.274 125.172 110.006 125.116C109.851 125.085 109.715 124.996 109.623 124.868L108.454 123.06C108.27 122.775 108.336 122.4 108.688 122.047C109.013 121.753 109.404 121.54 109.827 121.424C110.251 121.309 110.696 121.295 111.126 121.383C111.587 121.507 111.833 121.779 111.839 122.099V122.183L111.747 124.272C111.742 124.355 111.721 124.436 111.683 124.51C111.646 124.585 111.594 124.651 111.53 124.704Z" fill="url(#paint9_linear_1_3075)"/>
<path d="M111.291 123.823C111.778 123.952 111.885 124.345 111.53 124.702C111.327 124.886 111.083 125.02 110.818 125.092C110.554 125.163 110.276 125.172 110.008 125.116C109.52 124.987 109.414 124.594 109.769 124.237C109.972 124.053 110.216 123.92 110.48 123.848C110.745 123.776 111.023 123.768 111.291 123.823Z" fill="url(#paint10_linear_1_3075)"/>
<path d="M91.3564 48.5872C91.3191 48.4851 91.255 48.3948 91.1709 48.3259C91.0868 48.257 90.9858 48.212 90.8783 48.1955C90.583 48.1336 90.2771 48.1426 89.9859 48.2219C89.6947 48.3011 89.4265 48.4484 89.2033 48.6515C89.1178 48.7195 89.0524 48.8095 89.0141 48.9119C88.9759 49.0143 88.9663 49.1251 88.9863 49.2325L95.2378 72.3022C95.2343 72.2049 95.2529 72.1081 95.292 72.019C95.3312 71.9298 95.39 71.8507 95.4639 71.7874C95.6896 71.5845 95.9597 71.4374 96.2525 71.3579C96.5453 71.2784 96.8527 71.2687 97.15 71.3296C97.2487 71.3469 97.3418 71.3872 97.422 71.4473C97.5022 71.5073 97.5671 71.5854 97.6115 71.6752L91.3564 48.5872Z" fill="#604542"/>
<path d="M91.1412 49.1645C90.9167 49.3662 90.648 49.5122 90.3567 49.5907C90.0654 49.6693 89.7597 49.6783 89.4643 49.6168C89.3583 49.6004 89.2586 49.5562 89.1753 49.4887C89.0919 49.4212 89.028 49.3328 88.9899 49.2325C88.969 49.1255 88.9779 49.0147 89.0155 48.9123C89.0531 48.8099 89.118 48.7197 89.2032 48.6515C89.4264 48.4484 89.6946 48.3011 89.9858 48.2219C90.277 48.1426 90.5829 48.1336 90.8782 48.1955C90.9884 48.2032 91.0934 48.2449 91.1788 48.315C91.2641 48.385 91.3255 48.4799 91.3544 48.5865C91.3833 48.6931 91.3783 48.806 91.3401 48.9096C91.3019 49.0132 91.2324 49.1023 91.1412 49.1645Z" fill="#47312E"/>
<path d="M92.3822 45.1598V45.1286C92.3788 45.1136 92.3745 45.0989 92.3694 45.0845L91.2754 41.0541C91.269 41.0223 91.2604 40.991 91.2496 40.9603V40.9364C91.1062 40.5227 90.698 40.1844 90.0582 40.0171C88.6976 39.6494 86.789 40.1734 85.7962 41.1718C85.2979 41.6737 85.125 42.2014 85.2446 42.6427L86.3478 46.7245V46.7466V46.7705C86.4801 47.1989 86.8883 47.5519 87.5502 47.7266C88.9108 48.0943 90.8194 47.5703 91.8122 46.5719C92.2995 46.0976 92.476 45.5956 92.3822 45.1598Z" fill="#D268CC"/>
<path d="M92.3822 45.1598V45.1286C92.3788 45.1136 92.3745 45.0989 92.3694 45.0845L91.2754 41.0541C91.269 41.0223 91.2604 40.991 91.2496 40.9603V40.9364C91.1062 40.5227 90.698 40.1844 90.0582 40.0171C88.6976 39.6494 86.789 40.1734 85.7962 41.1718C85.2979 41.6737 85.125 42.2014 85.2446 42.6427L86.3478 46.7245V46.7466V46.7705C86.4801 47.1989 86.8883 47.5519 87.5502 47.7266C88.9108 48.0943 90.8194 47.5703 91.8122 46.5719C92.2995 46.0976 92.476 45.5956 92.3822 45.1598Z" fill="#562710"/>
<path d="M91.1559 44.1173C92.5165 44.4851 92.8107 45.5791 91.8233 46.5775C90.836 47.5759 88.9219 48.1017 87.5613 47.734C86.2007 47.3663 85.9065 46.2631 86.8939 45.2739C87.8813 44.2847 89.7953 43.757 91.1559 44.1173Z" fill="#562710"/>
<path d="M111.631 126.022L111.203 124.329C111.185 124.281 111.155 124.239 111.116 124.206C111.076 124.174 111.029 124.153 110.978 124.145C110.841 124.117 110.698 124.121 110.563 124.158C110.427 124.195 110.302 124.263 110.197 124.356C110.158 124.389 110.128 124.431 110.111 124.478C110.094 124.526 110.089 124.577 110.098 124.627L110.519 126.318C110.547 126.414 110.599 126.501 110.671 126.571C110.743 126.64 110.832 126.69 110.929 126.714C111.026 126.739 111.127 126.738 111.224 126.711C111.32 126.685 111.408 126.634 111.479 126.563C111.548 126.493 111.599 126.407 111.625 126.312C111.652 126.218 111.654 126.118 111.631 126.022Z" fill="#562710"/>
<path d="M111.646 126.133C111.644 126.099 111.64 126.066 111.633 126.033C111.611 125.994 111.579 125.959 111.542 125.933C111.504 125.907 111.461 125.89 111.416 125.883C111.279 125.854 111.136 125.858 111.001 125.895C110.865 125.931 110.741 126 110.637 126.094C110.598 126.125 110.568 126.166 110.55 126.212C110.533 126.258 110.527 126.308 110.535 126.357C110.539 126.368 110.542 126.378 110.546 126.388L110.557 126.419C110.584 126.477 110.621 126.529 110.668 126.572C110.776 126.68 110.922 126.74 111.074 126.74C111.226 126.74 111.373 126.68 111.48 126.572C111.538 126.515 111.583 126.446 111.611 126.37C111.64 126.295 111.652 126.213 111.646 126.133Z" fill="#562710"/>
</g>
<defs>
<filter id="filter0_d_1_3075" x="0.5" y="0.5" width="210.23" height="211.23" filterUnits="userSpaceOnUse" color-interpolation-filters="sRGB">
<feFlood flood-opacity="0" result="BackgroundImageFix"/>
<feColorMatrix in="SourceAlpha" type="matrix" values="0 0 0 0 0 0 0 0 0 0 0 0 0 0 0 0 0 0 127 0" result="hardAlpha"/>
<feOffset dx="7" dy="8"/>
<feGaussianBlur stdDeviation="2"/>
<feComposite in2="hardAlpha" operator="out"/>
<feColorMatrix type="matrix" values="0 0 0 0 0 0 0 0 0 0 0 0 0 0 0 0 0 0 0.25 0"/>
<feBlend mode="normal" in2="BackgroundImageFix" result="effect1_dropShadow_1_3075"/>
<feBlend mode="normal" in="SourceGraphic" in2="effect1_dropShadow_1_3075" result="shape"/>
</filter>
<linearGradient id="paint0_linear_1_3075" x1="100.116" y1="193.748" x2="100.116" y2="6.48402" gradientUnits="userSpaceOnUse">
<stop stop-color="#7F542C"/>
<stop offset="0.16" stop-color="#84592D"/>
<stop offset="0.35" stop-color="#926632"/>
<stop offset="0.55" stop-color="#A97D39"/>
<stop offset="0.76" stop-color="#C99C43"/>
<stop offset="0.98" stop-color="#F2C450"/>
<stop offset="1" stop-color="#F7C951"/>
</linearGradient>
<linearGradient id="paint1_linear_1_3075" x1="40.3264" y1="114.12" x2="158.769" y2="114.12" gradientUnits="userSpaceOnUse">
<stop stop-color="#7F542C"/>
<stop offset="0.18" stop-color="#8F6331"/>
<stop offset="0.54" stop-color="#B88C3E"/>
<stop offset="1" stop-color="#F7C951"/>
</linearGradient>
<linearGradient id="paint2_linear_1_3075" x1="40.3265" y1="111.322" x2="158.747" y2="111.322" gradientUnits="userSpaceOnUse">
<stop stop-color="#F7C951"/>
<stop offset="0.46" stop-color="#B88C3E"/>
<stop offset="0.82" stop-color="#8F6331"/>
<stop offset="1" stop-color="#7F542C"/>
</linearGradient>
<linearGradient id="paint3_linear_1_3075" x1="40.3283" y1="130.643" x2="109.477" y2="130.643" gradientUnits="userSpaceOnUse">
<stop stop-color="#F7C951"/>
<stop offset="0.46" stop-color="#B88C3E"/>
<stop offset="0.82" stop-color="#8F6331"/>
<stop offset="1" stop-color="#7F542C"/>
</linearGradient>
<linearGradient id="paint4_linear_1_3075" x1="41.1685" y1="110.574" x2="158.743" y2="110.574" gradientUnits="userSpaceOnUse">
<stop stop-color="#F7C951"/>
<stop offset="0.46" stop-color="#B88C3E"/>
<stop offset="0.82" stop-color="#8F6331"/>
<stop offset="1" stop-color="#7F542C"/>
</linearGradient>
<linearGradient id="paint5_linear_1_3075" x1="41.1685" y1="110.574" x2="158.743" y2="110.574" gradientUnits="userSpaceOnUse">
<stop stop-color="#F7C951"/>
<stop offset="0.46" stop-color="#B88C3E"/>
<stop offset="0.82" stop-color="#8F6331"/>
<stop offset="1" stop-color="#7F542C"/>
</linearGradient>
<linearGradient id="paint6_linear_1_3075" x1="84.8566" y1="79.278" x2="112.197" y2="79.278" gradientUnits="userSpaceOnUse">
<stop stop-color="#7F542C"/>
<stop offset="0.18" stop-color="#8F6331"/>
<stop offset="0.54" stop-color="#B88C3E"/>
<stop offset="1" stop-color="#F7C951"/>
</linearGradient>
<linearGradient id="paint7_linear_1_3075" x1="105.461" y1="119.769" x2="112.236" y2="119.769" gradientUnits="userSpaceOnUse">
<stop stop-color="#F7C951"/>
<stop offset="0.46" stop-color="#B88C3E"/>
<stop offset="0.82" stop-color="#8F6331"/>
<stop offset="1" stop-color="#7F542C"/>
</linearGradient>
<linearGradient id="paint8_linear_1_3075" x1="107.141" y1="122.007" x2="111.935" y2="122.007" gradientUnits="userSpaceOnUse">
<stop stop-color="#F7C951"/>
<stop offset="0.43" stop-color="#F5C750"/>
<stop offset="0.59" stop-color="#EEC14E"/>
<stop offset="0.7" stop-color="#E3B54B"/>
<stop offset="0.79" stop-color="#D2A545"/>
<stop offset="0.87" stop-color="#BC8F3F"/>
<stop offset="0.94" stop-color="#A17536"/>
<stop offset="1" stop-color="#7F542C"/>
</linearGradient>
<linearGradient id="paint9_linear_1_3075" x1="108.351" y1="123.239" x2="111.835" y2="123.239" gradientUnits="userSpaceOnUse">
<stop stop-color="#F7C951"/>
<stop offset="0.43" stop-color="#F5C750"/>
<stop offset="0.59" stop-color="#EEC14E"/>
<stop offset="0.7" stop-color="#E3B54B"/>
<stop offset="0.79" stop-color="#D2A545"/>
<stop offset="0.87" stop-color="#BC8F3F"/>
<stop offset="0.94" stop-color="#A17536"/>
<stop offset="1" stop-color="#7F542C"/>
</linearGradient>
<linearGradient id="paint10_linear_1_3075" x1="109.559" y1="124.469" x2="111.74" y2="124.469" gradientUnits="userSpaceOnUse">
<stop stop-color="#F7C951"/>
<stop offset="0.43" stop-color="#F5C750"/>
<stop offset="0.59" stop-color="#EEC14E"/>
<stop offset="0.7" stop-color="#E3B54B"/>
<stop offset="0.79" stop-color="#D2A545"/>
<stop offset="0.87" stop-color="#BC8F3F"/>
<stop offset="0.94" stop-color="#A17536"/>
<stop offset="1" stop-color="#7F542C"/>
</linearGradient>
</defs>
</svg>
