<svg width="211" height="212" viewBox="0 0 211 212" fill="none" xmlns="http://www.w3.org/2000/svg">
<g filter="url(#filter0_d_1_3200)">
<path d="M188.23 11.8015H12V188.032H188.23V11.8015Z" stroke="url(#paint0_linear_1_3200)" stroke-width="23" stroke-miterlimit="10"/>
<path d="M105.782 57.0002C105.381 56.4376 105 55.8768 104.412 55.4649C103.859 55.048 103.25 54.709 102.605 54.4573C102.355 54.3672 102.099 54.2735 101.838 54.1742C101.679 54.1436 101.525 54.0916 101.38 54.0197L101.257 53.9848L100.889 53.9076C100.672 53.8524 100.463 53.777 100.249 53.709C100.047 53.6894 99.8449 53.6637 99.6426 53.6318C99.4658 53.5962 99.2954 53.5342 99.137 53.4479C98.9402 53.4247 98.7491 53.3668 98.5725 53.2769L98.1846 53.139C97.3742 52.887 96.5883 52.5621 95.8366 52.1682C95.7835 52.1361 95.7275 52.109 95.6693 52.0873C95.1287 51.9126 94.7224 51.5136 94.2535 51.2231C93.9005 50.9742 93.564 50.7027 93.2459 50.4104C92.8101 50.097 92.3543 49.812 91.8817 49.5573C91.775 49.4964 91.6577 49.4565 91.536 49.4396C91.1885 49.3808 90.8391 49.3367 90.4732 49.2852C90.4732 49.2061 90.4512 49.1307 90.4493 49.0554C90.4273 48.3806 90.4659 47.6947 90.3721 47.0328C90.333 46.8233 90.3525 46.607 90.4284 46.4078C90.5043 46.2086 90.6337 46.0343 90.8024 45.9039C91.3017 45.435 91.6634 44.8387 91.8486 44.1792C91.9202 43.9904 91.9508 43.7884 91.9384 43.5868C91.9261 43.3852 91.871 43.1885 91.7769 43.0098C91.3337 42.2468 90.2508 41.6952 89.2487 42.1861C88.6456 42.4822 88.2338 42.9326 88.1823 43.6332C88.1764 43.7857 88.2086 43.9374 88.276 44.0744C88.3147 44.1603 88.3815 44.2305 88.4654 44.2733C88.5493 44.3161 88.6453 44.329 88.7376 44.3098C88.8298 44.2935 88.9134 44.2453 88.9738 44.1738C89.0343 44.1023 89.0678 44.0118 89.0685 43.9181C89.0697 43.8116 89.0617 43.7052 89.0446 43.6001C89.0261 43.4764 89.0374 43.3501 89.0776 43.2317C89.1178 43.1133 89.1857 43.0062 89.2756 42.9193C89.3655 42.8324 89.4749 42.7683 89.5946 42.7322C89.7144 42.6962 89.841 42.6892 89.9639 42.712C90.1461 42.7423 90.324 42.7948 90.4935 42.8683C90.6246 42.9103 90.7446 42.9813 90.8447 43.076C91.1701 43.453 91.1848 43.8667 90.9256 44.3135C90.6654 44.7517 90.353 45.1567 89.9952 45.5196C89.6808 45.8487 89.4436 46.1944 89.5024 46.7037C89.5815 47.487 89.5962 48.2776 89.6367 49.0646C89.6367 49.1694 89.6367 49.276 89.6367 49.3771C89.5858 49.3999 89.5328 49.4177 89.4785 49.4304C88.6012 49.5744 87.8005 50.0166 87.2115 50.6826C87.011 50.8954 86.7946 51.0927 86.5643 51.2728C85.9618 51.7338 85.2792 52.0792 84.5509 52.2914C83.6518 52.5617 82.7472 52.8154 81.8426 53.0765C81.783 53.097 81.7183 53.097 81.6587 53.0765C81.2818 53.1997 80.903 53.2916 80.5114 53.4038L80.4287 53.4259C80.4055 53.4401 80.3808 53.4518 80.3551 53.4608L79.9028 53.6557C79.6286 53.7812 79.3412 53.8756 79.046 53.937C79.0074 53.937 78.9688 53.9462 78.9301 53.9499C78.9301 53.9738 78.9301 53.9977 78.9301 54.0216C78.6415 54.1742 78.3675 54.3176 78.0954 54.4647C77.776 54.6149 77.4686 54.7894 77.1761 54.9869C76.5564 55.4668 75.946 55.9614 75.3723 56.4946C75.1081 56.7538 74.8915 57.0575 74.7325 57.3918C74.572 57.6596 74.5188 57.9782 74.5836 58.2836C74.5895 58.33 74.606 58.3743 74.6317 58.4134C74.6574 58.4524 74.6917 58.4851 74.732 58.5088C74.7723 58.5326 74.8174 58.5468 74.864 58.5505C74.9106 58.5542 74.9574 58.5471 75.0009 58.53C75.2242 58.4712 75.4227 58.3423 75.5672 58.1622C75.8173 57.8901 76.0618 57.6106 76.3321 57.3587C76.7846 56.936 77.2836 56.5659 77.8196 56.2555C78.3336 55.9618 78.8764 55.7215 79.4395 55.5385C79.4486 55.5679 79.4578 55.5936 79.4652 55.623C79.8869 55.3829 80.3399 55.2023 80.8111 55.0862C80.995 55.0347 81.1788 54.9961 81.3627 54.9611C81.6249 54.8504 81.8962 54.7624 82.1735 54.6982C82.1681 54.6857 82.1638 54.6728 82.1607 54.6596C82.9715 54.4279 83.7254 54.211 84.4811 53.9977C84.9701 53.8598 85.4666 53.7421 85.952 53.5895C86.5036 53.4185 87.0184 53.1831 87.5663 53.0379C88.1414 52.8586 88.6932 52.6117 89.2101 52.3024C89.375 52.2211 89.5558 52.1771 89.7396 52.1737C90.1078 52.1612 90.4763 52.1735 90.8428 52.2105C91.0873 52.2422 91.3269 52.304 91.5562 52.3944C92.3505 52.6922 93.1522 52.9754 93.9262 53.3137C95.0147 53.7954 96.1676 54.0896 97.2873 54.4739C97.5355 54.5585 97.7985 54.5952 98.0522 54.6578C98.2361 54.7037 98.4052 54.7607 98.6038 54.8177C98.6029 54.8275 98.6029 54.8373 98.6038 54.8471C98.6645 54.8471 98.7251 54.8471 98.7877 54.8655C99.1444 54.9244 99.4937 55.0715 99.8431 55.1615C100.027 55.2093 100.211 55.2884 100.395 55.3454H100.424C100.464 55.3508 100.503 55.3607 100.54 55.3748C100.667 55.4061 100.81 55.441 100.757 55.4484C100.935 55.4772 101.109 55.5297 101.274 55.6047C101.3 55.6083 101.326 55.6151 101.351 55.6249C101.832 55.8259 102.314 56.03 102.794 56.2372C103.394 56.4946 103.897 56.8972 104.425 57.276C104.751 57.5359 105.05 57.8292 105.315 58.1512C105.353 58.2067 105.407 58.2491 105.47 58.2724C105.533 58.2958 105.601 58.299 105.666 58.2817C105.731 58.2643 105.789 58.2272 105.832 58.1755C105.874 58.1238 105.9 58.06 105.905 57.9931C105.988 57.675 106.015 57.3293 105.782 57.0002Z" fill="#562710"/>
<path d="M146.854 140.696C146.539 140.621 146.223 140.553 145.909 140.474C145.605 140.425 145.305 140.352 145.013 140.255C144.682 140.13 144.34 140.032 143.993 139.962C143.625 139.87 143.241 139.799 142.866 139.71C142.775 139.692 142.688 139.656 142.61 139.606C142.294 139.363 141.917 139.28 141.546 139.177C141.251 139.095 140.939 139.072 140.682 138.87C140.576 138.805 140.456 138.764 140.332 138.753C139.866 138.646 139.414 138.484 138.986 138.269C138.435 138.026 137.9 137.758 137.354 137.506C137.146 137.408 136.927 137.333 136.719 137.234C136.248 137.008 135.826 136.682 135.305 136.554C135.235 136.521 135.169 136.479 135.11 136.428C134.743 136.206 134.375 135.972 133.998 135.767C133.349 135.412 132.682 135.088 132.04 134.722C131.529 134.435 131.034 134.121 130.556 133.783C129.979 133.369 129.344 133.047 128.782 132.606C128.322 132.238 127.781 131.992 127.371 131.562C127.314 131.511 127.253 131.465 127.188 131.425C126.658 131.058 126.129 130.681 125.601 130.306C125.551 130.271 125.513 130.219 125.463 130.183C124.944 129.796 124.573 129.232 123.981 128.932C123.955 128.915 123.932 128.894 123.913 128.87C123.705 128.645 123.482 128.434 123.246 128.239C122.778 127.901 122.433 127.441 122.008 127.061C121.583 126.68 121.245 126.211 120.78 125.869C120.686 125.789 120.6 125.7 120.524 125.602C120.217 125.26 119.973 124.85 119.552 124.622C119.477 124.568 119.412 124.501 119.359 124.426C119.103 124.137 118.866 123.83 118.59 123.563C118.233 123.2 117.901 122.815 117.593 122.409C117.274 122.013 116.95 121.62 116.626 121.225C116.246 120.761 115.856 120.305 115.485 119.835C115.093 119.334 114.71 118.831 114.345 118.312C114.089 117.944 113.782 117.626 113.582 117.209C113.372 116.851 113.136 116.508 112.875 116.185C112.535 115.688 112.199 115.188 111.862 114.69C111.838 114.651 111.827 114.604 111.805 114.563C111.69 114.363 111.577 114.162 111.456 113.966C111.315 113.783 111.192 113.587 111.088 113.381C110.893 112.868 110.564 112.438 110.292 111.972C110.182 111.789 110.081 111.594 109.974 111.406L109.259 110.167C109.044 109.799 108.818 109.431 108.619 109.045C108.349 108.525 108.1 107.995 107.841 107.47C107.554 106.889 107.258 106.313 106.983 105.728C106.672 105.072 106.378 104.41 106.078 103.75C105.876 103.3 105.67 102.849 105.479 102.393C105.122 101.538 104.772 100.679 104.423 99.8189C104.179 99.2177 103.929 98.6183 103.702 98.0115C103.449 97.3331 103.217 96.6454 102.98 95.9596C102.833 95.5385 102.687 95.1175 102.55 94.6927C102.504 94.5475 102.493 94.3894 102.447 94.2423C102.211 93.4921 101.961 92.7474 101.737 91.9954C101.577 91.4622 101.448 90.9217 101.308 90.3848C101.169 89.8479 101.025 89.2816 100.887 88.73C100.749 88.1784 100.601 87.6268 100.487 87.0641C100.341 86.3544 100.165 85.6539 100.058 84.935C99.9239 84.0359 99.7272 83.146 99.5801 82.2469C99.4569 81.4857 99.3558 80.7189 99.2675 79.9522C99.1756 79.1561 99.0947 78.3581 99.0359 77.562C98.9421 76.251 98.8667 74.9382 98.7913 73.6272C98.7693 73.2411 98.7913 72.8532 98.7582 72.4689C98.6994 71.6672 98.613 70.8674 98.5652 70.0657C98.5526 69.7726 98.578 69.479 98.6406 69.1924C98.8409 68.3213 99.1095 67.4673 99.4441 66.6385C99.6463 66.1034 99.9056 65.5868 100.066 65.0407C100.292 64.2721 100.452 63.4833 100.632 62.7019C100.681 62.4911 100.717 62.2774 100.738 62.0621C100.817 61.1382 100.844 60.2107 100.819 59.2838C100.784 58.6058 100.784 57.9265 100.819 57.2484C100.857 56.709 100.967 56.1771 101.147 55.6672C101.179 55.4694 101.225 55.274 101.285 55.0825C101.367 54.8233 101.566 54.5309 101.582 54.2588C101.587 54.2032 101.595 54.148 101.606 54.0933L101.559 54.0749C101.586 53.926 101.612 53.7752 101.641 53.6263C101.702 53.3082 101.774 52.992 101.825 52.672C101.843 52.6121 101.848 52.5494 101.841 52.4874C101.834 52.4254 101.814 52.3655 101.784 52.3111C101.753 52.2568 101.712 52.2092 101.662 52.171C101.613 52.1329 101.556 52.1051 101.496 52.0892C101.318 52.0277 101.132 51.9948 100.944 51.9917C100.621 51.9917 100.297 52.0119 99.9717 52.0119C99.8256 52.0021 99.6808 52.0446 99.5632 52.1319C99.4456 52.2191 99.3629 52.3455 99.3301 52.4882C99.2271 52.7897 99.0874 53.0784 98.9513 53.4075L98.8833 53.3836C98.8854 53.6189 98.8318 53.8514 98.727 54.0621L98.7159 54.1981C98.7155 54.4138 98.6757 54.6275 98.5983 54.8288H98.6075C98.6066 54.9249 98.598 55.0208 98.5817 55.1156C98.4347 55.7952 98.2172 56.4577 97.9327 57.0922C97.6297 57.707 97.1247 58.199 96.5022 58.4859C95.3755 59.035 94.1649 59.3917 92.9205 59.5413C92.3082 59.613 91.6996 59.7435 91.0818 59.7766C90.6045 59.7804 90.1276 59.7484 89.655 59.681C89.1788 59.6332 88.7026 59.5744 88.2301 59.5063C88.0024 59.4663 87.7771 59.4135 87.5553 59.3482C87.1379 59.2416 86.7095 59.1643 86.3032 59.0136C85.6798 58.7948 85.0676 58.541 84.4645 58.2891C84.1372 58.1549 83.8228 57.9894 83.4974 57.8515C83.3996 57.8063 83.3134 57.7394 83.2452 57.6559C83.177 57.5725 83.1287 57.4746 83.1039 57.3698C82.92 56.8182 82.7159 56.2666 82.5229 55.715C82.4089 55.3804 82.2986 55.0457 82.1717 54.6688L82.2581 54.6449C82.2434 54.6136 82.225 54.5897 82.2121 54.5567C82.1257 54.3507 81.7028 53.3762 82.0411 53.7274C81.8745 53.5441 81.7491 53.3271 81.6734 53.0912C81.6146 53.0729 81.5723 53.025 81.5171 52.9276C81.3761 52.6543 81.2189 52.3897 81.0464 52.1351C80.9481 51.9959 80.8166 51.8834 80.6637 51.8079C80.5109 51.7324 80.3416 51.6964 80.1712 51.7031C79.6893 51.7197 79.226 51.8926 78.8511 52.1958C78.5881 52.3797 78.5716 52.4532 78.6672 52.7879C78.715 52.9717 78.7702 53.1446 78.8106 53.3248C78.8621 53.5601 78.9724 53.7863 78.9522 54.0345C78.9412 54.0345 78.9301 54.0455 78.9209 54.0529C78.953 54.1255 78.9813 54.1997 79.0055 54.2753C79.0423 54.4022 79.0717 54.5309 79.0974 54.6578C79.1765 54.9795 79.2611 55.294 79.3218 55.5992C79.3677 55.5826 79.4119 55.5642 79.4578 55.5495C79.5277 55.7794 79.5957 55.9816 79.6509 56.1875C79.8347 56.9028 80.0186 57.6199 80.2135 58.3369C80.2798 58.6077 80.2572 58.8926 80.1492 59.1496C79.8973 59.8299 79.649 60.5121 79.4266 61.2016C79.1283 62.0989 79.0613 63.057 79.2317 63.9871C79.3719 64.8131 79.6852 65.6001 80.151 66.2965C80.6474 67.0228 81.1255 67.7674 81.6091 68.5029C81.8885 68.9258 82.1698 69.3505 82.4365 69.7899C82.7361 70.2942 82.989 70.8247 83.1921 71.3749C83.4393 71.9566 83.6325 72.5597 83.7695 73.1768C83.8057 73.4325 83.8919 73.6787 84.0232 73.9012C84.1866 73.8573 84.3474 73.8046 84.5049 73.7431C84.8285 73.5978 85.1466 73.4397 85.4647 73.2834C86.0163 73.0113 86.5845 72.7612 87.1195 72.4615C88.4636 71.7169 89.7175 70.8453 90.7472 69.6851C90.7824 69.6529 90.8206 69.624 90.8612 69.5987C90.7375 69.9375 90.5503 70.2495 90.3096 70.5181C89.616 71.3096 88.8489 72.0336 88.0186 72.6803C86.829 73.6419 85.5659 74.5079 84.2898 75.3519C82.1018 76.8008 80.0609 78.4206 78.3013 80.3843C76.8304 82.0391 75.6132 83.8502 74.8924 85.9683C74.4658 87.1641 74.2035 88.4123 74.1128 89.6787C74.0567 90.9626 74.1561 92.2486 74.4089 93.5087C74.7419 95.1763 75.1642 96.8249 75.6739 98.4473C75.707 98.5594 75.7548 98.6679 75.8081 98.815C75.8571 98.7578 75.9008 98.6963 75.9386 98.6312C76.2953 97.949 76.6484 97.2632 77.0069 96.5811C77.1632 96.2795 77.325 95.9817 77.496 95.6875C77.8508 95.0734 78.2149 94.4629 78.5734 93.8488C78.8547 93.3708 79.114 92.8798 79.4174 92.4165C79.9874 91.5394 80.5794 90.6771 81.1678 89.8111C81.7132 89.0058 82.2648 88.2023 82.8226 87.4006C82.8759 87.3378 82.9378 87.2827 83.0064 87.237C83.0043 87.3198 82.9869 87.4014 82.955 87.4778C82.4365 88.3181 81.9915 89.2007 81.519 90.0648C81.348 90.3756 81.1751 90.6863 81.0225 91.0062C80.6548 91.7711 80.3146 92.547 79.9377 93.3046C79.3971 94.3986 78.9448 95.5275 78.476 96.6509C78.0954 97.5703 77.7534 98.4896 77.439 99.4255C76.576 101.957 75.8445 104.532 75.2473 107.139C74.6461 109.889 74.271 112.684 74.1257 115.495C74.0558 116.668 74.0227 117.845 74.008 119.02C73.9933 120.123 73.9952 121.226 74.0448 122.315C74.124 123.891 74.2966 125.461 74.5615 127.016C74.8334 128.664 75.2055 130.294 75.6757 131.896C76.0324 133.112 76.4994 134.286 76.9628 135.46C76.9977 135.546 77.0363 135.631 77.0768 135.713C77.2735 136.131 77.4702 136.546 77.6688 136.964C77.8527 137.353 78.0365 137.745 78.2204 138.131C78.5532 138.791 78.897 139.448 79.2353 140.106C79.3751 140.38 79.5075 140.657 79.6546 140.931C79.7428 141.097 79.855 141.249 80.1105 141.185C80.1105 141.047 80.1105 140.907 80.1105 140.771C80.0811 139.937 80.0407 139.104 80.0241 138.269C80.0002 137.166 79.9763 136.05 79.9837 134.941C79.9929 133.488 80.0995 132.04 80.2172 130.593C80.2466 130.24 80.2723 129.885 80.3165 129.532C80.4029 128.859 80.5003 128.188 80.5923 127.509C80.7522 126.393 80.9104 125.279 81.0832 124.165C81.1917 123.464 81.3185 122.765 81.4509 122.069C81.4634 121.846 81.5428 121.633 81.6789 121.456C81.6789 121.861 81.6789 122.192 81.6789 122.541C81.6789 123.435 81.6789 124.33 81.701 125.224C81.7267 126.011 81.7929 126.794 81.8499 127.579C81.8904 128.131 81.9124 128.693 82.0025 129.234C82.3474 131.29 82.8427 133.318 83.4845 135.301C84.0365 137.025 84.7036 138.71 85.4813 140.345C86.2442 141.969 87.1505 143.522 88.1896 144.986C90.1753 147.685 92.5691 150.058 95.285 152.02C96.6582 152.973 98.1127 153.803 99.6316 154.501C101.544 155.384 103.54 156.073 105.591 156.556C107.462 157.009 109.376 157.152 111.291 157.303C111.36 157.303 111.43 157.303 111.576 157.303C111.452 157.172 111.382 157.093 111.309 157.021C110.818 156.551 110.311 156.102 109.838 155.608C108.979 154.718 108.128 153.822 107.301 152.905C106.762 152.309 106.262 151.68 105.767 151.048C105.387 150.564 105.059 150.038 104.675 149.558C104.357 149.142 104.063 148.707 103.796 148.257C103.355 147.552 102.91 146.85 102.491 146.129C101.888 145.089 101.303 144.041 100.795 142.95C100.516 142.349 100.213 141.757 99.9515 141.146C99.6371 140.411 99.3521 139.663 99.0598 138.918C99.0237 138.802 98.9948 138.684 98.9734 138.565C99.025 138.603 99.0724 138.646 99.1149 138.694C99.5985 139.389 100.066 140.097 100.566 140.781C101.022 141.404 101.498 142.012 101.989 142.606C102.667 143.426 103.36 144.232 104.1 144.997C104.706 145.629 105.313 146.26 105.962 146.852C106.881 147.683 107.854 148.426 108.832 149.169C109.371 149.577 109.961 149.915 110.509 150.312C110.994 150.665 111.498 150.992 112.019 151.29C112.784 151.726 113.528 152.193 114.322 152.577C114.78 152.798 115.242 153.01 115.713 153.208C116.365 153.484 117.023 153.747 117.684 154.008C117.967 154.12 118.27 154.192 118.544 154.324C119.193 154.637 119.901 154.751 120.59 154.887C121.193 155.031 121.81 155.105 122.429 155.107C122.475 155.11 122.521 155.116 122.567 155.124C123.211 155.19 123.845 155.365 124.499 155.297C124.546 155.297 124.592 155.301 124.637 155.308C125.099 155.332 125.557 155.361 126.024 155.372C126.439 155.383 126.857 155.372 127.274 155.372C127.35 155.368 127.427 155.359 127.502 155.346C127.653 155.324 127.802 155.3 127.952 155.28C128.182 155.253 128.412 155.231 128.642 155.199C128.809 155.177 128.977 155.129 129.146 155.122C129.871 155.098 130.592 154.988 131.291 154.795C131.394 154.764 131.503 154.751 131.608 154.723C132.295 154.55 132.996 154.414 133.667 154.192C134.456 153.929 135.219 153.591 135.991 153.283C136.271 153.195 136.542 153.08 136.8 152.94C137.181 152.697 137.593 152.526 137.99 152.322C138.306 152.16 138.62 151.998 138.933 151.829C139.246 151.66 139.542 151.461 139.852 151.307C140.404 151.029 140.933 150.706 141.432 150.342C141.492 150.287 141.546 150.225 141.592 150.158C140.672 150.077 139.782 150.007 138.894 149.915C138.403 149.864 137.918 149.753 137.423 149.7C136.305 149.567 135.198 149.346 134.114 149.04C132.795 148.665 131.499 148.214 130.232 147.688C129.246 147.295 128.265 146.879 127.291 146.442C126.555 146.105 125.82 145.734 125.084 145.359C124.232 144.923 123.406 144.439 122.609 143.91C121.971 143.48 121.3 143.103 120.697 142.614C120.28 142.277 119.826 141.981 119.41 141.643C118.822 141.169 118.226 140.703 117.649 140.216C117.239 139.869 116.843 139.503 116.457 139.128C116.027 138.708 115.611 138.276 115.198 137.841C114.847 137.473 114.497 137.105 114.168 136.712C113.942 136.447 113.751 136.16 113.543 135.871C113.844 135.978 114.026 136.223 114.24 136.443C114.453 136.664 114.755 136.791 114.953 137.015C115.248 137.305 115.571 137.565 115.918 137.791C116.064 137.903 116.22 138.001 116.365 138.113C116.451 138.2 116.545 138.28 116.645 138.352C117.06 138.554 117.399 138.874 117.809 139.087C118.219 139.3 118.553 139.576 118.941 139.799C119.434 140.08 119.921 140.374 120.427 140.633C120.978 140.915 121.552 141.139 122.098 141.428C123.089 141.931 124.107 142.378 125.149 142.766C125.717 142.999 126.3 143.196 126.893 143.357C127.629 143.54 128.351 143.724 129.089 143.879C130.235 144.144 131.406 144.293 132.582 144.324C132.643 144.324 132.705 144.34 132.766 144.344C133.288 144.383 133.81 144.436 134.334 144.451C134.717 144.462 135.101 144.427 135.485 144.405C135.87 144.383 136.221 144.355 136.589 144.324C136.741 144.309 136.892 144.276 137.045 144.257C137.657 144.182 138.273 144.142 138.883 144.028C140.386 143.752 141.865 143.358 143.305 142.849C144.501 142.438 145.675 141.966 146.823 141.433L147.852 140.931L146.854 140.696ZM83.0028 87.191C83.0033 87.1362 83.02 87.0827 83.0507 87.0372C83.0814 86.9918 83.1249 86.9564 83.1756 86.9354C83.1781 86.9912 83.1626 87.0463 83.1315 87.0926C83.1004 87.1389 83.0553 87.174 83.0028 87.1929V87.191ZM113.379 135.746L113.436 135.689L113.545 135.858L113.379 135.746Z" fill="url(#paint1_linear_1_3200)"/>
<path d="M83.1924 86.906L83.2108 86.803L83.2604 86.8416L83.1924 86.906Z" fill="url(#paint2_linear_1_3200)"/>
<path d="M83.5014 86.4832L83.5216 86.4446L83.4922 86.4409L83.5014 86.4832Z" fill="url(#paint3_linear_1_3200)"/>
</g>
<defs>
<filter id="filter0_d_1_3200" x="0.5" y="0.301514" width="210.23" height="211.23" filterUnits="userSpaceOnUse" color-interpolation-filters="sRGB">
<feFlood flood-opacity="0" result="BackgroundImageFix"/>
<feColorMatrix in="SourceAlpha" type="matrix" values="0 0 0 0 0 0 0 0 0 0 0 0 0 0 0 0 0 0 127 0" result="hardAlpha"/>
<feOffset dx="7" dy="8"/>
<feGaussianBlur stdDeviation="2"/>
<feComposite in2="hardAlpha" operator="out"/>
<feColorMatrix type="matrix" values="0 0 0 0 0 0 0 0 0 0 0 0 0 0 0 0 0 0 0.25 0"/>
<feBlend mode="normal" in2="BackgroundImageFix" result="effect1_dropShadow_1_3200"/>
<feBlend mode="normal" in="SourceGraphic" in2="effect1_dropShadow_1_3200" result="shape"/>
</filter>
<linearGradient id="paint0_linear_1_3200" x1="100.116" y1="193.549" x2="100.116" y2="6.28553" gradientUnits="userSpaceOnUse">
<stop stop-color="#7F542C"/>
<stop offset="0.16" stop-color="#84592D"/>
<stop offset="0.35" stop-color="#926632"/>
<stop offset="0.55" stop-color="#A97D39"/>
<stop offset="0.76" stop-color="#C99C43"/>
<stop offset="0.98" stop-color="#F2C450"/>
<stop offset="1" stop-color="#F7C951"/>
</linearGradient>
<linearGradient id="paint1_linear_1_3200" x1="73.9841" y1="104.498" x2="147.836" y2="104.498" gradientUnits="userSpaceOnUse">
<stop stop-color="#F7C951"/>
<stop offset="0.46" stop-color="#B88C3E"/>
<stop offset="0.82" stop-color="#8F6331"/>
<stop offset="1" stop-color="#7F542C"/>
</linearGradient>
<linearGradient id="paint2_linear_1_3200" x1="73.9845" y1="86.8545" x2="147.835" y2="86.8545" gradientUnits="userSpaceOnUse">
<stop stop-color="#F7C951"/>
<stop offset="0.46" stop-color="#B88C3E"/>
<stop offset="0.82" stop-color="#8F6331"/>
<stop offset="1" stop-color="#7F542C"/>
</linearGradient>
<linearGradient id="paint3_linear_1_3200" x1="73.9843" y1="86.4611" x2="147.838" y2="86.4611" gradientUnits="userSpaceOnUse">
<stop stop-color="#F7C951"/>
<stop offset="0.46" stop-color="#B88C3E"/>
<stop offset="0.82" stop-color="#8F6331"/>
<stop offset="1" stop-color="#7F542C"/>
</linearGradient>
</defs>
</svg>
